{
.appVersion = "3219";
.formatVersion = 3;
classes = (
{
automatic = 1;
code = "A A.cv04 A.isol.cv04 Aacute Abreve Abreveacute Abrevedotbelow Abrevegrave Abrevehookabove Abrevetilde Acircumflex Acircumflexacute Acircumflexdotbelow Acircumflexgrave Acircumflexhookabove Acircumflextilde Adieresis Adotbelow Agrave Ahookabove Atilde AE B B.cv04 C Ccedilla D D.cv04 Dcroat E E.cv04 Eacute Ecircumflex Ecircumflexacute Ecircumflexdotbelow Ecircumflexgrave Ecircumflexhookabove Ecircumflextilde Edieresis Edotbelow Egrave Ehookabove Etilde F F.cv04 G G.cv04 G.isol.cv04 Gbreve H H.cv04 H.isol.cv04 I I.cv04 Iacute Icircumflex Idieresis Idotaccent Idotbelow Igrave Ihookabove Itilde J J.calt J.cv04 J.isol.cv04 K L L.cv04 L.isol.cv04 M N Ntilde O Oacute Ocircumflex Ocircumflexacute Ocircumflexdotbelow Ocircumflexgrave Ocircumflexhookabove Ocircumflextilde Odieresis Odotbelow Ograve Ohookabove Ohorn Ohornacute Ohorndotbelow Ohorngrave Ohornhookabove Ohorntilde Otilde OE P Q R S Scedilla Germandbls T U Uacute Ucircumflex Udieresis Udotbelow Ugrave Uhookabove Uhorn Uhornacute Uhorndotbelow Uhorngrave Uhornhookabove Uhorntilde Utilde V W X Y Yacute Ydotbelow Ygrave Yhookabove Ytilde Z Z.ss01";
name = Uppercase;
},
{
automatic = 1;

glyphs = (
{
color = 6;
glyphname = A;
kernLeft = A;
kernRight = A;
lastChange = "2023-08-31 15:29:32 +0000";
layers = (
{
anchors = (
{
name = bottom;
pos = (360,0);
},
{
name = top;
pos = (360,722);
}
);
layerId = "6DBDBFCA-DF26-4695-B281-FA25C6EAD80F";
shapes = (
{
closed = 1;
nodes = (
(379,641,l),
(334,645,l),
(595,-14,l),
(631,-9,o),
(661,2,o),
(679,21,c),
(397,722,l),
(389,726,o),
(373,729,o),
(358,729,cs),
(344,729,o),
(329,726,o),
(320,722,c),
(40,20,l),
(60,0,o),
(91,-10,o),
(121,-14,c)
);
},
{
closed = 1;
nodes = (
(522,185,l),
(522,271,l),
(182,271,l),
(182,185,l)
);
}
);
width = 719;
}
);
unicode = 65;
},
{
color = 4;
glyphname = A.cv04;
kernLeft = A.alt;
kernRight = no_kerning;
lastChange = "2023-09-26 16:04:51 +0000";
layers = (
{
anchors = (
{
name = top;
pos = (469,722);
}
);
background = {
shapes = (
{
closed = 1;
nodes = (
(505,367,l),
(456,373,o),
(408,379,o),
(347,379,cs),
(271,379,o),
(219,371,o),
(168,362,c),
(155,333,o),
(166,293,o),
(183,277,c),
(222,286,o),
(276,294,o),
(345,294,cs),
(392,294,o),
(445,289,o),
(498,284,c)
);
},
{
closed = 1;
nodes = (
(498,284,l),
(573,276,o),
(649,267,o),
(711,267,cs),
(794,267,o),
(844,309,o),
(856,398,c),
(841,413,o),
(811,421,o),
(779,418,c),
(772,374,o),
(748,351,o),
(710,351,cs),
(623,351,o),
(563,359,o),
(505,367,c)
);
},
{
pos = (-27,0);
ref = n;
}
);
};
layerId = "6DBDBFCA-DF26-4695-B281-FA25C6EAD80F";
shapes = (
{
closed = 1;
nodes = (
(283,362,ls),
(193,362,o),
(137,333,o),
(99,268,c),
(112,240,o),
(136,222,o),
(162,218,c),
(199,264,o),
(227,278,o),
(285,278,cs),
(339,278,l),
(346,362,l)
);
},
{
closed = 1;
nodes = (
(771,278,l),
(783,309,o),
(783,336,o),
(771,362,c),
(327,362,l),
(320,278,l)
);
},
{
closed = 1;
nodes = (
(601,598,ls),
(577,694,o),
(537,734,o),
(467,734,cs),
(397,734,o),
(357,694,o),
(333,598,cs),
(217,131,ls),
(208,94,o),
(191,77,o),
(162,77,cs),
(145,77,o),
(129,83,o),
(112,95,c),
(82,78,o),
(68,55,o),
(66,22,c),
(87,0,o),
(124,-13,o),
(164,-13,cs),
(235,-13,o),
(287,29,o),
(306,103,cs),
(425,583,ls),
(436,626,o),
(448,644,o),
(467,644,cs),
(486,644,o),
(498,627,o),
(509,583,cs),
(629,102,ls),
(649,24,o),
(695,-14,o),
(771,-14,cs),
(818,-14,o),
(817,72,o),
(778,72,cs),
(743,72,o),
(727,93,o),
(718,130,cs)
);
}
);
width = 779;
},
{
anchors = (
{
name = top;
pos = (410,722);
}
);
associatedMasterId = "6DBDBFCA-DF26-4695-B281-FA25C6EAD80F";
layerId = "3C1F3DD1-808D-4A2A-A7E3-DFB574775ECF";
name = "7. Jul 23 at 13:56";
shapes = (
{
closed = 1;
nodes = (
(206,-11,o),
(256,44,o),
(279,162,cs),
(360,570,ls),
(370,621,o),
(384,643,o),
(407,643,cs),
(430,643,o),
(443,623,o),
(454,570,cs),
(540,176,ls),
(565,60,o),
(627,-14,o),
(723,-14,cs),
(744,-14,o),
(755,-4,o),
(755,28,cs),
(755,56,o),
(745,72,o),
(729,72,cs),
(671,72,o),
(642,117,o),
(616,232,cs),
(539,575,ls),
(515,684,o),
(477,729,o),
(409,729,cs),
(340,729,o),
(300,682,o),
(278,576,cs),
(195,173,ls),
(182,109,o),
(156,74,o),
(108,74,cs),
(90,74,o),
(80,76,o),
(62,81,c),
(43,59,o),
(39,33,o),
(44,0,c),
(61,-5,o),
(84,-11,o),
(112,-11,cs)
);
},
{
closed = 1;
nodes = (
(132,278,o),
(156,301,o),
(194,301,cs),
(355,301,o),
(423,273,o),
(557,273,cs),
(633,273,o),
(685,281,o),
(736,290,c),
(749,319,o),
(738,359,o),
(721,375,c),
(682,366,o),
(628,358,o),
(559,358,cs),
(445,358,o),
(299,385,o),
(193,385,cs),
(110,385,o),
(60,343,o),
(48,254,c),
(63,239,o),
(93,231,o),
(125,234,c)
);
}
);
width = 731;
},
{
anchors = (
{
name = top;
pos = (504,722);
},
{
name = top_;
pos = (566,722);
}
);
associatedMasterId = "6DBDBFCA-DF26-4695-B281-FA25C6EAD80F";
background = {
shapes = (
{
closed = 1;
nodes = (
(505,367,l),
(456,373,o),
(408,379,o),
(347,379,cs),
(271,379,o),
(219,371,o),
(168,362,c),
(155,333,o),
(166,293,o),
(183,277,c),
(222,286,o),
(276,294,o),
(345,294,cs),
(392,294,o),
(445,289,o),
(498,284,c)
);
},
{
closed = 1;
nodes = (
(498,284,l),
(573,276,o),
(649,267,o),
(711,267,cs),
(794,267,o),
(844,309,o),
(856,398,c),
(841,413,o),
(811,421,o),
(779,418,c),
(772,374,o),
(748,351,o),
(710,351,cs),
(623,351,o),
(563,359,o),
(505,367,c)
);
}
);
};
layerId = "EFC0B268-3C58-4076-8C1C-5F04C9231D40";
name = "19. Sep 23 at 17:36";
shapes = (
{
closed = 1;
nodes = (
(538,565,ls),
(566,618,o),
(589,647,o),
(619,647,cs),
(646,647,o),
(658,628,o),
(658,579,cs),
(658,175,ls),
(658,34,o),
(719,-14,o),
(807,-14,cs),
(836,-14,o),
(849,-8,o),
(849,25,cs),
(849,57,o),
(837,72,o),
(818,72,cs),
(781,72,o),
(750,95,o),
(750,175,cs),
(750,572,ls),
(750,689,o),
(705,734,o),
(622,734,cs),
(541,734,o),
(499,683,o),
(462,613,cs),
(251,217,ls),
(206,132,o),
(165,76,o),
(70,83,cs),
(52,84,l),
(37,55,o),
(37,26,o),
(46,-3,c),
(69,-5,ls),
(214,-15,o),
(278,74,o),
(336,184,cs)
);
},
{
closed = 1;
nodes = (
(345,295,l),
(542,295,ls),
(678,295,o),
(764,297,o),
(855,316,c),
(862,345,o),
(855,380,o),
(840,402,c),
(777,389,o),
(713,382,o),
(542,382,cs),
(352,382,l)
);
},
{
closed = 1;
nodes = (
(253,382,ls),
(162,382,o),
(106,352,o),
(69,288,c),
(82,258,o),
(105,237,o),
(132,232,c),
(168,279,o),
(195,295,o),
(255,295,cs),
(349,295,l),
(356,382,l)
);
}
);
width = 820;
}
);
},
{
color = 4;
glyphname = A.isol.cv04;
kernLeft = A.alt;
kernRight = A.alt;
lastChange = "2023-09-26 16:04:51 +0000";
layers = (
{
anchors = (
{
name = top;
pos = (423,722);
}
);
background = {
shapes = (
{
closed = 1;
nodes = (
(329,367,l),
(280,373,o),
(232,379,o),
(171,379,cs),
(95,379,o),
(43,371,o),
(-8,362,c),
(-21,333,o),
(-10,293,o),
(7,277,c),
(46,286,o),
(100,294,o),
(169,294,cs),
(216,294,o),
(269,289,o),
(322,284,c)
);
},
{
closed = 1;
nodes = (
(322,284,l),
(397,276,o),
(473,267,o),
(535,267,cs),
(618,267,o),
(668,309,o),
(680,398,c),
(665,413,o),
(635,421,o),
(603,418,c),
(596,374,o),
(572,351,o),
(534,351,cs),
(447,351,o),
(387,359,o),
(329,367,c)
);
}
);
};
layerId = "6DBDBFCA-DF26-4695-B281-FA25C6EAD80F";
shapes = (
{
closed = 1;
nodes = (
(237,362,ls),
(147,362,o),
(91,333,o),
(53,268,c),
(66,241,o),
(89,222,o),
(116,218,c),
(153,264,o),
(181,278,o),
(239,278,cs),
(293,278,l),
(300,362,l)
);
},
{
closed = 1;
nodes = (
(725,278,l),
(737,309,o),
(737,336,o),
(725,362,c),
(281,362,l),
(274,278,l)
);
},
{
closed = 1;
nodes = (
(555,598,ls),
(531,694,o),
(491,734,o),
(421,734,cs),
(351,734,o),
(311,694,o),
(287,598,cs),
(171,131,ls),
(162,94,o),
(145,77,o),
(116,77,cs),
(99,77,o),
(83,83,o),
(66,95,c),
(36,78,o),
(22,55,o),
(20,22,c),
(41,0,o),
(78,-13,o),
(118,-13,cs),
(189,-13,o),
(241,29,o),
(260,103,cs),
(379,583,ls),
(390,626,o),
(402,644,o),
(421,644,cs),
(440,644,o),
(452,627,o),
(463,583,cs),
(583,102,ls),
(602,28,o),
(654,-14,o),
(725,-14,cs),
(765,-14,o),
(802,-1,o),
(823,21,c),
(821,54,o),
(807,77,o),
(777,94,c),
(759,82,o),
(744,76,o),
(726,76,cs),
(698,76,o),
(682,92,o),
(672,130,cs)
);
}
);
width = 843;
},
{
anchors = (
{
name = top;
pos = (410,722);
}
);
associatedMasterId = "6DBDBFCA-DF26-4695-B281-FA25C6EAD80F";
layerId = "3C1F3DD1-808D-4A2A-A7E3-DFB574775ECF";
name = "7. Jul 23 at 13:56";
shapes = (
{
closed = 1;
nodes = (
(206,-11,o),
(256,44,o),
(279,162,cs),
(360,570,ls),
(370,621,o),
(384,643,o),
(407,643,cs),
(430,643,o),
(443,623,o),
(454,570,cs),
(540,176,ls),
(565,60,o),
(627,-14,o),
(723,-14,cs),
(744,-14,o),
(755,-4,o),
(755,28,cs),
(755,56,o),
(745,72,o),
(729,72,cs),
(671,72,o),
(642,117,o),
(616,232,cs),
(539,575,ls),
(515,684,o),
(477,729,o),
(409,729,cs),
(340,729,o),
(300,682,o),
(278,576,cs),
(195,173,ls),
(182,109,o),
(156,74,o),
(108,74,cs),
(90,74,o),
(80,76,o),
(62,81,c),
(43,59,o),
(39,33,o),
(44,0,c),
(61,-5,o),
(84,-11,o),
(112,-11,cs)
);
},
{
closed = 1;
nodes = (
(132,278,o),
(156,301,o),
(194,301,cs),
(355,301,o),
(423,273,o),
(557,273,cs),
(633,273,o),
(685,281,o),
(736,290,c),
(749,319,o),
(738,359,o),
(721,375,c),
(682,366,o),
(628,358,o),
(559,358,cs),
(445,358,o),
(299,385,o),
(193,385,cs),
(110,385,o),
(60,343,o),
(48,254,c),
(63,239,o),
(93,231,o),
(125,234,c)
);
}
);
width = 731;
}
);
},
{
color = 6;
glyphname = AE;
kernLeft = AE;
kernRight = H;
lastChange = "2023-08-31 09:36:21 +0000";
layers = (
{
layerId = "6DBDBFCA-DF26-4695-B281-FA25C6EAD80F";
shapes = (
{
closed = 1;
nodes = (
(571,722,l),
(473,722,l),
(40,39,l),
(56,16,o),
(85,0,o),
(113,-9,c)
);
},
{
closed = 1;
nodes = (
(567,185,l),
(567,271,l),
(218,271,l),
(218,185,l)
);
},
{
closed = 1;
nodes = (
(893,0,l),
(901,26,o),
(901,64,o),
(893,87,c),
(609,87,l),
(609,320,l),
(874,320,l),
(881,348,o),
(882,384,o),
(874,407,c),
(609,407,l),
(609,635,l),
(886,635,l),
(893,660,o),
(895,697,o),
(886,722,c),
(516,722,l),
(516,0,l)
);
}
);
width = 964;
}
);
metricLeft = A;
metricRight = E;
unicode = 198;
},
{
color = 6;
glyphname = B;
kernLeft = H;
kernRight = B;
lastChange = "2023-08-31 09:36:21 +0000";
layers = (
{
layerId = "6DBDBFCA-DF26-4695-B281-FA25C6EAD80F";
shapes = (
{
closed = 1;
nodes = (
(332,0,ls),
(491,0,o),
(579,72,o),
(579,202,cs),
(579,297,o),
(517,368,o),
(414,391,c),
(420,365,l),
(495,401,o),
(533,459,o),
(533,534,cs),
(533,652,o),
(451,722,o),
(312,722,cs),
(100,722,l),
(100,0,l)
);
},
{
closed = 1;
nodes = (
(190,323,l),
(345,323,ls),
(437,323,o),
(488,281,o),
(488,203,cs),
(488,122,o),
(442,86,o),
(343,86,cs),
(190,86,l)
);
},
{
closed = 1;
nodes = (
(190,636,l),
(305,636,ls),
(396,636,o),
(442,597,o),
(442,521,cs),
(442,447,o),
(394,405,o),
(310,405,cs),
(190,405,l)
);
}
);
width = 629;
}
);
metricLeft = P;
unicode = 66;
},
{
color = 4;
glyphname = B.cv04;
kernRight = B;
lastChange = "2023-09-26 16:04:51 +0000";
layers = (
{
background = {
shapes = (
{
pos = (117,0);
ref = B;
}
);
};
layerId = "6DBDBFCA-DF26-4695-B281-FA25C6EAD80F";
shapes = (
{
pos = (58,0);
ref = _part.caps.stem;
},
{
closed = 1;
nodes = (
(659,660,o),
(560,732,o),
(374,732,cs),
(183,732,o),
(59,663,o),
(25,535,c),
(45,513,o),
(74,503,o),
(113,505,c),
(148,603,o),
(229,646,o),
(376,646,cs),
(502,646,o),
(563,605,o),
(563,525,cs),
(563,453,o),
(510,412,o),
(415,412,cs),
(398,412,l),
(382,382,o),
(382,351,o),
(398,319,c),
(435,319,ls),
(550,319,o),
(610,277,o),
(610,196,cs),
(610,120,o),
(556,76,o),
(461,76,cs),
(430,76,o),
(394,83,o),
(371,92,c),
(349,76,o),
(339,43,o),
(345,8,c),
(377,-5,o),
(420,-12,o),
(461,-12,cs),
(614,-12,o),
(705,64,o),
(705,192,cs),
(705,300,o),
(640,375,o),
(530,391,c),
(538,357,l),
(615,387,o),
(659,450,o),
(659,530,cs)
);
}
);
width = 740;
},
{
associatedMasterId = "6DBDBFCA-DF26-4695-B281-FA25C6EAD80F";
background = {
shapes = (
{
pos = (66,0);
ref = B;
}
);
};
layerId = "2A26216F-FB6C-47BF-BC66-A5551AE6A99A";
name = "19. Sep 23 at 17:04";
shapes = (
{
closed = 1;
nodes = (
(563,-12,o),
(654,64,o),
(654,192,cs),
(654,300,o),
(589,375,o),
(479,391,c),
(487,357,l),
(559,384,o),
(608,443,o),
(608,527,cs),
(608,662,o),
(498,733,o),
(308,733,cs),
(189,733,o),
(72,708,o),
(-1,668,c),
(-1,629,o),
(13,605,o),
(37,588,c),
(98,622,o),
(209,645,o),
(313,645,cs),
(436,645,o),
(513,612,o),
(513,523,cs),
(513,458,o),
(471,412,o),
(364,412,cs),
(327,412,l),
(311,382,o),
(311,351,o),
(327,319,c),
(384,319,ls),
(498,319,o),
(559,278,o),
(559,196,cs),
(559,120,o),
(505,76,o),
(410,76,cs),
(375,76,o),
(338,82,o),
(314,92,c),
(292,76,o),
(282,43,o),
(288,8,c),
(321,-5,o),
(364,-12,o),
(410,-12,cs)
);
},
{
pos = (22,0);
ref = _part.caps.stem;
}
);
width = 689;
}
);
},
{
color = 6;
glyphname = C;
kernLeft = O;
kernRight = C;
lastChange = "2023-09-07 12:20:36 +0000";
layers = (
{
anchors = (
{
name = bottom;
pos = (378,0);
},
{
name = top;
pos = (372,722);
}
);
background = {
shapes = (
{
pos = (5,0);
ref = O;
}
);
};
layerId = "6DBDBFCA-DF26-4695-B281-FA25C6EAD80F";
shapes = (
{
closed = 1;
nodes = (
(501,-14,o),
(600,34,o),
(662,125,c),
(651,146,o),
(620,171,o),
(595,179,c),
(542,113,o),
(479,76,o),
(390,76,cs),
(236,76,o),
(151,186,o),
(151,352,cs),
(151,528,o),
(247,646,o),
(390,646,cs),
(461,646,o),
(523,617,o),
(571,555,c),
(598,563,o),
(630,593,o),
(637,617,c),
(584,692,o),
(494,736,o),
(390,736,cs),
(193,736,o),
(55,578,o),
(55,347,cs),
(55,129,o),
(178,-14,o),
(382,-14,cs)
);
}
);
width = 699;
}
);
metricLeft = O;
unicode = 67;
},
{
color = 6;
glyphname = D;
kernLeft = H;
kernRight = O;
lastChange = "2023-08-31 09:36:21 +0000";
layers = (
{
layerId = "6DBDBFCA-DF26-4695-B281-FA25C6EAD80F";
shapes = (
{
closed = 1;
nodes = (
(268,0,ls),
(517,0,o),
(662,133,o),
(662,365,cs),
(662,592,o),
(516,722,o),
(275,722,cs),
(101,722,l),
(101,4,l),
(100,0,l)
);
},
{
closed = 1;
nodes = (
(194,636,l),
(274,636,ls),
(464,636,o),
(566,544,o),
(566,365,cs),
(566,185,o),
(464,86,o),
(282,86,cs),
(194,86,l)
);
}
);
width = 717;
}
);
metricLeft = P;
metricRight = O;
unicode = 68;
},
{
color = 4;
glyphname = D.cv04;
kernRight = O;
lastChange = "2023-09-26 16:04:51 +0000";
layers = (
{
associatedMasterId = "6DBDBFCA-DF26-4695-B281-FA25C6EAD80F";
background = {
shapes = (
{
pos = (1,0);
ref = B.cv04;
}
);
};
layerId = "D0998334-ECFB-44FF-8F75-7EFD9C2A5877";
name = "30. Aug 23 at 15:50";
shapes = (
{
closed = 1;
nodes = (
(563,-12,o),
(689,117,o),
(689,348,cs),
(689,598,o),
(546,733,o),
(282,733,cs),
(181,733,o),
(76,711,o),
(-1,671,c),
(-4,633,o),
(7,606,o),
(27,585,c),
(98,620,o),
(197,644,o),
(290,644,cs),
(495,644,o),
(593,549,o),
(593,348,cs),
(593,161,o),
(508,77,o),
(369,77,cs),
(256,77,o),
(208,119,o),
(26,119,c),
(-3,54,o),
(-2,-11,o),
(38,-11,cs),
(192,-11,o),
(247,83,o),
(247,195,cs),
(247,673,l),
(154,673,l),
(154,194,ls),
(154,109,o),
(165,75,o),
(53,109,c),
(114,21,l),
(222,21,o),
(256,-12,o),
(369,-12,cs)
);
}
);
width = 734;
},
{
background = {
shapes = (
{
pos = (45,0);
ref = B.cv04;
}
);
};
layerId = "6DBDBFCA-DF26-4695-B281-FA25C6EAD80F";
name = Regular;
shapes = (
{
closed = 1;
nodes = (
(39,523,o),
(66,507,o),
(107,505,c),
(157,595,o),
(254,642,o),
(388,642,cs),
(579,642,o),
(675,547,o),
(675,359,cs),
(675,179,o),
(584,87,o),
(405,87,cs),
(307,87,o),
(260,112,o),
(201,112,cs),
(160,112,o),
(127,99,o),
(118,91,c),
(111,48,o),
(133,1,o),
(146,-10,c),
(294,-10,o),
(329,102,o),
(329,215,cs),
(329,679,l),
(236,668,l),
(236,236,ls),
(236,149,o),
(232,122,o),
(204,67,c),
(200,20,l),
(272,20,o),
(301,-3,o),
(404,-3,cs),
(655,-3,o),
(771,135,o),
(771,357,cs),
(771,601,o),
(632,732,o),
(390,732,cs),
(223,732,o),
(81,669,o),
(25,551,c)
);
}
);
width = 826;
},
{
associatedMasterId = "6DBDBFCA-DF26-4695-B281-FA25C6EAD80F";
background = {
shapes = (
{
closed = 0;
nodes = (
(174,253,ls),
(174,141,o),
(165,112,o),
(123,88,cs),
(91,70,o),
(80,57,o),
(80,39,cs),
(80,15,o),
(96,-15,o),
(115,-26,c),
(131,-22,o),
(148,-13,o),
(167,0,c),
(356,0,ls),
(440,0,o),
(498,30,o),
(535,94,c),
(522,124,o),
(499,145,o),
(472,150,c),
(436,103,o),
(406,87,o),
(353,87,cs),
(191,87,l),
(216,62,l),
(257,100,o),
(267,140,o),
(267,254,cs)
);
}
);
};
layerId = "5C9FB959-54D8-4397-85F4-8C3338412C6E";
name = "30. Aug 23 at 16:28";
shapes = (
{
closed = 1;
nodes = (
(593,-12,o),
(709,128,o),
(709,345,cs),
(709,595,o),
(556,733,o),
(287,733,cs),
(177,733,o),
(74,710,o),
(-1,671,c),
(-4,635,o),
(10,603,o),
(35,587,c),
(107,622,o),
(200,644,o),
(297,644,cs),
(505,644,o),
(613,544,o),
(613,349,cs),
(613,181,o),
(533,77,o),
(393,77,cs),
(344,77,o),
(301,90,o),
(261,102,cs),
(231,111,o),
(191,124,o),
(149,124,cs),
(92,124,o),
(56,101,o),
(56,63,cs),
(56,38,o),
(72,9,o),
(98,-11,c),
(201,-11,o),
(267,82,o),
(267,227,cs),
(267,673,l),
(174,673,l),
(174,236,ls),
(174,141,o),
(164,117,o),
(115,93,c),
(141,35,l),
(184,35,o),
(215,24,o),
(239,16,cs),
(281,2,o),
(346,-12,o),
(398,-12,cs)
);
}
);
width = 734;
},
{
associatedMasterId = "6DBDBFCA-DF26-4695-B281-FA25C6EAD80F";
background = {
shapes = (
{
ref = B.cv04;
}
);
};
layerId = "AD28E5C8-CE4C-4DB3-A9B3-95ECC0B1B74C";
name = "19. Sep 23 at 17:16";
shapes = (
{
closed = 1;
nodes = (
(139,20,l),
(211,20,o),
(241,-3,o),
(342,-3,cs),
(594,-3,o),
(710,126,o),
(710,345,cs),
(710,595,o),
(557,733,o),
(288,733,cs),
(178,733,o),
(75,710,o),
(0,671,c),
(-3,635,o),
(11,603,o),
(36,587,c),
(95,616,o),
(166,634,o),
(243,642,c),
(298,644,ls),
(506,644,o),
(614,544,o),
(614,349,cs),
(614,185,o),
(534,84,o),
(341,84,cs),
(251,84,o),
(193,112,o),
(143,112,cs),
(97,112,o),
(66,99,o),
(57,91,c),
(50,48,o),
(72,1,o),
(85,-10,c),
(233,-10,o),
(268,102,o),
(268,236,cs),
(268,679,l),
(175,668,l),
(175,236,ls),
(175,149,o),
(171,122,o),
(143,67,c)
);
}
);
width = 735;
}
);
metricLeft = B.cv04;
metricRight = D;
},
{
color = 1;
glyphname = Dcroat;
kernLeft = H;
kernRight = O;
lastChange = "2023-09-15 13:47:42 +0000";
layers = (
{
layerId = "6DBDBFCA-DF26-4695-B281-FA25C6EAD80F";
shapes = (
{
closed = 1;
nodes = (
(356,315,l),
(367,341,o),
(367,384,o),
(356,408,c),
(17,408,l),
(6,384,o),
(6,341,o),
(17,315,c)
);
},
{
ref = D;
}
);
width = 717;
}
);
metricRight = O;
unicode = 272;
},
{
color = 6;
glyphname = E;
kernLeft = H;
kernRight = E;
lastChange = "2023-08-31 15:28:16 +0000";
layers = (
{
anchors = (
{
name = bottom;
pos = (318,0);
},
{
name = top;
pos = (318,722);
}
);
layerId = "6DBDBFCA-DF26-4695-B281-FA25C6EAD80F";
shapes = (
{
closed = 1;
nodes = (
(527,0,l),
(535,26,o),
(535,64,o),
(527,87,c),
(193,87,l),
(193,320,l),
(498,320,l),
(505,348,o),
(506,384,o),
(498,407,c),
(193,407,l),
(193,635,l),
(520,635,l),
(527,660,o),
(529,697,o),
(520,722,c),
(100,722,l),
(100,0,l)
);
}
);
width = 598;
}
);
metricLeft = H;
unicode = 69;
},
{
color = 4;
glyphname = E.cv04;
lastChange = "2023-09-26 16:56:15 +0000";
layers = (
{
layerId = "6DBDBFCA-DF26-4695-B281-FA25C6EAD80F";
shapes = (
{
closed = 1;
nodes = (
(426,-12,o),
(519,31,o),
(565,102,c),
(554,130,o),
(532,150,o),
(501,157,c),
(457,105,o),
(398,78,o),
(324,78,cs),
(226,78,o),
(166,125,o),
(166,202,cs),
(166,281,o),
(232,330,o),
(340,330,cs),
(402,330,l),
(411,351,o),
(409,400,o),
(400,417,c),
(323,417,ls),
(226,417,o),
(166,461,o),
(166,531,cs),
(166,600,o),
(224,646,o),
(312,646,cs),
(378,646,o),
(427,622,o),
(464,571,c),
(491,576,o),
(527,606,o),
(536,631,c),
(489,699,o),
(411,736,o),
(316,736,cs),
(169,736,o),
(70,653,o),
(70,531,cs),
(70,449,o),
(116,387,o),
(198,356,c),
(196,383,l),
(116,348,o),
(70,279,o),
(70,194,cs),
(70,70,o),
(167,-12,o),
(316,-12,cs)
);
}
);
width = 595;
},
{
associatedMasterId = "6DBDBFCA-DF26-4695-B281-FA25C6EAD80F";
layerId = "2D9FEAA7-B79F-4BC6-A91D-2DB6D532AE79";
name = "26. Sep 23 at 18:48";
shapes = (
{
closed = 1;
nodes = (
(419,-12,o),
(510,21,o),
(576,80,c),
(564,115,o),
(546,140,o),
(526,151,c),
(471,104,o),
(400,78,o),
(329,78,cs),
(228,78,o),
(166,125,o),
(166,200,cs),
(166,283,o),
(234,330,o),
(355,330,cs),
(402,330,l),
(410,348,o),
(408,396,o),
(400,417,c),
(336,417,ls),
(228,417,o),
(166,459,o),
(166,533,cs),
(166,602,o),
(227,646,o),
(323,646,cs),
(371,646,o),
(427,632,o),
(472,610,c),
(488,623,o),
(505,665,o),
(505,690,c),
(465,717,o),
(389,736,o),
(321,736,cs),
(172,736,o),
(70,653,o),
(70,532,cs),
(70,449,o),
(116,387,o),
(198,356,c),
(196,383,l),
(116,348,o),
(70,280,o),
(70,195,cs),
(70,69,o),
(169,-12,o),
(322,-12,cs)
);
}
);
width = 600;
}
);
},
{
color = 6;
glyphname = F;
kernLeft = H;
kernRight = F;
lastChange = "2023-08-31 09:36:21 +0000";
layers = (
{
layerId = "6DBDBFCA-DF26-4695-B281-FA25C6EAD80F";
shapes = (
{
closed = 1;
nodes = (
(162,-4,o),
(178,-3,o),
(193,0,c),
(193,324,l),
(489,324,l),
(496,350,o),
(496,384,o),
(489,411,c),
(193,411,l),
(193,635,l),
(521,635,l),
(529,660,o),
(529,698,o),
(521,722,c),
(100,722,l),
(100,0,l),
(116,-3,o),
(131,-4,o),
(146,-4,cs)
);
}
);
width = 582;
}
);
metricLeft = H;
metricRight = "=E-10";
unicode = 70;
},
{
color = 4;
glyphname = F.cv04;
kernRight = F.alt;
lastChange = "2023-09-26 16:04:51 +0000";
layers = (
{
background = {
shapes = (
{
pos = (70,0);
ref = B.cv04;
}
);
};
layerId = "6DBDBFCA-DF26-4695-B281-FA25C6EAD80F";
shapes = (
{
pos = (78,0);
ref = _part.caps.stem;
},
{
closed = 1;
nodes = (
(274,341,l),
(514,341,l),
(526,370,o),
(527,399,o),
(514,428,c),
(274,428,l)
);
},
{
closed = 1;
nodes = (
(267,722,ls),
(132,722,o),
(55,678,o),
(25,555,c),
(42,539,o),
(81,529,o),
(114,534,c),
(133,607,o),
(165,635,o),
(249,635,cs),
(624,635,l),
(636,664,o),
(637,693,o),
(624,722,c)
);
}
);
width = 658;
},
{
associatedMasterId = "6DBDBFCA-DF26-4695-B281-FA25C6EAD80F";
background = {
shapes = (
{
pos = (32,0);
ref = B.cv04;
}
);
};
layerId = "AE714AD5-E6B4-429B-92C3-6099E7A0B0F4";
name = "30. Aug 23 at 15:57";
shapes = (
{
pos = (38,0);
ref = _part.caps.stem;
},
{
closed = 1;
nodes = (
(273,642,o),
(293,639,o),
(342,633,cs),
(411,625,o),
(438,622,o),
(471,622,cs),
(534,622,o),
(580,630,o),
(635,648,c),
(637,655,o),
(637,662,o),
(637,670,cs),
(637,693,o),
(629,718,o),
(617,729,c),
(544,713,o),
(514,710,o),
(477,710,cs),
(446,710,o),
(419,713,o),
(360,720,cs),
(301,727,o),
(271,730,o),
(244,730,cs),
(155,730,o),
(74,707,o),
(15,670,c),
(15,636,o),
(29,611,o),
(51,593,c),
(109,626,o),
(169,642,o),
(245,642,cs)
);
},
{
closed = 1;
nodes = (
(249,341,o),
(267,343,o),
(284,343,cs),
(301,343,o),
(316,341,o),
(335,339,cs),
(359,336,o),
(375,333,o),
(397,333,cs),
(421,333,o),
(448,336,o),
(480,346,c),
(489,370,o),
(486,412,o),
(465,430,c),
(438,424,o),
(415,421,o),
(394,421,cs),
(371,421,o),
(351,423,o),
(332,426,cs),
(315,429,o),
(300,431,o),
(284,431,cs),
(267,431,o),
(250,429,o),
(232,422,c),
(229,335,l)
);
}
);
width = 645;
}
);
metricLeft = B.cv04;
},
{
color = 6;
glyphname = G;
kernLeft = O;
kernRight = O;
lastChange = "2023-08-31 09:36:21 +0000";
layers = (
{
anchors = (
{
name = bottom;
pos = (372,0);
},
{
name = top;
pos = (372,722);
}
);
layerId = "6DBDBFCA-DF26-4695-B281-FA25C6EAD80F";
shapes = (
{
closed = 1;
nodes = (
(565,-14,o),
(683,107,o),
(683,293,cs),
(683,332,o),
(678,382,o),
(673,393,c),
(357,393,l),
(346,372,o),
(346,325,o),
(357,307,c),
(630,307,l),
(584,334,l),
(589,322,o),
(591,305,o),
(591,284,cs),
(591,158,o),
(508,75,o),
(384,75,cs),
(240,75,o),
(150,187,o),
(150,364,cs),
(150,542,o),
(240,647,o),
(396,647,cs),
(466,647,o),
(524,626,o),
(578,581,c),
(605,602,o),
(622,627,o),
(628,653,c),
(576,706,o),
(490,736,o),
(395,736,cs),
(187,736,o),
(55,590,o),
(55,361,cs),
(55,133,o),
(185,-14,o),
(386,-14,cs)
);
}
);
width = 743;
}
);
metricLeft = O;
metricRight = "=O+5";
unicode = 71;
},
{
color = 4;
glyphname = G.cv04;
kernLeft = O;
kernRight = no_kerning;
lastChange = "2023-09-26 16:04:51 +0000";
layers = (
{
anchors = (
{
name = "#fina";
pos = (590,16);
}
);
layerId = "6DBDBFCA-DF26-4695-B281-FA25C6EAD80F";
shapes = (
{
closed = 1;
nodes = (
(566,15,l),
(382,-96,o),
(293,-212,o),
(293,-337,cs),
(293,-443,o),
(358,-514,o),
(467,-514,cs),
(586,-514,o),
(640,-432,o),
(640,-274,cs),
(640,347,l),
(609,355,o),
(579,355,o),
(547,347,c),
(547,273,ls),
(547,153,o),
(461,77,o),
(354,77,cs),
(216,77,o),
(150,203,o),
(150,359,cs),
(150,555,o),
(253,646,o),
(375,646,cs),
(462,646,o),
(523,599,o),
(546,537,c),
(580,543,o),
(609,555,o),
(628,575,c),
(591,677,o),
(501,736,o),
(377,736,cs),
(171,736,o),
(55,569,o),
(55,353,cs),
(55,153,o),
(155,-14,o),
(354,-14,cs),
(443,-14,o),
(526,19,o),
(579,96,c),
(547,96,l),
(547,-274,ls),
(547,-374,o),
(522,-425,o),
(463,-425,cs),
(416,-425,o),
(388,-391,o),
(388,-334,cs),
(388,-255,o),
(448,-173,o),
(565,-95,c)
);
}
);
width = 767;
}
);
metricLeft = O;
},
{
color = 6;
glyphname = H;
kernLeft = H;
kernRight = H;
lastChange = "2023-08-31 09:36:21 +0000";
layers = (
{
layerId = "6DBDBFCA-DF26-4695-B281-FA25C6EAD80F";
shapes = (
{
closed = 1;
nodes = (
(162,-7,o),
(176,-5,o),
(193,0,c),
(193,325,l),
(532,325,l),
(532,0,l),
(549,-5,o),
(564,-7,o),
(579,-7,cs),
(595,-7,o),
(610,-5,o),
(625,0,c),
(625,722,l),
(608,727,o),
(594,729,o),
(579,729,cs),
(563,729,o),
(547,727,o),
(532,722,c),
(532,412,l),
(193,412,l),
(193,722,l),
(178,727,o),
(163,729,o),
(146,729,cs),
(131,729,o),
(117,727,o),
(100,722,c),
(100,0,l),
(115,-5,o),
(130,-7,o),
(146,-7,cs)
);
}
);
width = 725;
}
);
unicode = 72;
},
{
color = 4;
glyphname = H.isol.cv04;
lastChange = "2023-09-26 16:14:35 +0000";
layers = (
{
layerId = "6DBDBFCA-DF26-4695-B281-FA25C6EAD80F";
shapes = (
{
pos = (-7,0);
ref = _part.caps.I;
},
{
closed = 1;
nodes = (
(702,-14,l),
(733,-14,o),
(763,-6,o),
(782,4,c),
(787,35,o),
(779,62,o),
(760,82,c),
(743,76,o),
(728,72,o),
(709,72,c)
);
},
{
pos = (-7,0);
ref = _part.H.cv04;
}
);
width = 872;
}
);
},
{
color = 6;
glyphname = I;
kernLeft = I;
kernRight = I;
lastChange = "2023-08-31 15:39:25 +0000";
layers = (
{
anchors = (
{
name = bottom;
pos = (252,0);
},
{
name = top;
pos = (252,722);
}
);
layerId = "6DBDBFCA-DF26-4695-B281-FA25C6EAD80F";
shapes = (
{
closed = 1;
nodes = (
(432,0,l),
(441,22,o),
(441,62,o),
(432,84,c),
(299,84,l),
(299,638,l),
(432,638,l),
(441,661,o),
(441,700,o),
(432,722,c),
(72,722,l),
(63,700,o),
(63,661,o),
(72,638,c),
(206,638,l),
(206,84,l),
(72,84,l),
(63,62,o),
(63,22,o),
(72,0,c)
);
}
);
width = 504;
}
);
unicode = 73;
},
{
color = 4;
glyphname = I.cv04;
lastChange = "2023-09-26 16:04:51 +0000";
layers = (
{
associatedMasterId = "6DBDBFCA-DF26-4695-B281-FA25C6EAD80F";
layerId = "4C984031-4176-404F-BA5A-A1576B495A10";
name = "1. Aug 23 at 17:16";
shapes = (
{
closed = 1;
nodes = (
(290,-11,o),
(345,46,o),
(345,152,cs),
(345,469,ls),
(345,580,o),
(366,626,o),
(429,650,c),
(438,685,o),
(433,712,o),
(413,729,c),
(219,729,ls),
(135,729,o),
(77,699,o),
(40,635,c),
(53,606,o),
(76,586,o),
(102,581,c),
(139,628,o),
(169,644,o),
(222,644,cs),
(341,644,l),
(318,667,l),
(271,624,o),
(255,574,o),
(255,468,cs),
(255,146,ls),
(255,100,o),
(231,74,o),
(182,74,cs),
(153,74,o),
(123,83,o),
(92,115,c),
(63,99,o),
(48,78,o),
(40,49,c),
(77,6,o),
(123,-11,o),
(179,-11,cs)
);
}
);
width = 478;
},
{
associatedMasterId = "6DBDBFCA-DF26-4695-B281-FA25C6EAD80F";
layerId = "8AA6EFB8-AB7F-4B2D-A747-5681AF2782B3";
name = "1. Aug 23 at 17:17";
shapes = (
{
closed = 1;
nodes = (
(368,729,l),
(209,729,ls),
(130,729,o),
(75,699,o),
(40,635,c),
(53,606,o),
(76,586,o),
(102,581,c),
(136,628,o),
(163,644,o),
(212,644,cs),
(336,644,ls),
(399,644,o),
(428,682,o),
(428,706,cs),
(428,726,o),
(395,750,o),
(360,750,c),
(295,714,o),
(255,651,o),
(255,524,cs),
(255,146,ls),
(255,100,o),
(231,74,o),
(182,74,cs),
(153,74,o),
(123,83,o),
(92,115,c),
(63,99,o),
(48,78,o),
(40,49,c),
(77,6,o),
(123,-11,o),
(179,-11,cs),
(290,-11,o),
(345,46,o),
(345,152,cs),
(345,525,ls),
(345,572,o),
(345,621,o),
(374,657,c)
);
}
);
width = 478;
},
{
layerId = "6DBDBFCA-DF26-4695-B281-FA25C6EAD80F";
name = Regular;
shapes = (
{
pos = (-7,0);
ref = _part.caps.I;
},
{
closed = 1;
nodes = (
(285,-14,o),
(345,49,o),
(345,152,cs),
(345,424,l),
(314,436,o),
(283,436,o),
(252,424,c),
(252,153,ls),
(252,101,o),
(227,72,o),
(182,72,cs),
(156,72,o),
(135,79,o),
(110,97,c),
(82,85,o),
(67,62,o),
(64,29,c),
(88,3,o),
(137,-14,o),
(188,-14,cs)
);
}
);
width = 469;
}
);
metricLeft = H.cv04;
},
{
color = 6;
glyphname = J;
kernLeft = J;
kernRight = J;
lastChange = "2023-08-31 09:36:21 +0000";
layers = (
{
layerId = "6DBDBFCA-DF26-4695-B281-FA25C6EAD80F";
shapes = (
{
closed = 1;
nodes = (
(407,-14,o),
(486,79,o),
(486,233,cs),
(486,641,l),
(667,641,l),
(674,672,o),
(675,691,o),
(667,722,c),
(182,722,l),
(172,691,o),
(174,672,o),
(182,641,c),
(392,641,l),
(392,233,ls),
(392,133,o),
(354,75,o),
(268,75,cs),
(177,75,o),
(145,140,o),
(130,243,c),
(100,247,o),
(61,240,o),
(40,225,c),
(54,82,o),
(118,-14,o),
(266,-14,cs)
);
}
);
width = 703;
}
);
unicode = 74;
},
{
color = 6;
glyphname = J.calt;
kernLeft = J;
kernRight = U;
lastChange = "2023-08-31 09:36:21 +0000";
layers = (
{
layerId = "6DBDBFCA-DF26-4695-B281-FA25C6EAD80F";
shapes = (
{
closed = 1;
nodes = (
(407,-14,o),
(486,79,o),
(486,233,cs),
(486,722,l),
(182,722,l),
(172,690,o),
(174,671,o),
(182,638,c),
(392,638,l),
(392,233,ls),
(392,133,o),
(354,75,o),
(268,75,cs),
(177,75,o),
(145,140,o),
(130,243,c),
(100,247,o),
(71,240,o),
(40,225,c),
(54,82,o),
(118,-14,o),
(266,-14,cs)
);
}
);
width = 576;
}
);
metricLeft = J;
metricRight = U;
},
{
color = 4;
glyphname = J.cv04;
kernRight = no_kerning;
lastChange = "2023-09-26 16:04:51 +0000";
layers = (
{
associatedMasterId = "6DBDBFCA-DF26-4695-B281-FA25C6EAD80F";
layerId = "4C984031-4176-404F-BA5A-A1576B495A10";
name = "1. Aug 23 at 17:16";
shapes = (
{
closed = 1;
nodes = (
(290,-11,o),
(345,46,o),
(345,152,cs),
(345,469,ls),
(345,580,o),
(366,626,o),
(429,650,c),
(438,685,o),
(433,712,o),
(413,729,c),
(219,729,ls),
(135,729,o),
(77,699,o),
(40,635,c),
(53,606,o),
(76,586,o),
(102,581,c),
(139,628,o),
(169,644,o),
(222,644,cs),
(341,644,l),
(318,667,l),
(271,624,o),
(255,574,o),
(255,468,cs),
(255,146,ls),
(255,100,o),
(231,74,o),
(182,74,cs),
(153,74,o),
(123,83,o),
(92,115,c),
(63,99,o),
(48,78,o),
(40,49,c),
(77,6,o),
(123,-11,o),
(179,-11,cs)
);
}
);
width = 478;
},
{
associatedMasterId = "6DBDBFCA-DF26-4695-B281-FA25C6EAD80F";
layerId = "8AA6EFB8-AB7F-4B2D-A747-5681AF2782B3";
name = "1. Aug 23 at 17:17";
shapes = (
{
closed = 1;
nodes = (
(368,729,l),
(209,729,ls),
(130,729,o),
(75,699,o),
(40,635,c),
(53,606,o),
(76,586,o),
(102,581,c),
(136,628,o),
(163,644,o),
(212,644,cs),
(336,644,ls),
(399,644,o),
(428,682,o),
(428,706,cs),
(428,726,o),
(395,750,o),
(360,750,c),
(295,714,o),
(255,651,o),
(255,524,cs),
(255,146,ls),
(255,100,o),
(231,74,o),
(182,74,cs),
(153,74,o),
(123,83,o),
(92,115,c),
(63,99,o),
(48,78,o),
(40,49,c),
(77,6,o),
(123,-11,o),
(179,-11,cs),
(290,-11,o),
(345,46,o),
(345,152,cs),
(345,525,ls),
(345,572,o),
(345,621,o),
(374,657,c)
);
}
);
width = 478;
},
{
anchors = (
{
name = "#fina";
pos = (343,14);
}
);
layerId = "6DBDBFCA-DF26-4695-B281-FA25C6EAD80F";
name = Regular;
shapes = (
{
closed = 1;
nodes = (
(395,463,ls),
(395,573,o),
(401,603,o),
(432,640,c),
(429,676,o),
(417,703,o),
(395,722,c),
(267,722,ls),
(124,722,o),
(65,686,o),
(40,585,c),
(58,566,o),
(96,555,o),
(127,560,c),
(149,622,o),
(171,635,o),
(249,635,cs),
(378,635,l),
(353,661,l),
(312,623,o),
(302,583,o),
(302,462,cs),
(302,-274,ls),
(302,-377,o),
(275,-425,o),
(218,-425,cs),
(171,-425,o),
(143,-391,o),
(143,-335,cs),
(143,-249,o),
(208,-164,o),
(336,-81,c),
(316,13,l),
(137,-96,o),
(48,-212,o),
(48,-338,cs),
(48,-447,o),
(113,-514,o),
(219,-514,cs),
(336,-514,o),
(395,-433,o),
(395,-274,cs)
);
}
);
width = 532;
}
);
metricLeft = H.cv04;
},
{
color = 4;
glyphname = J.isol.cv04;
kernRight = no_kerning;
lastChange = "2023-09-26 16:04:55 +0000";
layers = (
{
associatedMasterId = "6DBDBFCA-DF26-4695-B281-FA25C6EAD80F";
layerId = "4C984031-4176-404F-BA5A-A1576B495A10";
name = "1. Aug 23 at 17:16";
shapes = (
{
closed = 1;
nodes = (
(290,-11,o),
(345,46,o),
(345,152,cs),
(345,469,ls),
(345,580,o),
(366,626,o),
(429,650,c),
(438,685,o),
(433,712,o),
(413,729,c),
(219,729,ls),
(135,729,o),
(77,699,o),
(40,635,c),
(53,606,o),
(76,586,o),
(102,581,c),
(139,628,o),
(169,644,o),
(222,644,cs),
(341,644,l),
(318,667,l),
(271,624,o),
(255,574,o),
(255,468,cs),
(255,146,ls),
(255,100,o),
(231,74,o),
(182,74,cs),
(153,74,o),
(123,83,o),
(92,115,c),
(63,99,o),
(48,78,o),
(40,49,c),
(77,6,o),
(123,-11,o),
(179,-11,cs)
);
}
);
width = 478;
},
{
associatedMasterId = "6DBDBFCA-DF26-4695-B281-FA25C6EAD80F";
layerId = "8AA6EFB8-AB7F-4B2D-A747-5681AF2782B3";
name = "1. Aug 23 at 17:17";
shapes = (
{
closed = 1;
nodes = (
(368,729,l),
(209,729,ls),
(130,729,o),
(75,699,o),
(40,635,c),
(53,606,o),
(76,586,o),
(102,581,c),
(136,628,o),
(163,644,o),
(212,644,cs),
(336,644,ls),
(399,644,o),
(428,682,o),
(428,706,cs),
(428,726,o),
(395,750,o),
(360,750,c),
(295,714,o),
(255,651,o),
(255,524,cs),
(255,146,ls),
(255,100,o),
(231,74,o),
(182,74,cs),
(153,74,o),
(123,83,o),
(92,115,c),
(63,99,o),
(48,78,o),
(40,49,c),
(77,6,o),
(123,-11,o),
(179,-11,cs),
(290,-11,o),
(345,46,o),
(345,152,cs),
(345,525,ls),
(345,572,o),
(345,621,o),
(374,657,c)
);
}
);
width = 478;
},
{
layerId = "6DBDBFCA-DF26-4695-B281-FA25C6EAD80F";
name = Regular;
shapes = (
{
ref = J.cv04;
},
{
pos = (231,-27);
ref = _part.caps.boucle.fin;
}
);
width = 532;
}
);
},
{
color = 6;
glyphname = K;
kernLeft = H;
kernRight = K;
lastChange = "2023-08-31 09:36:21 +0000";
layers = (
{
layerId = "6DBDBFCA-DF26-4695-B281-FA25C6EAD80F";
shapes = (
{
closed = 1;
nodes = (
(600,677,l),
(591,707,o),
(564,729,o),
(533,735,c),
(164,300,l),
(165,170,l)
);
},
{
closed = 1;
nodes = (
(163,-7,o),
(178,-5,o),
(193,0,c),
(193,722,l),
(176,727,o),
(162,729,o),
(146,729,cs),
(130,729,o),
(115,727,o),
(100,722,c),
(100,0,l),
(117,-5,o),
(131,-7,o),
(146,-7,cs)
);
},
{
closed = 1;
nodes = (
(627,-10,o),
(660,18,o),
(665,46,c),
(369,414,l),
(301,355,l),
(594,-14,l)
);
}
);
width = 685;
}
);
metricLeft = H;
unicode = 75;
},
{
color = 6;
glyphname = L;
kernLeft = H;
kernRight = L;
lastChange = "2023-08-31 09:36:21 +0000";
layers = (
{
layerId = "6DBDBFCA-DF26-4695-B281-FA25C6EAD80F";
shapes = (
{
closed = 1;
nodes = (
(546,0,l),
(557,21,o),
(555,71,o),
(546,87,c),
(193,87,l),
(193,722,l),
(178,727,o),
(163,729,o),
(146,729,cs),
(131,729,o),
(117,727,o),
(100,722,c),
(100,0,l)
);
}
);
width = 594;
}
);
metricLeft = H;
unicode = 76;
},
{
color = 4;
glyphname = L.cv04;
lastChange = "2023-09-26 16:04:51 +0000";
layers = (
{
background = {
shapes = (
{
pos = (-11,0);
ref = B.cv04;
}
);
};
layerId = "6DBDBFCA-DF26-4695-B281-FA25C6EAD80F";
shapes = (
{
ref = _part.caps.L;
},
{
closed = 1;
nodes = (
(34,35,o),
(58,-11,o),
(115,-11,cs),
(166,-11,o),
(203,18,o),
(222,67,c),
(138,48,l),
(205,45,o),
(215,40,o),
(252,25,cs),
(338,-10,o),
(397,-14,o),
(429,-14,cs),
(453,-14,o),
(463,-1,o),
(463,30,cs),
(463,58,o),
(452,71,o),
(435,71,cs),
(382,71,o),
(332,88,o),
(249,116,cs),
(191,136,o),
(157,144,o),
(115,144,cs),
(89,144,o),
(58,139,o),
(41,133,c),
(36,117,o),
(34,101,o),
(34,85,cs)
);
}
);
width = 536;
}
);
},
{
color = 4;
glyphname = L.isol.cv04;
lastChange = "2023-09-26 16:04:51 +0000";
layers = (
{
background = {
shapes = (
{
pos = (-11,0);
ref = B.cv04;
}
);
};
layerId = "6DBDBFCA-DF26-4695-B281-FA25C6EAD80F";
shapes = (
{
closed = 1;
nodes = (
(485,-14,o),
(557,13,o),
(606,61,c),
(600,91,o),
(583,114,o),
(556,127,c),
(512,89,o),
(472,73,o),
(420,73,cs),
(379,73,o),
(345,81,o),
(277,107,cs),
(206,134,o),
(163,144,o),
(118,144,cs),
(91,144,o),
(60,140,o),
(41,133,c),
(36,118,o),
(34,102,o),
(34,86,cs),
(34,25,o),
(65,-11,o),
(118,-11,cs),
(189,-11,o),
(235,53,o),
(235,150,c),
(201,154,o),
(169,148,o),
(142,133,c),
(142,91,o),
(137,46,o),
(128,0,c),
(125,45,l),
(172,45,o),
(204,36,o),
(261,16,cs),
(324,-6,o),
(364,-14,o),
(407,-14,cs)
);
},
{
ref = _part.caps.L;
}
);
width = 646;
}
);
},
{
color = 6;
glyphname = M;
kernLeft = H;
kernRight = H;
lastChange = "2023-08-31 09:36:21 +0000";
layers = (
{
layerId = "6DBDBFCA-DF26-4695-B281-FA25C6EAD80F";
shapes = (
{
closed = 1;
nodes = (
(162,-7,o),
(176,-5,o),
(193,0,c),
(193,574,l),
(170,569,l),
(395,123,l),
(419,114,o),
(455,113,o),
(478,123,c),
(702,568,l),
(679,573,l),
(679,0,l),
(694,-5,o),
(709,-7,o),
(725,-7,cs),
(741,-7,o),
(755,-5,o),
(772,0,c),
(772,722,l),
(757,728,o),
(738,729,o),
(724,729,cs),
(713,729,o),
(698,728,o),
(681,722,c),
(415,194,l),
(458,194,l),
(192,722,l),
(176,728,o),
(159,729,o),
(144,729,cs),
(133,729,o),
(116,728,o),
(100,722,c),
(100,0,l),
(115,-5,o),
(130,-7,o),
(146,-7,cs)
);
}
);
width = 872;
}
);
metricLeft = H;
metricRight = H;
unicode = 77;
},
{
color = 6;
glyphname = N;
kernLeft = H;
kernRight = H;
lastChange = "2023-08-31 09:36:21 +0000";
layers = (
{
anchors = (
{
name = top;
pos = (384,722);
}
);
layerId = "6DBDBFCA-DF26-4695-B281-FA25C6EAD80F";
shapes = (
{
closed = 1;
nodes = (
(162,-7,o),
(176,-5,o),
(193,0,c),
(193,613,l),
(153,613,l),
(587,0,l),
(601,-5,o),
(616,-7,o),
(630,-7,cs),
(643,-7,o),
(656,-5,o),
(668,0,c),
(668,722,l),
(651,727,o),
(637,729,o),
(622,729,cs),
(606,729,o),
(590,727,o),
(575,722,c),
(575,123,l),
(612,121,l),
(185,724,l),
(171,728,o),
(159,729,o),
(147,729,cs),
(131,729,o),
(115,727,o),
(100,722,c),
(100,0,l),
(115,-5,o),
(130,-7,o),
(146,-7,cs)
);
}
);
width = 768;
}
);
metricLeft = H;
metricRight = H;
unicode = 78;
},
{
color = 6;
glyphname = O;
kernLeft = O;
kernRight = O;
lastChange = "2023-09-15 13:39:45 +0000";
layers = (
{
anchors = (
{
name = bottom;
pos = (378,0);
},
{
name = horn;
pos = (516,722);
},
{
name = top;
pos = (378,722);
}
);
layerId = "6DBDBFCA-DF26-4695-B281-FA25C6EAD80F";
shapes = (
{
closed = 1;
nodes = (
(570,-14,o),
(701,138,o),
(701,361,cs),
(701,584,o),
(571,736,o),
(379,736,cs),
(187,736,o),
(55,583,o),
(55,361,cs),
(55,139,o),
(187,-14,o),
(379,-14,cs)
);
},
{
closed = 1;
nodes = (
(241,76,o),
(151,190,o),
(151,361,cs),
(151,533,o),
(242,646,o),
(379,646,cs),
(515,646,o),
(605,532,o),
(605,361,cs),
(605,190,o),
(515,76,o),
(378,76,cs)
);
}
);
width = 756;
}
);
unicode = 79;
},
{
color = 1;
glyphname = Ohorn;
kernLeft = O;
kernRight = O;
lastChange = "2023-09-15 13:44:06 +0000";
layers = (
{
layerId = "6DBDBFCA-DF26-4695-B281-FA25C6EAD80F";
shapes = (
{
ref = O;
},
{
closed = 1;
nodes = (
(519,635,l),
(623,639,o),
(683,703,o),
(683,806,cs),
(683,819,o),
(682,833,o),
(680,847,c),
(652,859,o),
(621,854,o),
(595,841,c),
(597,827,o),
(598,818,o),
(598,802,cs),
(598,755,o),
(579,711,o),
(494,704,c)
);
}
);
width = 756;
}
);
unicode = 416;
},
{
color = 6;
glyphname = OE;
kernLeft = O;
kernRight = E;
lastChange = "2023-08-31 09:36:21 +0000";
layers = (
{
anchors = (
{
name = top;
pos = (388,722);
}
);
background = {
shapes = (
{
pos = (-31,0);
ref = AE;
}
);
};
layerId = "6DBDBFCA-DF26-4695-B281-FA25C6EAD80F";
shapes = (
{
closed = 1;
nodes = (
(882,0,l),
(890,26,o),
(890,64,o),
(882,87,c),
(578,87,l),
(578,320,l),
(863,320,l),
(870,350,o),
(870,385,o),
(863,407,c),
(578,407,l),
(578,635,l),
(875,635,l),
(883,664,o),
(883,700,o),
(875,722,c),
(485,722,l),
(485,0,l)
);
},
{
closed = 1;
nodes = (
(522,113,l),
(482,88,o),
(437,75,o),
(388,75,cs),
(244,75,o),
(150,188,o),
(150,361,cs),
(150,534,o),
(245,647,o),
(389,647,cs),
(445,647,o),
(495,630,o),
(535,599,c),
(579,680,l),
(526,717,o),
(461,736,o),
(389,736,cs),
(191,736,o),
(55,583,o),
(55,361,cs),
(55,139,o),
(191,-14,o),
(389,-14,cs),
(458,-14,o),
(522,4,o),
(574,38,c)
);
}
);
width = 953;
}
);
metricLeft = O;
metricRight = E;
unicode = 338;
},
{
color = 6;
glyphname = P;
kernLeft = H;
kernRight = P;
lastChange = "2023-08-31 09:36:21 +0000";
layers = (
{
background = {
shapes = (
{
closed = 1;
nodes = (
(161,-5,o),
(178,-3,o),
(193,0,c),
(193,670,l),
(178,637,l),
(332,637,ls),
(419,637,o),
(482,593,o),
(482,511,cs),
(482,396,o),
(380,368,o),
(297,368,cs),
(184,368,l),
(184,282,l),
(297,282,ls),
(390,282,o),
(577,334,o),
(577,514,cs),
(577,665,o),
(457,723,o),
(324,723,cs),
(100,723,l),
(100,0,l),
(115,-3,o),
(130,-5,o),
(147,-5,cs)
);
}
);
};
layerId = "6DBDBFCA-DF26-4695-B281-FA25C6EAD80F";
shapes = (
{
closed = 1;
nodes = (
(193,636,l),
(325,636,ls),
(436,636,o),
(492,590,o),
(492,503,cs),
(492,405,o),
(428,356,o),
(307,356,cs),
(174,356,l),
(174,271,l),
(316,271,ls),
(482,271,o),
(588,358,o),
(588,506,cs),
(588,642,o),
(495,722,o),
(325,722,cs),
(100,722,l),
(100,0,l),
(115,-5,o),
(130,-7,o),
(146,-7,cs),
(162,-7,o),
(176,-5,o),
(193,0,c)
);
}
);
width = 648;
}
);
metricLeft = H;
unicode = 80;
},
{
color = 3;
glyphname = Q;
kernLeft = O;
kernRight = O;
lastChange = "2023-08-31 09:36:21 +0000";
layers = (
{
layerId = "6DBDBFCA-DF26-4695-B281-FA25C6EAD80F";
shapes = (
{
closed = 1;
nodes = (
(620,-119,o),
(646,-97,o),
(658,-72,c),
(400,307,l),
(369,300,o),
(346,282,o),
(327,257,c),
(585,-124,l)
);
},
{
ref = O;
}
);
width = 756;
}
);
metricLeft = O;
metricRight = O;
unicode = 81;
},
{
color = 6;
glyphname = R;
kernLeft = H;
kernRight = R;
lastChange = "2023-08-31 09:36:21 +0000";
layers = (
{
layerId = "6DBDBFCA-DF26-4695-B281-FA25C6EAD80F";
shapes = (
{
closed = 1;
nodes = (
(162,-7,o),
(176,-5,o),
(193,0,c),
(193,669,l),
(178,636,l),
(347,636,ls),
(433,636,o),
(496,592,o),
(496,511,cs),
(496,396,o),
(395,368,o),
(312,368,cs),
(176,368,l),
(176,282,l),
(312,282,ls),
(405,282,o),
(592,334,o),
(592,514,cs),
(592,664,o),
(472,722,o),
(339,722,cs),
(100,722,l),
(100,0,l),
(115,-5,o),
(130,-7,o),
(146,-7,cs)
);
},
{
closed = 1;
nodes = (
(571,1,o),
(601,26,o),
(612,54,c),
(402,349,l),
(322,298,l),
(539,-6,l)
);
}
);
width = 670;
}
);
metricLeft = P;
unicode = 82;
},
{
color = 6;
glyphname = S;
kernLeft = S;
kernRight = S;
lastChange = "2023-08-31 09:36:21 +0000";
layers = (
{
anchors = (
{
name = bottom;
pos = (292,0);
},
{
name = top;
pos = (292,722);
}
);
background = {
shapes = (
{
closed = 0;
nodes = (
(214,333,ls),
(332,300,ls),
(399,281,o),
(435,242,o),
(435,190,cs),
(435,122,o),
(378,76,o),
(295,76,cs),
(227,76,o),
(173,106,o),
(141,161,c),
(109,152,o),
(79,128,o),
(67,106,c),
(101,33,o),
(190,-14,o),
(292,-14,cs),
(429,-14,o),
(529,75,o),
(529,196,cs),
(529,288,o),
(473,356,o),
(379,383,cs),
(246,420,ls)
);
}
);
};
layerId = "6DBDBFCA-DF26-4695-B281-FA25C6EAD80F";
shapes = (
{
closed = 1;
nodes = (
(429,-14,o),
(532,69,o),
(532,198,cs),
(532,295,o),
(475,368,o),
(381,393,cs),
(263,425,ls),
(196,444,o),
(160,482,o),
(160,534,cs),
(160,601,o),
(217,647,o),
(300,647,cs),
(368,647,o),
(422,617,o),
(454,562,c),
(486,572,o),
(516,595,o),
(528,617,c),
(494,688,o),
(405,735,o),
(303,735,cs),
(166,735,o),
(66,648,o),
(66,528,cs),
(66,438,o),
(122,370,o),
(216,344,cs),
(349,307,ls),
(407,291,o),
(438,253,o),
(438,197,cs),
(438,122,o),
(381,76,o),
(296,75,cs),
(216,74,o),
(158,112,o),
(134,184,c),
(105,187,o),
(67,169,o),
(52,144,c),
(79,49,o),
(161,-12,o),
(291,-13,cs)
);
}
);
width = 584;
},
{
associatedMasterId = "6DBDBFCA-DF26-4695-B281-FA25C6EAD80F";
layerId = "070EC518-70BE-434E-A98C-11B4E215D44D";
name = "21. Jun 23 at 18:24";
shapes = (
{
closed = 1;
nodes = (
(432.02,-14,o),
(530,69.878,o),
(530,189,cs),
(530,277,o),
(484.333,339,o),
(387,383,cs),
(267,436,ls),
(201.667,465.333,o),
(171,501.667,o),
(171,551,cs),
(171,609.667,o),
(220.667,648,o),
(294,648,cs),
(351.333,648,o),
(407.333,620.333,o),
(446,571,c),
(472.667,583,o),
(498.667,610,o),
(508,634,c),
(468,696.667,o),
(386.333,736,o),
(297,736,cs),
(163.788,736,o),
(76,653.619,o),
(76,548,cs),
(76,462.667,o),
(126.667,398,o),
(228,354,cs),
(351,299,ls),
(409.667,273.667,o),
(436,240,o),
(436,192,cs),
(436,121.333,o),
(380.333,75,o),
(295,75,cs),
(219,75,o),
(160.667,102.667,o),
(110,168,c),
(83.333,150.667,o),
(59.667,124.667,o),
(49,102,c),
(103.667,24.667,o),
(189.667,-14,o),
(295,-14,cs)
);
}
);
width = 590;
}
);
unicode = 83;
},
{
color = 6;
glyphname = Germandbls;
kernLeft = Germandbls;
kernRight = Germandbls;
lastChange = "2023-08-31 09:36:21 +0000";
layers = (
{
layerId = "6DBDBFCA-DF26-4695-B281-FA25C6EAD80F";
shapes = (
{
closed = 1;
nodes = (
(551,648,l),
(559,603,l),
(515,628,o),
(460,646,o),
(385,646,cs),
(250,646,o),
(183,585,o),
(183,462,cs),
(183,0,l),
(170,-3,o),
(154,-4,o),
(136,-4,cs),
(119,-4,o),
(104,-3,o),
(90,0,c),
(90,455,ls),
(90,631,o),
(192,736,o),
(387,736,cs),
(487,736,o),
(582,708,o),
(657,648,c),
(517,404,l),
(473,435,l),
(609,414,o),
(697,339,o),
(697,210,cs),
(697,81,o),
(611,-14,o),
(458,-14,cs),
(386,-14,o),
(305,7,o),
(252,41,c),
(250,73,o),
(262,105,o),
(289,123,c),
(350,93,o),
(400,76,o),
(454,76,cs),
(549,76,o),
(603,129,o),
(603,208,cs),
(603,301,o),
(528,346,o),
(441,346,c),
(423,365,o),
(417,390,o),
(422,423,c)
);
}
);
width = 752;
}
);
unicode = 7838;
},
{
color = 6;
glyphname = T;
kernLeft = T;
kernRight = T;
lastChange = "2023-09-26 15:52:49 +0000";
layers = (
{
background = {
shapes = (
{
closed = 0;
nodes = (
(39,638,l),
(28,666,o),
(29,702,o),
(39,722,c)
);
}
);
};
layerId = "6DBDBFCA-DF26-4695-B281-FA25C6EAD80F";
shapes = (
{
closed = 1;
nodes = (
(336,-5,o),
(352,-3,o),
(370,0,c),
(370,689,l),
(276,689,l),
(276,0,l),
(293,-3,o),
(308,-5,o),
(322,-5,cs)
);
},
{
closed = 1;
nodes = (
(606,638,l),
(616,665,o),
(616,701,o),
(606,722,c),
(39,722,l),
(29,699,o),
(29,667,o),
(39,638,c)
);
}
);
width = 645;
}
);
unicode = 84;
},
{
color = 6;
glyphname = U;
kernLeft = U;
kernRight = U;
lastChange = "2023-09-15 13:41:00 +0000";
layers = (
{
anchors = (
{
name = bottom;
pos = (364,0);
},
{
name = horn;
pos = (576,732);
},
{
name = top;
pos = (364,722);
}
);
layerId = "6DBDBFCA-DF26-4695-B281-FA25C6EAD80F";
shapes = (
{
closed = 1;
nodes = (
(544,-14,o),
(637,92,o),
(637,296,cs),
(637,722,l),
(620,727,o),
(606,729,o),
(591,729,cs),
(575,729,o),
(559,727,o),
(544,722,c),
(544,303,ls),
(544,152,o),
(485,79,o),
(364,79,cs),
(242,79,o),
(183,152,o),
(183,303,cs),
(183,722,l),
(168,727,o),
(153,729,o),
(136,729,cs),
(121,729,o),
(107,727,o),
(90,722,c),
(90,296,ls),
(90,92,o),
(184,-14,o),
(364,-14,cs)
);
}
);
width = 727;
}
);
metricLeft = "=H-10";
metricRight = "=H-10";
unicode = 85;
},
{
color = 6;
glyphname = V;
kernLeft = V;
kernRight = V;
lastChange = "2023-09-26 15:52:13 +0000";
layers = (
{
layerId = "6DBDBFCA-DF26-4695-B281-FA25C6EAD80F";
shapes = (
{
closed = 1;
nodes = (
(320,-4,o),
(332,-7,o),
(351,-7,cs),
(370,-7,o),
(381,-4,o),
(392,0,c),
(664,701,l),
(646,717,o),
(611,730,o),
(579,732,c),
(311,38,l),
(387,51,l),
(116,732,l),
(86,729,o),
(53,717,o),
(30,701,c),
(309,0,l)
);
}
);
width = 694;
}
);
unicode = 86;
},
{
color = 6;
glyphname = W;
kernLeft = W;
kernRight = W;
lastChange = "2023-08-31 09:36:21 +0000";
layers = (
{
layerId = "6DBDBFCA-DF26-4695-B281-FA25C6EAD80F";
shapes = (
{
closed = 1;
nodes = (
(291,-7,o),
(303,-5,o),
(319,0,c),
(514,506,l),
(482,506,l),
(678,0,l),
(692,-5,o),
(705,-7,o),
(720,-7,cs),
(735,-7,o),
(747,-5,o),
(763,0,c),
(952,711,l),
(934,724,o),
(900,735,o),
(865,731,c),
(698,107,l),
(727,109,l),
(540,592,l),
(525,597,o),
(513,599,o),
(499,599,cs),
(483,599,o),
(470,597,o),
(456,592,c),
(270,109,l),
(300,107,l),
(132,731,l),
(105,735,o),
(61,724,o),
(43,711,c),
(234,0,l),
(248,-5,o),
(261,-7,o),
(276,-7,cs)
);
}
);
width = 995;
}
);
unicode = 87;
},
{
color = 6;
glyphname = X;
kernLeft = X;
kernRight = X;
lastChange = "2023-08-31 09:36:21 +0000";
layers = (
{
layerId = "6DBDBFCA-DF26-4695-B281-FA25C6EAD80F";
shapes = (
{
closed = 1;
nodes = (
(592,-11,o),
(622,6,o),
(634,38,c),
(135,732,l),
(101,725,o),
(75,707,o),
(61,680,c),
(559,-14,l)
);
},
{
closed = 1;
nodes = (
(369,339,l),
(320,427,l),
(45,42,l),
(52,14,o),
(85,-11,o),
(117,-14,c)
);
},
{
closed = 1;
nodes = (
(619,680,l),
(605,706,o),
(582,725,o),
(545,732,c),
(329,427,l),
(380,341,l)
);
}
);
width = 679;
}
);
unicode = 88;
},
{
color = 6;
glyphname = Y;
kernLeft = Y;
kernRight = Y;
lastChange = "2023-08-31 15:30:03 +0000";
layers = (
{
anchors = (
{
name = bottom;
pos = (329,0);
},
{
name = top;
pos = (329,722);
}
);
layerId = "6DBDBFCA-DF26-4695-B281-FA25C6EAD80F";
shapes = (
{
closed = 1;
nodes = (
(355,241,l),
(631,687,l),
(622,712,o),
(583,732,o),
(553,731,c),
(308,338,l),
(352,338,l),
(105,732,l),
(78,732,o),
(41,714,o),
(26,686,c),
(305,241,l)
);
},
{
closed = 1;
nodes = (
(346,-7,o),
(361,-5,o),
(376,0,c),
(376,295,l),
(283,295,l),
(283,0,l),
(300,-5,o),
(315,-7,o),
(330,-7,cs)
);
}
);
width = 657;
}
);
unicode = 89;
},
{
color = 6;
glyphname = Z;
kernLeft = Z;
kernRight = Z;
lastChange = "2023-08-31 09:36:21 +0000";
layers = (
{
layerId = "6DBDBFCA-DF26-4695-B281-FA25C6EAD80F";
shapes = (
{
closed = 1;
nodes = (
(593,0,l),
(605,22,o),
(605,66,o),
(593,86,c),
(145,86,l),
(161,53,l),
(584,648,l),
(587,677,o),
(575,710,o),
(551,722,c),
(75,722,l),
(63,702,o),
(65,658,o),
(75,636,c),
(504,636,l),
(488,670,l),
(61,69,l),
(58,46,o),
(66,19,o),
(86,0,c)
);
}
);
width = 633;
}
);
unicode = 90;
},
{
color = 3;
glyphname = Z.ss01;
kernLeft = Z;
kernRight = Z;
lastChange = "2023-08-31 09:36:21 +0000";
layers = (
{
layerId = "6DBDBFCA-DF26-4695-B281-FA25C6EAD80F";
shapes = (
{
closed = 1;
nodes = (
(300,326,l),
(350,407,l),
(126,407,l),
(120,396,o),
(119,383,o),
(119,369,cs),
(119,356,o),
(120,339,o),
(126,326,c)
);
},
{
closed = 1;
nodes = (
(538,319,l),
(544,332,o),
(546,346,o),
(546,361,cs),
(546,374,o),
(545,390,o),
(538,400,c),
(350,400,l),
(300,319,l)
);
},
{
ref = Z;
}
);
width = 633;
}
);
metricLeft = Z;
metricRight = Z;
},
{
color = 4;
export = 0;
glyphname = G.ss04;
kernRight = no_kerning;
lastChange = "2023-09-19 16:07:06 +0000";
layers = (
{
anchors = (
{
name = "#fina";
pos = (676,10);
}
);
background = {
shapes = (
{
closed = 0;
nodes = (
(532,557,l),
(509,458,o),
(407,431,o),
(284,461,cs),
(145,494,o),
(75,571,o),
(98,663,cs),
(106,699,o),
(123,720,o),
(139,738,c),
(136,763,o),
(91,789,o),
(64,793,c),
(40,769,o),
(18,731,o),
(7,684,cs),
(-26,546,o),
(66,421,o),
(266,373,cs),
(442,331,o),
(588,381,o),
(621,521,c)
);
}
);
};
layerId = "6DBDBFCA-DF26-4695-B281-FA25C6EAD80F";
shapes = (
{
closed = 1;
nodes = (
(688,-514,o),
(746,-424,o),
(746,-221,cs),
(746,-77,o),
(717,96,o),
(717,347,c),
(686,360,o),
(654,359,o),
(623,347,c),
(623,273,ls),
(623,159,o),
(541,77,o),
(430,77,cs),
(301,77,o),
(226,187,o),
(226,349,cs),
(226,524,o),
(303,646,o),
(425,646,cs),
(490,646,o),
(532,612,o),
(532,556,cs),
(532,495,o),
(483,458,o),
(387,458,cs),
(276,458,o),
(163,508,o),
(49,671,c),
(13,661,o),
(-8,641,o),
(-23,611,c),
(86,440,o),
(244,369,o),
(384,369,cs),
(523,369,o),
(626,439,o),
(626,558,cs),
(626,657,o),
(553,736,o),
(427,736,cs),
(250,736,o),
(131,579,o),
(131,349,cs),
(131,136,o),
(244,-14,o),
(428,-14,cs),
(509,-14,o),
(590,15,o),
(639,88,c),
(630,119,l),
(632,80,o),
(635,42,o),
(638,6,cs),
(645,-81,o),
(651,-169,o),
(651,-232,cs),
(651,-364,o),
(625,-424,o),
(559,-424,cs),
(510,-424,o),
(482,-390,o),
(482,-335,cs),
(482,-249,o),
(549,-163,o),
(681,-81,c),
(659,14,l),
(476,-96,o),
(387,-211,o),
(387,-339,cs),
(387,-443,o),
(445,-514,o),
(559,-514,cs)
);
}
);
width = 843;
}
);
},
{
color = 4;
export = 0;
glyphname = L.isol.ss04;
lastChange = "2023-09-19 16:07:06 +0000";
layers = (
{
background = {
shapes = (
{
pos = (-7,0);
ref = D.ss04;
}
);
};
layerId = "6DBDBFCA-DF26-4695-B281-FA25C6EAD80F";
shapes = (
{
ref = _part.caps.L.ss04;
},
{
closed = 1;
nodes = (
(256,66,l),
(303,28,o),
(368,-12,o),
(457,-12,cs),
(560,-12,o),
(636,36,o),
(689,148,c),
(676,172,o),
(652,186,o),
(613,190,c),
(572,109,o),
(522,77,o),
(458,77,cs),
(397,77,o),
(342,110,o),
(309,139,c)
);
}
);
width = 689;
}
);
metricLeft = L.ss04;
},
{
color = 4;
export = 0;
glyphname = L.ss04;
kernRight = no_kerning;
lastChange = "2023-09-19 16:07:06 +0000";
layers = (
{
background = {
shapes = (
{
pos = (-7,0);
ref = D.ss04;
}
);
};
layerId = "6DBDBFCA-DF26-4695-B281-FA25C6EAD80F";
shapes = (
{
locked = 1;
ref = _part.caps.L.ss04;
},
{
closed = 1;
nodes = (
(272,56,l),
(351,11,o),
(434,-14,o),
(509,-14,cs),
(534,-14,o),
(544,-2,o),
(544,29,cs),
(544,54,o),
(532,71,o),
(515,71,cs),
(448,71,o),
(386,91,o),
(313,136,c)
);
}
);
width = 616;
}
);
},
{
color = 10;
glyphname = b;
kernLeft = no_kerning;
kernRight = no_kerning;
lastChange = "2023-09-07 13:22:04 +0000";
layers = (
{
background = {
anchors = (
{
name = "#fina";
pos = (546,404);
}
);
shapes = (
{
closed = 1;
nodes = (
(364,212,o),
(437,414,o),
(437,663,c),
(411,675,o),
(378,676,o),
(350,667,c),
(350,466,o),
(299,284,o),
(212,178,c),
(252,95,l)
);
},
{
closed = 1;
nodes = (
(104,-15,o),
(179,23,o),
(242,96,c),
(201,178,l),
(151,109,o),
(94,72,o),
(32,72,cs),
(10,72,o),
(-4,56,o),
(-4,29,cs),
(-4,4,o),
(8,-14,o),
(26,-14,cs)
);
}
);
};
color = 7;
layerId = "6DBDBFCA-DF26-4695-B281-FA25C6EAD80F";
shapes = (
{
alignment = -1;
pos = (27,0);
ref = _part.b;
},
{
alignment = -1;
pos = (27,0);
ref = _part.b.in;
}
);
width = 683;
},
{
associatedMasterId = "6DBDBFCA-DF26-4695-B281-FA25C6EAD80F";
layerId = "737B79E5-B6B2-4699-A290-9FB82310E0D7";
name = "10. Feb 23, 17:47";
shapes = (
{
alignment = -1;
pos = (8,0);
ref = _part.b;
}
);
width = 642;
}
);
metricLeft = n;
unicode = 98;
},
{
color = 6;
glyphname = e.medi.cv01;
kernLeft = no_kerning;
kernRight = no_kerning;
lastChange = "2023-09-06 15:05:47 +0000";
layers = (
{
anchors = (
{
name = "#fina";
pos = (325,71);
},
{
name = bottom;
pos = (232,0);
},
{
name = top;
pos = (237,472);
}
);
layerId = "6DBDBFCA-DF26-4695-B281-FA25C6EAD80F";
shapes = (
{
closed = 1;
nodes = (
(341,-14,o),
(355,2,o),
(355,27,cs),
(355,53,o),
(342,71,o),
(325,71,cs),
(265,71,o),
(220,91,o),
(197,128,c),
(192,149,l),
(166,168,o),
(149,217,o),
(149,277,cs),
(149,350,o),
(188,403,o),
(242,403,cs),
(282,403,o),
(306,377,o),
(306,335,cs),
(306,274,o),
(259,219,o),
(162,165,c),
(208,99,l),
(328,168,o),
(393,248,o),
(393,335,cs),
(393,421,o),
(328,486,o),
(242,486,cs),
(139,486,o),
(63,395,o),
(63,274,cs),
(63,206,o),
(82,135,o),
(112,93,c),
(123,77,l),
(160,21,o),
(234,-14,o),
(320,-14,cs)
);
},
{
closed = 1;
nodes = (
(-14,-14,o),
(84,18,o),
(187,84,c),
(139,155,l),
(46,90,o),
(-27,71,o),
(-103,71,cs),
(-124,71,o),
(-138,55,o),
(-138,27,cs),
(-138,4,o),
(-125,-14,o),
(-107,-14,cs)
);
}
);
width = 426;
}
);
},
{
color = 6;
glyphname = e.medi.cv02;
kernLeft = no_kerning;
kernRight = no_kerning;
lastChange = "2023-09-07 13:15:14 +0000";
layers = (
{
anchors = (
{
name = "#fina";
pos = (298,71);
},
{
name = bottom;
pos = (232,0);
},
{
name = top;
pos = (232,512);
}
);
layerId = "6DBDBFCA-DF26-4695-B281-FA25C6EAD80F";
shapes = (
{
closed = 1;
nodes = (
(313,-14,o),
(327,2,o),
(327,27,cs),
(327,53,o),
(315,71,o),
(298,71,cs),
(194,71,o),
(127,146,o),
(127,267,c),
(127,284,l),
(127,386,o),
(176,455,o),
(248,455,cs),
(288,455,o),
(314,431,o),
(314,396,cs),
(314,344,o),
(252,312,o),
(154,312,cs),
(135,312,o),
(114,316,o),
(97,322,c),
(100,238,l),
(117,234,o),
(140,232,o),
(162,232,cs),
(307,232,o),
(401,299,o),
(401,402,cs),
(401,478,o),
(337,536,o),
(253,536,cs),
(133,536,o),
(40,430,o),
(40,294,c),
(39,267,l),
(45,92,o),
(140,-14,o),
(292,-14,cs)
);
},
{
closed = 1;
nodes = (
(-118,417,o),
(-128,422,o),
(-137,422,cs),
(-157,422,o),
(-177,397,o),
(-177,375,cs),
(-177,364,o),
(-173,355,o),
(-164,346,cs),
(-98,285,o),
(2,239,o),
(73,239,c),
(73,326,l),
(25,326,o),
(-55,362,o),
(-104,405,cs)
);
}
);
visible = 1;
width = 399;
}
);
},
{
color = 6;
glyphname = e.medi.cv03;
kernLeft = no_kerning;
kernRight = no_kerning;
lastChange = "2023-08-31 15:26:34 +0000";
layers = (
{
anchors = (
{
name = "#fina";
pos = (276,71);
},
{
name = bottom;
pos = (232,0);
},
{
name = top;
pos = (192,472);
}
);
layerId = "6DBDBFCA-DF26-4695-B281-FA25C6EAD80F";
shapes = (
{
closed = 1;
nodes = (
(292,-14,o),
(306,3,o),
(306,28,cs),
(306,56,o),
(295,71,o),
(276,71,cs),
(212,71,o),
(158,105,o),
(146,153,c),
(137,173,l),
(119,191,o),
(108,234,o),
(108,282,cs),
(108,353,o),
(147,403,o),
(202,403,cs),
(240,403,o),
(265,379,o),
(265,340,cs),
(265,300,o),
(222,259,o),
(109,187,c),
(145,116,l),
(287,196,o),
(352,266,o),
(352,338,cs),
(352,423,o),
(290,486,o),
(205,486,cs),
(97,486,o),
(21,398,o),
(21,274,cs),
(21,220,o),
(32,174,o),
(57,126,c),
(67,102,l),
(111,27,o),
(183,-14,o),
(270,-14,cs)
);
},
{
closed = 1;
nodes = (
(-142,-64,o),
(-134,-62,o),
(-124,-55,cs),
(97,88,l),
(53,163,l),
(-173,18,ls),
(-187,9,o),
(-192,2,o),
(-192,-10,cs),
(-194,-32,o),
(-172,-62,o),
(-152,-63,cs)
);
}
);
width = 375;
}
);
metricRight = e;
},
{
color = 3;
glyphname = f.medi.cv01;
kernLeft = no_kerning;
kernRight = no_kerning;
lastChange = "2023-09-07 12:29:41 +0000";
layers = (
{
layerId = "6DBDBFCA-DF26-4695-B281-FA25C6EAD80F";
shapes = (
{
closed = 1;
nodes = (
(334,238,o),
(428,462,o),
(428,718,c),
(409,725,o),
(368,725,o),
(339,719,c),
(339,522,o),
(271,322,o),
(171,229,c),
(194,128,l)
);
},
{
closed = 1;
nodes = (
(-7,-14,o),
(95,40,o),
(148,101,c),
(127,198,l),
(63,121,o),
(-23,71,o),
(-101,71,cs),
(-122,71,o),
(-136,55,o),
(-136,29,cs),
(-136,2,o),
(-127,-14,o),
(-106,-14,cs)
);
},
{
pos = (14,0);
ref = _part.f;
}
);
width = 425;
}
);
metricRight = f;
},
{
color = 3;
glyphname = f.medi.cv02;
kernLeft = no_kerning;
kernRight = no_kerning;
lastChange = "2023-09-07 12:29:48 +0000";
layers = (
{
background = {
shapes = (
{
closed = 1;
nodes = (
(301,402,o),
(378,541,o),
(378,721,c),
(357,728,o),
(319,729,o),
(293,722,c),
(293,588,o),
(241,476,o),
(127,408,c),
(132,317,l)
);
},
{
closed = 1;
nodes = (
(25,294,o),
(63,301,o),
(89,313,c),
(81,401,l),
(56,386,o),
(23,377,o),
(-13,377,cs),
(-46,377,o),
(-78,386,o),
(-103,401,cs),
(-116,410,o),
(-123,413,o),
(-130,413,cs),
(-150,413,o),
(-167,393,o),
(-167,370,cs),
(-167,351,o),
(-156,335,o),
(-135,324,cs),
(-102,305,o),
(-58,294,o),
(-16,294,cs)
);
}
);
};
layerId = "6DBDBFCA-DF26-4695-B281-FA25C6EAD80F";
shapes = (
{
alignment = -1;
pos = (-32,0);
ref = _part.f;
},
{
closed = 1;
nodes = (
(143,345,l),
(281,395,o),
(382,527,o),
(382,718,c),
(367,726,o),
(315,727,o),
(293,719,c),
(293,559,o),
(211,447,o),
(104,416,c)
);
},
{
closed = 1;
nodes = (
(86,413,l),
(22,392,o),
(-39,379,o),
(-100,379,cs),
(-127,379,ls),
(-139,379,o),
(-150,368,o),
(-150,344,cs),
(-150,309,o),
(-130,300,o),
(-83,300,cs),
(-23,300,o),
(64,317,o),
(116,339,c)
);
}
);
width = 379;
}
);
metricLeft = l.medi.cv02;
metricRight = f;
},
{
color = 3;
glyphname = f.medi.cv03;
kernLeft = no_kerning;
kernRight = no_kerning;
lastChange = "2023-09-07 12:29:57 +0000";
layers = (
{
layerId = "6DBDBFCA-DF26-4695-B281-FA25C6EAD80F";
shapes = (
{
closed = 1;
nodes = (
(256,289,o),
(367,485,o),
(367,721,c),
(346,732,o),
(310,732,o),
(278,722,c),
(278,541,o),
(189,362,o),
(102,281,c),
(121,169,l)
);
},
{
closed = 1;
nodes = (
(-71,-4,o),
(68,100,o),
(101,181,c),
(83,287,l),
(31,180,o),
(-152,34,o),
(-182,7,cs),
(-197,-7,o),
(-206,-18,o),
(-205,-31,cs),
(-206,-50,o),
(-177,-79,o),
(-154,-80,cs),
(-146,-80,o),
(-140,-74,o),
(-130,-64,cs)
);
},
{
pos = (-47,0);
ref = _part.f;
}
);
width = 364;
}
);
metricRight = f;
},
{
color = 3;
glyphname = jdotless.medi.cv02;
kernLeft = no_kerning;
kernRight = no_kerning;
lastChange = "2023-08-31 09:36:21 +0000";
layers = (
{
anchors = (
{
name = top;
pos = (190,472);
}
);
layerId = "6DBDBFCA-DF26-4695-B281-FA25C6EAD80F";
shapes = (
{
pos = (-299,0);
ref = _part.boucle.bas;
},
{
closed = 1;
nodes = (
(-144,403,o),
(-158,387,o),
(-158,362,cs),
(-158,335,o),
(-144,318,o),
(-124,318,cs),
(-19,318,o),
(100,348,o),
(165,391,c),
(143,430,l),
(143,-9,l),
(234,-9,l),
(234,463,l),
(211,480,o),
(182,486,o),
(143,483,c),
(88,434,o),
(-19,403,o),
(-124,403,cs)
);
}
);
width = 362;
}
);
},
{
color = 3;
glyphname = jdotless.medi.cv03;
kernLeft = no_kerning;
kernRight = no_kerning;
lastChange = "2023-08-31 09:36:21 +0000";
layers = (
{
anchors = (
{
name = top;
pos = (230,472);
}
);
layerId = "6DBDBFCA-DF26-4695-B281-FA25C6EAD80F";
shapes = (
{
pos = (-257,0);
ref = _part.boucle.bas;
},
{
closed = 1;
nodes = (
(35,83,o),
(150,231,o),
(221,355,c),
(185,349,l),
(185,-33,l),
(276,-34,l),
(276,470,l),
(258,481,o),
(217,484,o),
(191,479,c),
(75,275,o),
(-11,166,o),
(-174,12,cs),
(-191,-4,o),
(-198,-14,o),
(-198,-24,cs),
(-198,-44,o),
(-176,-72,o),
(-149,-72,cs),
(-140,-72,o),
(-134,-68,o),
(-120,-56,cs)
);
}
);
width = 404;
}
);
},
{
color = 3;
glyphname = l.medi.cv02;
kernLeft = no_kerning;
kernRight = no_kerning;
lastChange = "2023-09-07 12:28:44 +0000";
layers = (
{
layerId = "6DBDBFCA-DF26-4695-B281-FA25C6EAD80F";
shapes = (
{
closed = 1;
nodes = (
(256,-14,o),
(270,2,o),
(270,28,cs),
(270,54,o),
(258,71,o),
(239,71,cs),
(191,71,o),
(164,98,o),
(154,135,cs),
(144,173,o),
(140,228,o),
(140,355,cs),
(140,532,l),
(116,544,o),
(86,546,o),
(51,538,c),
(51,370,ls),
(51,203,o),
(57,151,o),
(69,107,cs),
(90,30,o),
(144,-14,o),
(233,-14,cs)
);
},
{
alignment = -1;
pos = (34,0);
ref = _part.l.in.cv02;
},
{
alignment = -1;
pos = (-66,0);
ref = _part.l.alt;
}
);
width = 340;
}
);
},
{
color = 3;
glyphname = o.init;
kernLeft = o;
kernRight = no_kerning;
lastChange = "2023-09-15 13:34:37 +0000";
layers = (
{
anchors = (
{
name = bottom;
pos = (271,0);
},
{
name = center;
pos = (271,236);
},
{
name = horn;
pos = (327,440);
},
{
name = top;
pos = (271,472);
}
);
layerId = "6DBDBFCA-DF26-4695-B281-FA25C6EAD80F";
shapes = (
{
ref = _part.o;
},
{
closed = 1;
nodes = (
(386,386,o),
(302,433,o),
(195,424,c),
(225,350,o),
(307,305,o),
(409,305,c)
);
}
);
width = 553;
}
);
metricLeft = o.isol;
metricRight = o;
},
{
color = 3;
glyphname = p.medi.cv02;
kernLeft = no_kerning;
kernRight = no_kerning;
lastChange = "2023-08-31 09:36:21 +0000";
layers = (
{
layerId = "6DBDBFCA-DF26-4695-B281-FA25C6EAD80F";
shapes = (
{
pos = (-105,0);
ref = _part.p;
},
{
closed = 1;
nodes = (
(226,481,l),
(208,496,o),
(176,508,o),
(150,505,c),
(92,465,o),
(-20,399,o),
(-113,386,cs),
(-133,383,o),
(-146,376,o),
(-146,348,cs),
(-146,322,o),
(-133,304,o),
(-113,304,cs),
(-23,304,o),
(98,369,o),
(156,408,c),
(137,442,l),
(137,280,l),
(226,280,l)
);
},
{
pos = (317,0);
ref = _part.n.out;
}
);
width = 586;
}
);
metricRight = n;
},
{
color = 3;
glyphname = germandbls;
kernLeft = no_kerning;
kernRight = no_kerning;
lastChange = "2023-09-07 13:22:04 +0000";
layers = (
{
background = {
shapes = (
{
pos = (142,0);
ref = o;
}
);
};
color = 7;
layerId = "6DBDBFCA-DF26-4695-B281-FA25C6EAD80F";
shapes = (
{
alignment = -1;
ref = germandbls.fina;
},
{
pos = (541,0);
ref = _part.eszett.out;
}
);
width = 808;
},
{
associatedMasterId = "6DBDBFCA-DF26-4695-B281-FA25C6EAD80F";
background = {
shapes = (
{
alignment = -1;
pos = (181,0);
ref = _part.s;
},
{
pos = (168,0);
ref = _part.s.out;
}
);
};
layerId = "599A719F-767C-4ED4-9B40-628F12F17605";
name = "9. Jun 23 at 12:00";
shapes = (
{
alignment = -1;
ref = _part.p.in;
},
{
closed = 1;
nodes = (
(569,424,o),
(681,331,o),
(681,225,cs),
(681,141,o),
(619,72,o),
(501,72,cs),
(456,72,o),
(400,89,o),
(370,115,c),
(332,33,l),
(386,0,o),
(470,-14,o),
(521,-14,cs),
(669,-14,o),
(775,78,o),
(775,233,cs),
(775,401,o),
(599,523,o),
(422,523,c),
(378,481,o),
(399,408,o),
(462,408,cs),
(579,408,o),
(707,599,o),
(707,757,cs),
(707,878,o),
(624,980,o),
(490,980,cs),
(344,980,o),
(253,860,o),
(253,687,cs),
(253,-368,l),
(269,-373,o),
(282,-375,o),
(298,-375,cs),
(311,-375,o),
(329,-372,o),
(344,-368,c),
(344,663,ls),
(344,814,o),
(399,897,o),
(490,897,cs),
(563,897,o),
(614,840,o),
(614,757,cs),
(614,673,o),
(567,555,o),
(467,478,c),
(455,424,l)
);
}
);
width = 976;
},
{
associatedMasterId = "6DBDBFCA-DF26-4695-B281-FA25C6EAD80F";
background = {
shapes = (
{
alignment = -1;
pos = (181,0);
ref = _part.s;
},
{
pos = (168,0);
ref = _part.s.out;
}
);
};
layerId = "03168F00-86B8-4193-BE63-294409D661F7";
name = "9. Jun 23 at 12:17";
shapes = (
{
alignment = -1;
ref = _part.p.in;
},
{
closed = 1;
nodes = (
(571,429,o),
(681,338,o),
(681,225,cs),
(681,135,o),
(614,71,o),
(518,71,cs),
(485,71,o),
(458,75,o),
(418,85,c),
(396,71,o),
(388,37,o),
(396,6,c),
(419,-6,o),
(464,-14,o),
(511,-14,cs),
(671,-14,o),
(775,80,o),
(775,225,cs),
(775,397,o),
(606,519,o),
(452,543,c),
(392,486,o),
(413,405,o),
(464,405,cs),
(563,405,o),
(738,595,o),
(738,777,cs),
(738,898,o),
(666,980,o),
(560,980,cs),
(371,980,o),
(253,743,o),
(253,364,cs),
(253,-368,l),
(267,-372,o),
(284,-375,o),
(298,-375,cs),
(309,-375,o),
(316,-374,o),
(344,-368,c),
(344,393,ls),
(344,695,o),
(428,894,o),
(556,894,cs),
(612,894,o),
(645,850,o),
(645,776,cs),
(645,662,o),
(547,517,o),
(438,484,c),
(437,452,l)
);
}
);
width = 976;
}
);
metricLeft = p;
unicode = 223;
},
{
color = 3;
glyphname = germandbls.fina;
kernLeft = no_kerning;
kernRight = o;
lastChange = "2023-08-31 09:36:21 +0000";
layers = (
{
layerId = "6DBDBFCA-DF26-4695-B281-FA25C6EAD80F";
shapes = (
{
closed = 1;
nodes = (
(123,-14,o),
(179,96,o),
(236,256,cs),
(273,356,l),
(308,356,l),
(317,472,l),
(293,482,o),
(251,484,o),
(225,477,c),
(208,413,o),
(179,344,o),
(158,283,cs),
(119,175,o),
(69,72,o),
(1,72,cs),
(-26,72,o),
(-37,52,o),
(-37,29,cs),
(-37,8,o),
(-26,-14,o),
(-5,-14,cs)
);
},
{
alignment = -1;
pos = (3,0);
ref = _part.eszett;
}
);
width = 806;
}
);
metricRight = o;
},
{
color = 3;
glyphname = germandbls.fina.cv01;
kernLeft = no_kerning;
kernRight = o;
lastChange = "2023-08-31 09:36:21 +0000";
layers = (
{
background = {
shapes = (
{
pos = (-225,0);
ref = germandbls;
}
);
};
layerId = "6DBDBFCA-DF26-4695-B281-FA25C6EAD80F";
shapes = (
{
alignment = -1;
pos = (-10,0);
ref = _part.eszett;
},
{
closed = 1;
nodes = (
(47,-14,o),
(167,104,o),
(257,362,c),
(293,362,l),
(293,466,l),
(267,479,o),
(232,485,o),
(210,479,c),
(99,185,o),
(13,71,o),
(-100,71,cs),
(-122,71,o),
(-136,55,o),
(-136,29,cs),
(-136,4,o),
(-124,-14,o),
(-105,-14,cs)
);
}
);
width = 793;
}
);
metricLeft = p.medi.cv01;
metricRight = o;
},
{
color = 3;
glyphname = germandbls.fina.cv02;
kernLeft = no_kerning;
kernRight = o;
lastChange = "2023-08-31 09:36:21 +0000";
layers = (
{
layerId = "6DBDBFCA-DF26-4695-B281-FA25C6EAD80F";
shapes = (
{
alignment = -1;
pos = (-184,0);
ref = _part.eszett;
},
{
closed = 1;
nodes = (
(130,479,l),
(121,485,o),
(85,495,o),
(54,495,c),
(10,441,o),
(-53,394,o),
(-113,386,cs),
(-133,383,o),
(-146,376,o),
(-146,348,cs),
(-146,322,o),
(-133,304,o),
(-113,304,cs),
(-51,304,o),
(47,347,o),
(101,416,c),
(130,416,l)
);
}
);
width = 619;
}
);
metricLeft = p.medi.cv02;
metricRight = o;
},
{
color = 3;
glyphname = germandbls.fina.cv03;
kernLeft = no_kerning;
kernRight = o;
lastChange = "2023-08-31 09:36:21 +0000";
layers = (
{
background = {
shapes = (
{
pos = (-267,0);
ref = germandbls;
}
);
};
layerId = "6DBDBFCA-DF26-4695-B281-FA25C6EAD80F";
shapes = (
{
alignment = -1;
pos = (-153,0);
ref = _part.eszett;
},
{
closed = 1;
nodes = (
(-1,52,o),
(74,204,o),
(119,358,c),
(164,358,l),
(164,474,l),
(145,485,o),
(105,488,o),
(79,483,c),
(18,283,o),
(-38,141,o),
(-174,12,cs),
(-191,-4,o),
(-198,-14,o),
(-198,-24,cs),
(-198,-44,o),
(-176,-72,o),
(-149,-72,cs),
(-140,-72,o),
(-134,-68,o),
(-120,-56,cs)
);
}
);
width = 650;
}
);
metricLeft = p.medi.cv03;
metricRight = o;
},
{
color = 3;
glyphname = germandbls.isol;
kernLeft = p;
kernRight = o;
lastChange = "2023-08-31 09:36:21 +0000";
layers = (
{
background = {
shapes = (
{
alignment = -1;
pos = (62,5);
ref = germandbls.fina;
}
);
};
layerId = "6DBDBFCA-DF26-4695-B281-FA25C6EAD80F";
shapes = (
{
alignment = -1;
pos = (60,0);
ref = _part.eszett;
},
{
closed = 1;
nodes = (
(178,75,o),
(278,229,o),
(327,345,c),
(371,345,l),
(371,472,l),
(349,484,o),
(310,486,o),
(289,483,c),
(233,333,o),
(140,174,o),
(31,41,c),
(43,14,o),
(69,-8,o),
(99,-14,c)
);
}
);
width = 863;
}
);
metricLeft = p.init;
metricRight = o;
},
{
color = 3;
glyphname = germandbls.medi.cv01;
kernLeft = no_kerning;
kernRight = no_kerning;
lastChange = "2023-08-31 09:36:21 +0000";
layers = (
{
background = {
shapes = (
{
pos = (142,0);
ref = o;
}
);
};
layerId = "6DBDBFCA-DF26-4695-B281-FA25C6EAD80F";
shapes = (
{
alignment = -1;
ref = germandbls.fina.cv01;
},
{
pos = (528,0);
ref = _part.eszett.out;
}
);
width = 795;
},
{
associatedMasterId = "6DBDBFCA-DF26-4695-B281-FA25C6EAD80F";
background = {
shapes = (
{
alignment = -1;
pos = (181,0);
ref = _part.s;
},
{
pos = (168,0);
ref = _part.s.out;
}
);
};
layerId = "599A719F-767C-4ED4-9B40-628F12F17605";
name = "9. Jun 23 at 12:00";
shapes = (
{
alignment = -1;
ref = _part.p.in;
},
{
closed = 1;
nodes = (
(569,424,o),
(681,331,o),
(681,225,cs),
(681,141,o),
(619,72,o),
(501,72,cs),
(456,72,o),
(400,89,o),
(370,115,c),
(332,33,l),
(386,0,o),
(470,-14,o),
(521,-14,cs),
(669,-14,o),
(775,78,o),
(775,233,cs),
(775,401,o),
(599,523,o),
(422,523,c),
(378,481,o),
(399,408,o),
(462,408,cs),
(579,408,o),
(707,599,o),
(707,757,cs),
(707,878,o),
(624,980,o),
(490,980,cs),
(344,980,o),
(253,860,o),
(253,687,cs),
(253,-368,l),
(269,-373,o),
(282,-375,o),
(298,-375,cs),
(311,-375,o),
(329,-372,o),
(344,-368,c),
(344,663,ls),
(344,814,o),
(399,897,o),
(490,897,cs),
(563,897,o),
(614,840,o),
(614,757,cs),
(614,673,o),
(567,555,o),
(467,478,c),
(455,424,l)
);
}
);
width = 976;
},
{
associatedMasterId = "6DBDBFCA-DF26-4695-B281-FA25C6EAD80F";
background = {
shapes = (
{
alignment = -1;
pos = (181,0);
ref = _part.s;
},
{
pos = (168,0);
ref = _part.s.out;
}
);
};
layerId = "03168F00-86B8-4193-BE63-294409D661F7";
name = "9. Jun 23 at 12:17";
shapes = (
{
alignment = -1;
ref = _part.p.in;
},
{
closed = 1;
nodes = (
(571,429,o),
(681,338,o),
(681,225,cs),
(681,135,o),
(614,71,o),
(518,71,cs),
(485,71,o),
(458,75,o),
(418,85,c),
(396,71,o),
(388,37,o),
(396,6,c),
(419,-6,o),
(464,-14,o),
(511,-14,cs),
(671,-14,o),
(775,80,o),
(775,225,cs),
(775,397,o),
(606,519,o),
(452,543,c),
(392,486,o),
(413,405,o),
(464,405,cs),
(563,405,o),
(738,595,o),
(738,777,cs),
(738,898,o),
(666,980,o),
(560,980,cs),
(371,980,o),
(253,743,o),
(253,364,cs),
(253,-368,l),
(267,-372,o),
(284,-375,o),
(298,-375,cs),
(309,-375,o),
(316,-374,o),
(344,-368,c),
(344,393,ls),
(344,695,o),
(428,894,o),
(556,894,cs),
(612,894,o),
(645,850,o),
(645,776,cs),
(645,662,o),
(547,517,o),
(438,484,c),
(437,452,l)
);
}
);
width = 976;
}
);
metricLeft = p.medi.cv01;
metricRight = germandbls;
},
{
color = 3;
glyphname = t.fina.cv02;
kernLeft = no_kerning;
kernRight = t;
lastChange = "2023-08-31 09:36:21 +0000";
layers = (
{
layerId = "6DBDBFCA-DF26-4695-B281-FA25C6EAD80F";
shapes = (
{
closed = 1;
nodes = (
(292,-14,o),
(336,12,o),
(359,39,c),
(358,62,o),
(335,92,o),
(313,100,c),
(292,81,o),
(271,71,o),
(250,71,cs),
(197,71,o),
(189,124,o),
(189,172,cs),
(189,288,l),
(97,288,l),
(97,168,ls),
(97,63,o),
(132,-14,o),
(238,-14,cs)
);
},
{
pos = (2,0);
ref = _part.t.in.cv02;
}
);
width = 369;
}
);
metricLeft = t.medi.cv02;
metricRight = t.fina;
},
{
color = 3;
glyphname = t.medi.cv02;
kernLeft = no_kerning;
kernRight = no_kerning;
lastChange = "2023-08-31 09:36:21 +0000";
layers = (
{
layerId = "6DBDBFCA-DF26-4695-B281-FA25C6EAD80F";
shapes = (
{
pos = (2,0);
ref = _part.t.in.cv02;
},
{
closed = 1;
nodes = (
(296,-14,o),
(310,3,o),
(310,28,cs),
(310,56,o),
(299,72,o),
(281,72,cs),
(216,72,o),
(189,135,o),
(189,258,cs),
(189,263,l),
(162,271,o),
(131,274,o),
(97,263,c),
(97,247,ls),
(97,84,o),
(149,-14,o),
(274,-14,cs)
);
}
);
width = 282;
}
);
},
{
color = 3;
glyphname = x.init;
kernLeft = x;
kernRight = no_kerning;
lastChange = "2023-08-31 09:36:21 +0000";
layers = (
{
layerId = "6DBDBFCA-DF26-4695-B281-FA25C6EAD80F";
shapes = (
{
closed = 1;
nodes = (
(103,360,o),
(141,400,o),
(199,400,c),
(208,425,o),
(209,461,o),
(203,486,c),
(109,486,o),
(45,436,o),
(-10,341,c),
(6,310,o),
(28,301,o),
(64,295,c)
);
},
{
pos = (-155,0);
ref = _part.x;
}
);
width = 645;
}
);
metricRight = x;
},
{
color = 3;
glyphname = x.medi.cv01;
kernLeft = no_kerning;
kernRight = no_kerning;
lastChange = "2023-08-31 09:36:21 +0000";
layers = (
{
layerId = "6DBDBFCA-DF26-4695-B281-FA25C6EAD80F";
shapes = (
{
closed = 1;
nodes = (
(6,-14,o),
(76,34,o),
(151,161,cs),
(253,332,ls),
(284,386,o),
(318,400,o),
(349,400,c),
(356,423,o),
(357,462,o),
(352,486,c),
(286,486,o),
(228,455,o),
(174,363,cs),
(83,211,ls),
(22,109,o),
(-28,71,o),
(-101,71,cs),
(-122,71,o),
(-136,55,o),
(-136,29,cs),
(-136,4,o),
(-124,-14,o),
(-106,-14,cs)
);
},
{
pos = (-6,0);
ref = _part.x;
}
);
width = 794;
}
);
metricLeft = n.medi.cv01;
metricRight = x;
},
{
color = 3;
glyphname = x.medi.cv02;
kernLeft = no_kerning;
kernRight = no_kerning;
lastChange = "2023-08-31 09:36:21 +0000";
layers = (
{
layerId = "6DBDBFCA-DF26-4695-B281-FA25C6EAD80F";
shapes = (
{
pos = (-159,0);
ref = _part.x;
},
{
closed = 1;
nodes = (
(-122,401,o),
(-134,384,o),
(-134,361,cs),
(-134,334,o),
(-121,317,o),
(-101,317,cs),
(-68,317,o),
(-5,335,o),
(76,367,cs),
(91,373,ls),
(138,392,o),
(168,400,o),
(195,400,c),
(203,427,o),
(204,458,o),
(199,486,c),
(164,486,o),
(125,471,o),
(55,445,cs),
(36,438,ls),
(-28,414,o),
(-74,401,o),
(-105,401,cs)
);
}
);
width = 641;
}
);
metricRight = x;
},
{
color = 3;
glyphname = x.medi.cv03;
kernLeft = no_kerning;
kernRight = no_kerning;
lastChange = "2023-08-31 09:36:21 +0000";
layers = (
{
layerId = "6DBDBFCA-DF26-4695-B281-FA25C6EAD80F";
shapes = (
{
pos = (-116,0);
ref = _part.x;
},
{
closed = 1;
nodes = (
(-68,-18,o),
(-30,31,o),
(42,158,cs),
(132,316,ls),
(167,378,o),
(199,400,o),
(238,400,c),
(246,429,o),
(247,464,o),
(241,486,c),
(165,486,o),
(113,448,o),
(50,338,cs),
(-43,176,ls),
(-94,88,o),
(-124,49,o),
(-163,25,cs),
(-190,8,o),
(-193,4,o),
(-193,-14,cs),
(-193,-39,o),
(-171,-70,o),
(-153,-70,cs),
(-148,-70,o),
(-142,-68,o),
(-135,-63,cs)
);
}
);
width = 684;
}
);
metricRight = x;
},
{
color = 3;
glyphname = y.medi.cv02;
kernLeft = no_kerning;
kernRight = no_kerning;
lastChange = "2023-09-06 13:18:10 +0000";
layers = (
{
anchors = (
{
name = bottom;
pos = (638,0);
},
{
name = top;
pos = (300,472);
}
);
layerId = "6DBDBFCA-DF26-4695-B281-FA25C6EAD80F";
shapes = (
{
closed = 1;
nodes = (
(521,0,l),
(521,284,l),
(432,284,l),
(432,0,l)
);
},
{
pos = (-12,0);
ref = _part.boucle.bas;
},
{
pos = (-38,0);
ref = _part.i.in.cv02;
},
{
pos = (-60,0);
ref = _part.u;
}
);
width = 649;
}
);
metricLeft = i.medi.cv02;
metricRight = g;
},
{
color = 6;
glyphname = zero;
kernLeft = zero;
kernRight = zero;
lastChange = "2023-09-26 15:52:12 +0000";
layers = (
{
layerId = "6DBDBFCA-DF26-4695-B281-FA25C6EAD80F";
shapes = (
{
closed = 1;
nodes = (
(506,-14,o),
(619,136,o),
(619,357,cs),
(619,579,o),
(509,725,o),
(341,725,cs),
(172,725,o),
(60,578,o),
(60,356,cs),
(60,135,o),
(173,-14,o),
(340,-14,cs)
);
},
{
closed = 1;
nodes = (
(226,75,o),
(155,182,o),
(155,356,cs),
(155,529,o),
(226,636,o),
(341,636,cs),
(455,636,o),
(524,530,o),
(524,354,cs),
(524,180,o),
(455,75,o),
(341,75,cs)
);
}
);
width = 679;
}
);
unicode = 48;
},
{
color = 6;
glyphname = one;
kernLeft = one;
kernRight = H;
lastChange = "2023-09-26 15:53:26 +0000";
layers = (
{
layerId = "6DBDBFCA-DF26-4695-B281-FA25C6EAD80F";
shapes = (
{
closed = 1;
nodes = (
(367,-3,o),
(383,-2,o),
(399,0,c),
(399,695,l),
(385,715,o),
(353,726,o),
(324,722,c),
(234,663,o),
(151,612,o),
(45,552,c),
(49,523,o),
(64,495,o),
(85,474,c),
(136,498,o),
(211,539,o),
(315,608,c),
(304,628,l),
(304,0,l),
(320,-2,o),
(336,-3,o),
(351,-3,cs)
);
}
);
width = 519;
}
);
unicode = 49;
},
{
color = 6;
glyphname = two;
kernLeft = two;
kernRight = two;
lastChange = "2023-09-26 15:52:56 +0000";
layers = (
{
layerId = "6DBDBFCA-DF26-4695-B281-FA25C6EAD80F";
shapes = (
{
closed = 1;
nodes = (
(93,4,o),
(138,8,o),
(180,8,cs),
(211,8,o),
(230,6,o),
(299,-4,cs),
(353,-12,o),
(376,-14,o),
(397,-14,cs),
(479,-14,o),
(534,2,o),
(567,25,c),
(567,58,o),
(558,82,o),
(538,102,c),
(501,86,o),
(444,73,o),
(399,73,cs),
(378,73,o),
(347,76,o),
(304,81,cs),
(232,89,o),
(249,89,o),
(220,89,cs),
(201,89,o),
(186,88,o),
(158,85,c),
(189,72,l),
(264,127,o),
(344,197,o),
(409,271,cs),
(491,365,o),
(527,438,o),
(527,518,cs),
(527,643,o),
(438,730,o),
(304,730,cs),
(176,730,o),
(75,651,o),
(51,514,c),
(73,494,o),
(104,487,o),
(141,491,c),
(153,584,o),
(215,641,o),
(300,641,cs),
(381,641,o),
(433,590,o),
(433,514,cs),
(433,452,o),
(399,389,o),
(318,303,cs),
(238,219,o),
(114,112,o),
(45,66,c),
(43,41,o),
(55,8,o),
(69,-1,c)
);
}
);
width = 617;
}
);
unicode = 50;
},
{
color = 6;
glyphname = three;
kernLeft = three;
kernRight = three;
lastChange = "2023-09-26 15:50:48 +0000";
layers = (
{
layerId = "6DBDBFCA-DF26-4695-B281-FA25C6EAD80F";
shapes = (
{
closed = 1;
nodes = (
(438,-14,o),
(516,90,o),
(516,184,cs),
(516,285,o),
(447,364,o),
(338,384,c),
(330,331,l),
(455,368,o),
(497,453,o),
(497,531,cs),
(497,632,o),
(420,730,o),
(283,730,cs),
(162,730,o),
(81,654,o),
(58,565,c),
(84,545,o),
(112,534,o),
(142,533,c),
(160,605,o),
(216,642,o),
(285,642,cs),
(354,642,o),
(405,598,o),
(405,524,cs),
(405,449,o),
(346,399,o),
(262,399,cs),
(191,399,l),
(187,384,o),
(186,371,o),
(186,356,cs),
(186,341,o),
(187,328,o),
(191,315,c),
(262,315,ls),
(370,315,o),
(424,270,o),
(424,195,cs),
(424,121,o),
(367,74,o),
(287,74,cs),
(195,74,o),
(144,122,o),
(118,162,c),
(90,149,o),
(62,123,o),
(50,101,c),
(95,29,o),
(189,-14,o),
(283,-14,cs)
);
}
);
width = 576;
}
);
unicode = 51;
},
{
color = 6;
glyphname = four;
kernLeft = four;
kernRight = four;
lastChange = "2023-09-26 15:53:09 +0000";
layers = (
{
layerId = "6DBDBFCA-DF26-4695-B281-FA25C6EAD80F";
shapes = (
{
closed = 1;
nodes = (
(141,244,l),
(343,695,l),
(330,711,o),
(294,729,o),
(263,729,c),
(50,251,l),
(50,233,o),
(58,200,o),
(67,186,c)
);
},
{
closed = 1;
nodes = (
(576,186,l),
(579,200,o),
(581,214,o),
(581,228,cs),
(581,241,o),
(579,256,o),
(576,269,c),
(88,269,l),
(67,186,l)
);
},
{
closed = 1;
nodes = (
(430,-3,o),
(444,-2,o),
(460,0,c),
(460,471,l),
(444,473,o),
(430,474,o),
(414,474,cs),
(398,474,o),
(382,473,o),
(367,471,c),
(367,0,l),
(382,-2,o),
(398,-3,o),
(414,-3,cs)
);
}
);
width = 606;
}
);
unicode = 52;
},
{
color = 6;
glyphname = five;
kernLeft = five;
kernRight = five;
lastChange = "2023-09-26 15:53:14 +0000";
layers = (
{
layerId = "6DBDBFCA-DF26-4695-B281-FA25C6EAD80F";
shapes = (
{
closed = 1;
nodes = (
(420,-14,o),
(497,108,o),
(497,214,cs),
(497,340,o),
(409,436,o),
(263,436,cs),
(209,436,o),
(169,427,o),
(139,417,c),
(181,382,l),
(220,627,l),
(459,627,l),
(467,643,o),
(467,692,o),
(459,712,c),
(149,712,l),
(93,383,l),
(106,363,o),
(124,345,o),
(144,330,c),
(168,339,o),
(205,349,o),
(254,349,cs),
(367,349,o),
(404,279,o),
(404,214,cs),
(404,135,o),
(347,74,o),
(259,74,cs),
(175,74,o),
(124,122,o),
(98,162,c),
(70,149,o),
(42,123,o),
(30,105,c),
(75,29,o),
(169,-14,o),
(254,-14,cs)
);
}
);
width = 552;
}
);
unicode = 53;
},
{
color = 6;
glyphname = six;
kernLeft = zero;
kernRight = six;
lastChange = "2023-09-26 15:52:41 +0000";
layers = (
{
layerId = "6DBDBFCA-DF26-4695-B281-FA25C6EAD80F";
shapes = (
{
closed = 1;
nodes = (
(434,-14,o),
(543,77,o),
(543,217,cs),
(543,321,o),
(467,427,o),
(322,427,cs),
(256,427,o),
(164,391,o),
(137,324,c),
(156,293,l),
(139,510,o),
(206,643,o),
(324,643,cs),
(377,643,o),
(421,617,o),
(447,559,c),
(475,561,o),
(505,578,o),
(521,600,c),
(482,688,o),
(410,730,o),
(330,730,cs),
(167,730,o),
(60,581,o),
(60,356,cs),
(60,107,o),
(157,-14,o),
(315,-14,cs)
);
},
{
closed = 1;
nodes = (
(228,73,o),
(176,135,o),
(176,208,cs),
(176,286,o),
(233,342,o),
(318,342,cs),
(398,342,o),
(451,286,o),
(451,208,cs),
(451,135,o),
(399,73,o),
(314,73,cs)
);
}
);
visible = 1;
width = 593;
}
);
metricLeft = zero;
unicode = 54;
},
{
color = 6;
glyphname = seven;
kernLeft = seven;
kernRight = seven;
lastChange = "2023-09-26 15:53:19 +0000";
layers = (
{
layerId = "6DBDBFCA-DF26-4695-B281-FA25C6EAD80F";
shapes = (
{
closed = 1;
nodes = (
(509,635,l),
(430,683,l),
(186,20,l),
(205,1,o),
(235,-10,o),
(271,-11,c)
);
},
{
closed = 1;
nodes = (
(452,627,l),
(509,635,l),
(513,661,o),
(507,696,o),
(487,712,c),
(44,712,l),
(38,684,o),
(38,657,o),
(44,627,c)
);
}
);
width = 550;
}
);
unicode = 55;
},
{
color = 6;
glyphname = eight;
kernLeft = eight;
kernRight = eight;
lastChange = "2023-09-26 15:48:58 +0000";
layers = (
{
layerId = "6DBDBFCA-DF26-4695-B281-FA25C6EAD80F";
shapes = (
{
closed = 1;
nodes = (
(427,-14,o),
(524,68,o),
(524,181,cs),
(524,255,o),
(475,322,o),
(388,369,cs),
(276,429,ls),
(213,463,o),
(182,503,o),
(182,551,cs),
(182,610,o),
(225,648,o),
(292,648,cs),
(359,648,o),
(402,610,o),
(402,551,cs),
(402,503,o),
(371,463,o),
(308,429,cs),
(196,369,ls),
(109,322,o),
(60,255,o),
(60,181,cs),
(60,68,o),
(157,-14,o),
(292,-14,cs)
);
},
{
closed = 1;
nodes = (
(208,69,o),
(151,114,o),
(151,181,cs),
(151,232,o),
(180,270,o),
(244,304,cs),
(347,359,ls),
(446,412,o),
(493,474,o),
(493,553,cs),
(493,657,o),
(410,730,o),
(292,730,cs),
(174,730,o),
(91,657,o),
(91,553,cs),
(91,474,o),
(138,412,o),
(237,359,cs),
(340,304,ls),
(404,270,o),
(433,232,o),
(433,181,cs),
(433,114,o),
(376,69,o),
(292,69,cs)
);
}
);
width = 584;
}
);
unicode = 56;
},
{
color = 6;
glyphname = nine;
kernLeft = nine;
kernRight = zero;
lastChange = "2023-09-26 15:52:45 +0000";
layers = (
{
layerId = "6DBDBFCA-DF26-4695-B281-FA25C6EAD80F";
shapes = (
{
closed = 1;
nodes = (
(413,-14,o),
(533,90,o),
(533,361,cs),
(533,609,o),
(436,730,o),
(279,730,cs),
(159,730,o),
(50,640,o),
(50,498,cs),
(50,390,o),
(127,278,o),
(272,278,cs),
(337,278,o),
(430,319,o),
(456,392,c),
(438,424,l),
(453,161,o),
(374,73,o),
(271,73,cs),
(217,73,o),
(173,99,o),
(146,159,c),
(119,156,o),
(85,144,o),
(66,124,c),
(106,26,o),
(184,-14,o),
(271,-14,cs)
);
},
{
closed = 1;
nodes = (
(195,363,o),
(141,424,o),
(141,505,cs),
(141,581,o),
(195,643,o),
(280,643,cs),
(361,643,o),
(417,581,o),
(417,501,cs),
(417,424,o),
(361,363,o),
(275,363,cs)
);
}
);
width = 593;
}
);
metricLeft = "=|six";
metricRight = zero;
unicode = 57;
},
{
color = 6;
glyphname = one.ss02;
kernLeft = one;
kernRight = one;
lastChange = "2023-09-26 15:49:32 +0000";
layers = (
{
layerId = "6DBDBFCA-DF26-4695-B281-FA25C6EAD80F";
shapes = (
{
closed = 1;
nodes = (
(373,40,l),
(373,712,l),
(358,722,o),
(324,726,o),
(299,720,c),
(222,669,o),
(147,619,o),
(54,565,c),
(59,535,o),
(72,508,o),
(94,487,c),
(138,508,o),
(201,544,o),
(290,608,c),
(278,628,l),
(278,40,l)
);
},
{
closed = 1;
nodes = (
(501,0,l),
(514,25,o),
(510,68,o),
(501,84,c),
(123,84,l),
(111,65,o),
(112,23,o),
(123,0,c)
);
}
);
width = 530;
}
);
},
{
color = 3;
glyphname = seven.ss03;
kernLeft = seven;
kernRight = seven;
lastChange = "2023-08-31 09:36:21 +0000";
layers = (
{
layerId = "6DBDBFCA-DF26-4695-B281-FA25C6EAD80F";
shapes = (
{
closed = 1;
nodes = (
(490,319,l),
(494,332,o),
(496,346,o),
(496,361,cs),
(496,374,o),
(495,390,o),
(490,400,c),
(142,400,l),
(137,390,o),
(136,376,o),
(136,363,cs),
(136,348,o),
(137,332,o),
(142,319,c)
);
},
{
ref = seven;
}
);
width = 529;
}
);
},
{
color = 6;
glyphname = period;
kernLeft = period;
kernRight = period;
lastChange = "2023-08-31 09:36:21 +0000";
layers = (
{
layerId = "6DBDBFCA-DF26-4695-B281-FA25C6EAD80F";
shapes = (
{
closed = 1;
nodes = (
(177,-14,o),
(209,17,o),
(209,55,cs),
(209,92,o),
(177,123,o),
(140,123,cs),
(103,123,o),
(72,92,o),
(72,55,cs),
(72,17,o),
(103,-14,o),
(140,-14,cs)
);
}
);
width = 291;
}
);
unicode = 46;
},
{
color = 6;
glyphname = comma;
kernLeft = period;
kernRight = period;
lastChange = "2023-08-31 09:36:21 +0000";
layers = (
{
layerId = "6DBDBFCA-DF26-4695-B281-FA25C6EAD80F";
shapes = (
{
closed = 1;
nodes = (
(162,-180,o),
(206,-96,o),
(206,-9,cs),
(206,39,o),
(194,77,o),
(180,105,c),
(148,105,o),
(109,92,o),
(90,72,c),
(106,39,o),
(114,11,o),
(114,-17,cs),
(114,-83,o),
(78,-132,o),
(32,-162,c),
(34,-185,o),
(58,-212,o),
(77,-222,c)
);
}
);
width = 302;
}
);
unicode = 44;
},
{
color = 3;
glyphname = exclam;
kernLeft = exclam;
kernRight = exclam;
lastChange = "2023-08-31 09:36:21 +0000";
layers = (
{
layerId = "6DBDBFCA-DF26-4695-B281-FA25C6EAD80F";
shapes = (
{
closed = 1;
nodes = (
(189,238,o),
(204,239,o),
(220,242,c),
(220,712,l),
(204,715,o),
(189,717,o),
(174,717,cs),
(158,717,o),
(142,715,o),
(126,712,c),
(126,242,l),
(142,239,o),
(158,238,o),
(174,238,cs)
);
},
{
pos = (31,0);
ref = period;
}
);
width = 339;
}
);
unicode = 33;
},
{
color = 3;
glyphname = question;
kernLeft = question;
lastChange = "2023-09-26 15:47:06 +0000";
layers = (
{
layerId = "6DBDBFCA-DF26-4695-B281-FA25C6EAD80F";
shapes = (
{
closed = 1;
nodes = (
(253,237,o),
(269,239,o),
(284,243,c),
(284,279,ls),
(284,319,o),
(293,331,o),
(322,348,cs),
(345,363,ls),
(407,400,o),
(451,440,o),
(451,535,cs),
(451,622,o),
(394,724,o),
(247,724,cs),
(119,724,o),
(52,643,o),
(40,578,c),
(68,562,o),
(96,553,o),
(127,552,c),
(139,600,o),
(187,635,o),
(246,635,cs),
(317,635,o),
(357,590,o),
(357,529,cs),
(357,491,o),
(341,463,o),
(295,434,cs),
(267,417,ls),
(224,392,o),
(190,356,o),
(190,284,cs),
(190,243,l),
(206,239,o),
(221,237,o),
(237,237,cs)
);
},
{
pos = (95,0);
ref = period;
}
);
width = 501;
}
);
unicode = 63;
},
{
color = 6;
glyphname = bullet;
lastChange = "2023-08-31 09:36:21 +0000";
layers = (
{
layerId = "6DBDBFCA-DF26-4695-B281-FA25C6EAD80F";
shapes = (
{
closed = 1;
nodes = (
(220,261,o),
(266,304,o),
(266,357,cs),
(266,410,o),
(220,455,o),
(168,455,cs),
(115,455,o),
(72,410,o),
(72,357,cs),
(72,304,o),
(115,261,o),
(168,261,cs)
);
}
);
width = 348;
}
);
metricLeft = period;
metricRight = period;
unicode = 8226;
},
{
color = 6;
glyphname = asterisk;
kernLeft = sups;
kernRight = sups;
lastChange = "2023-08-31 09:36:21 +0000";
layers = (
{
associatedMasterId = "6DBDBFCA-DF26-4695-B281-FA25C6EAD80F";
layerId = "EEAA8385-32AF-4FB0-85DD-3AD65CEF4C5D";
name = "29. Jun 23 at 15:22";
shapes = (
{
closed = 1;
nodes = (
(198,568,l),
(48,628,l),
(35,612,o),
(25,586,o),
(23,565,c),
(172,505,l),
(58,391,l),
(68,372,o),
(88,353,o),
(107,343,c),
(232,469,l),
(358,343,l),
(377,353,o),
(397,372,o),
(407,391,c),
(292,506,l),
(440,565,l),
(438,586,o),
(428,612,o),
(415,628,c),
(266,568,l),
(266,729,l),
(246,735,o),
(218,735,o),
(198,729,c)
);
}
);
width = 463;
},
{
layerId = "6DBDBFCA-DF26-4695-B281-FA25C6EAD80F";
name = Regular;
shapes = (
{
closed = 1;
nodes = (
(232,503,l),
(382,420,l),
(401,436,o),
(413,455,o),
(413,481,c),
(302,542,l),
(413,604,l),
(411,627,o),
(402,648,o),
(380,663,c),
(232,581,l),
(84,663,l),
(62,649,o),
(53,627,o),
(50,604,c),
(162,542,l),
(50,481,l),
(52,455,o),
(64,435,o),
(82,420,c)
);
},
{
closed = 1;
nodes = (
(242,346,o),
(254,348,o),
(266,354,c),
(266,729,l),
(254,732,o),
(242,733,o),
(232,733,cs),
(221,733,o),
(209,732,o),
(198,729,c),
(198,354,l),
(209,348,o),
(221,346,o),
(231,346,cs)
);
}
);
width = 463;
}
);
unicode = 42;
},
{
color = 6;
glyphname = numbersign;
lastChange = "2023-08-31 09:36:21 +0000";
layers = (
{
layerId = "6DBDBFCA-DF26-4695-B281-FA25C6EAD80F";
shapes = (
{
closed = 1;
nodes = (
(433,708,l),
(416,725,o),
(373,736,o),
(344,731,c),
(144,16,l),
(159,-3,o),
(198,-13,o),
(235,-8,c)
);
},
{
closed = 1;
nodes = (
(776,157,l),
(781,180,o),
(782,216,o),
(776,237,c),
(65,237,l),
(58,209,o),
(59,186,o),
(65,157,c)
);
},
{
closed = 1;
nodes = (
(768,707,l),
(751,724,o),
(708,735,o),
(679,730,c),
(481,15,l),
(500,-4,o),
(541,-14,o),
(572,-9,c)
);
},
{
closed = 1;
nodes = (
(851,451,l),
(856,474,o),
(857,510,o),
(851,531,c),
(140,531,l),
(133,503,o),
(134,480,o),
(140,451,c)
);
}
);
width = 915;
}
);
unicode = 35;
},
{
color = 6;
glyphname = slash;
lastChange = "2023-09-26 15:57:09 +0000";
layers = (
{
layerId = "6DBDBFCA-DF26-4695-B281-FA25C6EAD80F";
shapes = (
{
closed = 1;
nodes = (
(74,-10,o),
(110,-10,c),
(402,704,l),
(388,720,o),
(349,734,o),
(323,732,c),
(30,20,l),
(50,1,o)
);
}
);
width = 432;
}
);
unicode = 47;
},
{
color = 6;
glyphname = hyphen;
kernLeft = hyphen;
kernRight = hyphen;
lastChange = "2023-09-15 13:47:10 +0000";
layers = (
{
layerId = "6DBDBFCA-DF26-4695-B281-FA25C6EAD80F";
shapes = (
{
closed = 1;
nodes = (
(378,240,l),
(389,266,o),
(389,309,o),
(378,333,c),
(94,333,l),
(83,309,o),
(83,266,o),
(94,240,c)
);
}
);
width = 474;
}
);
unicode = 45;
},
{
color = 6;
glyphname = endash;
lastChange = "2023-08-31 09:36:21 +0000";
layers = (
{
layerId = "6DBDBFCA-DF26-4695-B281-FA25C6EAD80F";
shapes = (
{
closed = 1;
nodes = (
(356,250,l),
(361,273,o),
(362,309,o),
(356,330,c),
(0,330,l),
(-7,302,o),
(-6,279,o),
(0,250,c)
);
}
);
width = 356;
}
);
metricLeft = emdash;
metricRight = emdash;
unicode = 8211;
},
{
color = 6;
glyphname = emdash;
lastChange = "2023-08-31 09:36:21 +0000";
layers = (
{
layerId = "6DBDBFCA-DF26-4695-B281-FA25C6EAD80F";
shapes = (
{
closed = 1;
nodes = (
(711,250,l),
(716,273,o),
(717,309,o),
(711,330,c),
(0,330,l),
(-7,302,o),
(-6,279,o),
(0,250,c)
);
}
);
width = 711;
}
);
unicode = 8212;
},
{
color = 6;
glyphname = parenleft;
lastChange = "2023-08-31 09:36:21 +0000";
layers = (
{
background = {
shapes = (
{
closed = 1;
nodes = (
(1024,-321,o),
(1273,-27,o),
(1273,336,cs),
(1273,698,o),
(1024,992,o),
(717,992,cs),
(410,992,o),
(161,708,o),
(161,336,cs),
(161,-36,o),
(410,-321,o),
(717,-321,cs)
);
},
{
closed = 0;
nodes = (
(61,357,l),
(61,588,o),
(147,807,o),
(342,954,c)
);
}
);
};
layerId = "6DBDBFCA-DF26-4695-B281-FA25C6EAD80F";
shapes = (
{
closed = 1;
nodes = (
(412,-258,o),
(436,-230,o),
(437,-202,c),
(252,-58,o),
(165,122,o),
(165,361,cs),
(165,600,o),
(252,780,o),
(437,924,c),
(430,956,o),
(406,984,o),
(384,986,c),
(186,860,o),
(70,628,o),
(70,361,cs),
(70,91,o),
(189,-145,o),
(384,-264,c)
);
}
);
width = 457;
}
);
unicode = 40;
},
{
color = 6;
glyphname = braceleft;
lastChange = "2023-08-31 09:36:21 +0000";
layers = (
{
layerId = "6DBDBFCA-DF26-4695-B281-FA25C6EAD80F";
shapes = (
{
closed = 1;
nodes = (
(413,-259,o),
(431,-257,o),
(448,-253,c),
(456,-230,o),
(453,-192,o),
(443,-170,c),
(429,-172,o),
(411,-174,o),
(396,-174,cs),
(314,-174,o),
(282,-135,o),
(282,-13,cs),
(282,192,ls),
(282,282,o),
(257,349,o),
(197,379,c),
(197,353,l),
(260,379,o),
(282,441,o),
(282,531,cs),
(282,736,ls),
(282,858,o),
(314,897,o),
(396,897,cs),
(411,897,o),
(429,895,o),
(443,893,c),
(453,915,o),
(456,953,o),
(448,976,c),
(431,980,o),
(413,982,o),
(396,982,cs),
(259,982,o),
(197,909,o),
(197,760,cs),
(197,555,ls),
(197,441,o),
(172,404,o),
(93,404,cs),
(59,404,l),
(46,381,o),
(48,342,o),
(59,319,c),
(93,319,ls),
(172,319,o),
(197,282,o),
(197,168,cs),
(197,-37,ls),
(197,-186,o),
(259,-259,o),
(396,-259,cs)
);
}
);
width = 473;
}
);
unicode = 123;
},
{
color = 6;
glyphname = bracketleft;
lastChange = "2023-08-31 09:36:21 +0000";
layers = (
{
layerId = "6DBDBFCA-DF26-4695-B281-FA25C6EAD80F";
shapes = (
{
closed = 1;
nodes = (
(416,-257,l),
(425,-230,o),
(425,-197,o),
(416,-172,c),
(200,-172,l),
(200,887,l),
(416,887,l),
(425,909,o),
(425,945,o),
(416,972,c),
(110,972,l),
(110,-257,l)
);
}
);
width = 442;
}
);
unicode = 91;
},
{
color = 6;
glyphname = quoteright;
kernLeft = quote;
kernRight = quote;
lastChange = "2023-08-31 09:36:21 +0000";
layers = (
{
layerId = "6DBDBFCA-DF26-4695-B281-FA25C6EAD80F";
shapes = (
{
closed = 1;
nodes = (
(172,602,o),
(203,670,o),
(203,740,cs),
(203,799,o),
(181,859,o),
(140,897,c),
(108,889,o),
(71,862,o),
(57,837,c),
(81,813,o),
(114,773,o),
(114,725,cs),
(114,683,o),
(92,646,o),
(50,598,c),
(60,575,o),
(83,556,o),
(104,546,c)
);
}
);
width = 253;
}
);
unicode = 8217;
},
{
color = 6;
glyphname = guilsinglleft;
kernLeft = guillemet;
lastChange = "2023-08-31 09:36:21 +0000";
layers = (
{
layerId = "6DBDBFCA-DF26-4695-B281-FA25C6EAD80F";
shapes = (
{
closed = 1;
nodes = (
(231,26,o),
(256,45,o),
(266,74,c),
(104,275,l),
(106,194,l),
(261,395,l),
(243,422,o),
(220,442,o),
(190,451,c),
(23,234,l),
(197,17,l)
);
}
);
width = 311;
}
);
unicode = 8249;
},
{
color = 6;
glyphname = quotesingle;
kernLeft = quote;
kernRight = quote;
lastChange = "2023-08-31 09:36:21 +0000";
layers = (
{
layerId = "6DBDBFCA-DF26-4695-B281-FA25C6EAD80F";
shapes = (
{
closed = 1;
nodes = (
(123,582,o),
(137,580,o),
(151,580,cs),
(164,580,o),
(176,582,o),
(189,585,c),
(199,872,l),
(182,877,o),
(166,879,o),
(149,879,cs),
(130,879,o),
(112,876,o),
(100,872,c),
(110,585,l)
);
}
);
width = 299;
}
);
unicode = 39;
},
{
color = 6;
glyphname = eye;
lastChange = "2023-08-31 09:36:21 +0000";
layers = (
{
background = {
shapes = (
{
closed = 1;
nodes = (
(340,184,o),
(222,282,o),
(165,380,c),
(165,339,l),
(219,451,o),
(341,564,o),
(504,564,cs),
(667,564,o),
(789,451,o),
(843,339,c),
(843,379,l),
(789,282,o),
(668,184,o),
(504,184,cs)
);
},
{
closed = 1;
nodes = (
(713,98,o),
(870,237,o),
(929,358,c),
(870,493,o),
(714,650,o),
(504,650,cs),
(294,650,o),
(135,493,o),
(79,358,c),
(138,237,o),
(295,98,o),
(504,98,cs)
);
},
{
closed = 1;
nodes = (
(428,403,o),
(402,429,o),
(402,460,cs),
(402,491,o),
(428,517,o),
(459,517,cs),
(490,517,o),
(516,491,o),
(516,460,cs),
(516,429,o),
(490,403,o),
(459,403,cs)
);
},
{
closed = 1;
nodes = (
(601,242,o),
(678,316,o),
(678,414,cs),
(678,512,o),
(601,586,o),
(506,586,cs),
(411,586,o),
(334,512,o),
(334,414,cs),
(334,316,o),
(411,242,o),
(506,242,cs)
);
}
);
};
layerId = "6DBDBFCA-DF26-4695-B281-FA25C6EAD80F";
shapes = (
{
closed = 1;
nodes = (
(333,186,o),
(209,285,o),
(154,384,c),
(154,342,l),
(209,453,o),
(334,564,o),
(500,564,cs),
(666,564,o),
(791,453,o),
(846,342,c),
(846,383,l),
(788,285,o),
(667,186,o),
(500,186,cs)
);
},
{
closed = 1;
nodes = (
(712,99,o),
(876,239,o),
(932,362,c),
(876,495,o),
(713,651,o),
(500,651,cs),
(287,651,o),
(124,495,o),
(68,362,c),
(124,239,o),
(288,99,o),
(500,99,cs)
);
},
{
closed = 1;
nodes = (
(423,407,o),
(397,433,o),
(397,465,cs),
(397,496,o),
(423,522,o),
(455,522,cs),
(486,522,o),
(512,496,o),
(512,465,cs),
(512,433,o),
(486,407,o),
(455,407,cs)
);
},
{
closed = 1;
nodes = (
(598,239,o),
(676,314,o),
(676,413,cs),
(676,512,o),
(598,587,o),
(502,587,cs),
(406,587,o),
(328,512,o),
(328,413,cs),
(328,314,o),
(406,239,o),
(502,239,cs)
);
}
);
width = 1000;
}
);
unicode = 128065;
},
{
color = 6;
glyphname = ear;
lastChange = "2023-08-31 09:36:21 +0000";
layers = (
{
layerId = "6DBDBFCA-DF26-4695-B281-FA25C6EAD80F";
shapes = (
{
closed = 1;
nodes = (
(292,68,o),
(368,-11,o),
(473,-11,cs),
(575,-11,o),
(639,72,o),
(647,156,cs),
(652,210,o),
(662,255,o),
(694,308,cs),
(718,349,o),
(765,419,o),
(765,512,cs),
(765,628,o),
(684,750,o),
(521,750,cs),
(367,750,o),
(262,623,o),
(256,480,c),
(343,478,l),
(346,586,o),
(412,666,o),
(518,666,cs),
(622,666,o),
(678,593,o),
(678,512,cs),
(678,445,o),
(645,396,o),
(619,352,cs),
(580,286,o),
(566,224,o),
(561,164,cs),
(555,111,o),
(528,76,o),
(473,76,cs),
(409,76,o),
(372,115,o),
(351,213,c),
(267,197,l)
);
},
{
closed = 1;
nodes = (
(475,189,o),
(542,239,o),
(542,310,cs),
(542,355,o),
(519,391,o),
(495,420,cs),
(476,443,o),
(462,462,o),
(462,489,cs),
(462,525,o),
(482,542,o),
(511,542,cs),
(541,542,o),
(555,521,o),
(555,494,cs),
(555,482,o),
(553,473,o),
(547,458,c),
(618,429,l),
(627,449,o),
(632,473,o),
(632,494,cs),
(632,557,o),
(592,619,o),
(513,619,cs),
(440,619,o),
(385,566,o),
(385,489,cs),
(385,433,o),
(416,395,o),
(436,372,cs),
(455,347,o),
(466,331,o),
(466,310,cs),
(466,281,o),
(440,266,o),
(403,266,c),
(412,191,l)
);
}
);
width = 1000;
}
);
unicode = 128066;
},
{
color = 6;
glyphname = mouth;
lastChange = "2023-08-31 09:36:21 +0000";
layers = (
{
guides = (
{
pos = (135,364);
}
);
layerId = "6DBDBFCA-DF26-4695-B281-FA25C6EAD80F";
shapes = (
{
closed = 1;
nodes = (
(702,81,o),
(868,184,o),
(954,364,c),
(894,496,o),
(765,595,o),
(652,595,cs),
(597,595,o),
(546,575,o),
(500,537,c),
(458,575,o),
(404,595,o),
(348,595,cs),
(236,595,o),
(105,495,o),
(46,364,c),
(125,187,o),
(295,81,o),
(500,81,cs)
);
},
{
closed = 1;
nodes = (
(343,167,o),
(218,237,o),
(144,365,c),
(208,460,o),
(279,511,o),
(350,511,cs),
(398,511,o),
(438,491,o),
(479,448,cs),
(488,439,o),
(492,437,o),
(499,437,cs),
(506,437,o),
(511,440,o),
(519,448,cs),
(563,492,o),
(602,511,o),
(650,511,cs),
(724,511,o),
(803,455,o),
(857,364,c),
(783,237,o),
(657,167,o),
(500,167,cs)
);
},
{
closed = 1;
nodes = (
(632,298,o),
(758,307,o),
(879,324,c),
(877,394,l),
(754,379,o),
(628,372,o),
(499,372,cs),
(371,372,o),
(246,379,o),
(121,394,c),
(123,323,l),
(248,306,o),
(373,298,o),
(501,298,cs)
);
}
);
width = 1000;
}
);
unicode = 128068;
},
{
color = 6;
glyphname = pencil;
lastChange = "2023-08-31 09:36:21 +0000";
layers = (
{
layerId = "6DBDBFCA-DF26-4695-B281-FA25C6EAD80F";
shapes = (
{
closed = 1;
nodes = (
(842,569,l),
(716,695,l),
(539,748,l),
(193,402,l),
(126,0,l),
(532,58,l),
(874,400,l)
);
},
{
closed = 1;
nodes = (
(747,526,o),
(744,543,o),
(711,578,cs),
(678,611,o),
(661,614,o),
(652,605,cs),
(642,596,o),
(645,579,o),
(679,545,cs),
(713,512,o),
(729,509,o),
(738,517,cs)
);
},
{
closed = 1;
nodes = (
(829,438,l),
(721,481,l),
(620,582,l),
(582,693,l),
(514,663,l),
(557,541,l),
(680,419,l),
(798,373,l)
);
},
{
closed = 1;
nodes = (
(684,488,l),
(392,197,l),
(442,146,l),
(733,438,l)
);
},
{
closed = 1;
nodes = (
(489,122,l),
(303,95,l),
(266,107,o),
(239,126,o),
(224,173,c),
(258,367,l),
(562,671,l),
(674,634,l),
(774,534,l),
(799,425,l)
);
},
{
closed = 1;
nodes = (
(569,602,l),
(278,311,l),
(327,260,l),
(619,552,l)
);
},
{
closed = 1;
nodes = (
(531,140,l),
(423,183,l),
(322,284,l),
(277,416,l),
(225,402,l),
(274,258,l),
(396,135,l),
(514,89,l)
);
}
);
width = 1000;
}
);
unicode = 9999;
},
{
color = 3;
glyphname = at;
lastChange = "2023-08-31 09:36:21 +0000";
layers = (
{
layerId = "6DBDBFCA-DF26-4695-B281-FA25C6EAD80F";
shapes = (
{
closed = 1;
nodes = (
(708,-298,o),
(780,-290,o),
(833,-273,c),
(838,-247,o),
(834,-210,o),
(816,-190,c),
(748,-205,o),
(700,-208,o),
(655,-208,cs),
(382,-208,o),
(196,-28,o),
(196,247,cs),
(196,493,o),
(374,684,o),
(627,684,cs),
(867,684,o),
(1040,514,o),
(1040,271,cs),
(1040,144,o),
(967,72,o),
(882,72,c),
(875,-14,l),
(1012,-14,o),
(1136,65,o),
(1136,275,cs),
(1136,566,o),
(916,774,o),
(628,774,cs),
(323,774,o),
(100,539,o),
(100,243,cs),
(100,-86,o),
(322,-298,o),
(648,-298,cs)
);
},
{
pos = (340,0);
ref = a.init;
}
);
width = 1236;
}
);
unicode = 64;
},
{
color = 3;
glyphname = ampersand;
lastChange = "2023-08-31 09:36:21 +0000";
layers = (
{
layerId = "6DBDBFCA-DF26-4695-B281-FA25C6EAD80F";
shapes = (
{
closed = 1;
nodes = (
(245,72,o),
(173,124,o),
(173,214,cs),
(173,289,o),
(233,334,o),
(312,334,cs),
(358,334,l),
(365,352,o),
(364,394,o),
(356,416,c),
(312,416,ls),
(229,416,o),
(173,462,o),
(173,532,cs),
(173,605,o),
(233,650,o),
(322,650,cs),
(402,650,o),
(456,614,o),
(472,547,c),
(511,547,o),
(540,555,o),
(563,573,c),
(535,679,o),
(452,736,o),
(326,736,cs),
(177,736,o),
(79,655,o),
(79,532,cs),
(79,453,o),
(118,391,o),
(189,358,c),
(190,385,l),
(119,351,o),
(79,289,o),
(79,208,cs),
(79,78,o),
(184,-14,o),
(357,-14,cs),
(568,-14,o),
(665,123,o),
(665,271,cs),
(665,397,o),
(595,441,o),
(553,441,cs),
(515,441,o),
(477,399,o),
(468,345,c),
(499,315,o),
(560,293,o),
(611,284,c),
(578,334,l),
(581,309,o),
(582,299,o),
(582,285,cs),
(582,163,o),
(503,72,o),
(360,72,cs)
);
},
{
pos = (530,-38);
ref = _part.b.fin;
}
);
width = 834;
}
);
unicode = 38;
},
{
color = 6;
glyphname = paragraph;
lastChange = "2023-08-31 09:36:21 +0000";
layers = (
{
layerId = "6DBDBFCA-DF26-4695-B281-FA25C6EAD80F";
shapes = (
{
closed = 1;
nodes = (
(654,-257,o),
(669,-255,o),
(681,-250,c),
(681,722,l),
(373,722,ls),
(189,722,o),
(70,638,o),
(70,469,cs),
(70,296,o),
(193,211,o),
(382,211,cs),
(424,211,l),
(424,-250,l),
(456,-259,o),
(490,-259,o),
(518,-250,c),
(518,635,l),
(595,635,l),
(595,-250,l),
(609,-255,o),
(622,-257,o),
(638,-257,cs)
);
}
);
width = 761;
}
);
unicode = 182;
},
{
color = 6;
glyphname = section;
lastChange = "2023-08-31 09:36:21 +0000";
layers = (
{
layerId = "6DBDBFCA-DF26-4695-B281-FA25C6EAD80F";
shapes = (
{
closed = 1;
nodes = (
(448,25,l),
(506,61,o),
(542,122,o),
(542,198,cs),
(542,295,o),
(485,368,o),
(391,393,cs),
(273,425,ls),
(206,444,o),
(170,482,o),
(170,534,cs),
(170,601,o),
(227,647,o),
(310,647,cs),
(378,647,o),
(432,617,o),
(464,562,c),
(496,572,o),
(526,595,o),
(538,617,c),
(504,688,o),
(415,735,o),
(313,735,cs),
(176,735,o),
(76,648,o),
(76,528,cs),
(76,438,o),
(132,370,o),
(226,344,cs),
(359,307,ls),
(417,291,o),
(448,253,o),
(448,197,cs),
(448,152,o),
(428,118,o),
(394,97,c)
);
},
{
closed = 1;
nodes = (
(158,448,l),
(98,412,o),
(60,351,o),
(60,277,cs),
(60,187,o),
(116,119,o),
(210,93,cs),
(343,56,ls),
(401,40,o),
(432,2,o),
(432,-54,cs),
(432,-129,o),
(375,-175,o),
(290,-176,cs),
(210,-177,o),
(152,-139,o),
(128,-67,c),
(99,-64,o),
(61,-82,o),
(46,-107,c),
(73,-202,o),
(155,-263,o),
(285,-264,cs),
(423,-265,o),
(526,-182,o),
(526,-53,cs),
(526,44,o),
(469,117,o),
(375,142,cs),
(257,174,ls),
(190,193,o),
(154,231,o),
(154,283,cs),
(154,331,o),
(184,369,o),
(231,386,c)
);
}
);
width = 588;
}
);
unicode = 167;
},
{
color = 3;
glyphname = copyright;
lastChange = "2023-08-31 09:36:21 +0000";
layers = (
{
layerId = "6DBDBFCA-DF26-4695-B281-FA25C6EAD80F";
shapes = (
{
ref = largeCircle;
},
{
closed = 1;
nodes = (
(499,184,o),
(549,206,o),
(574,243,c),
(568,267,o),
(547,286,o),
(524,289,c),
(508,268,o),
(476,256,o),
(444,256,cs),
(386,256,o),
(346,296,o),
(346,361,cs),
(346,424,o),
(387,466,o),
(441,466,cs),
(475,466,o),
(500,454,o),
(520,427,c),
(546,433,o),
(565,450,o),
(571,472,c),
(546,512,o),
(499,538,o),
(441,538,cs),
(343,538,o),
(270,466,o),
(270,360,cs),
(270,253,o),
(342,184,o),
(442,184,cs)
);
}
);
width = 870;
}
);
unicode = 169;
},
{
color = 6;
glyphname = registered;
lastChange = "2023-08-31 09:36:21 +0000";
layers = (
{
layerId = "6DBDBFCA-DF26-4695-B281-FA25C6EAD80F";
shapes = (
{
closed = 1;
nodes = (
(513,408,o),
(638,534,o),
(638,698,cs),
(638,861,o),
(513,986,o),
(350,986,cs),
(186,986,o),
(60,861,o),
(60,698,cs),
(60,534,o),
(186,408,o),
(350,408,cs)
);
},
{
closed = 1;
nodes = (
(229,481,o),
(140,573,o),
(140,697,cs),
(140,821,o),
(229,913,o),
(349,913,cs),
(468,913,o),
(558,821,o),
(558,697,cs),
(558,573,o),
(468,481,o),
(349,481,cs)
);
},
{
closed = 1;
nodes = (
(296,565,o),
(311,572,c),
(311,825,l),
(290,786,l),
(356,786,ls),
(380,786,o),
(398,775,o),
(398,751,cs),
(398,726,o),
(380,712,o),
(355,712,cs),
(292,712,l),
(292,654,l),
(348,654,ls),
(418,654,o),
(465,696,o),
(465,753,cs),
(465,807,o),
(425,844,o),
(356,844,cs),
(249,844,l),
(249,572,l),
(264,565,o)
);
},
{
closed = 1;
nodes = (
(443,568,o),
(462,586,o),
(467,604,c),
(368,701,l),
(322,663,l),
(423,563,l)
);
}
);
width = 698;
}
);
unicode = 174;
},
{
color = 6;
glyphname = trademark;
lastChange = "2023-08-31 09:36:21 +0000";
layers = (
{
layerId = "6DBDBFCA-DF26-4695-B281-FA25C6EAD80F";
shapes = (
{
closed = 1;
nodes = (
(407,513,o),
(429,513,o),
(453,518,c),
(453,816,l),
(412,813,l),
(537,582,l),
(556,577,o),
(579,577,o),
(603,582,c),
(727,813,l),
(686,815,l),
(686,518,l),
(709,513,o),
(732,513,o),
(756,518,c),
(756,893,l),
(744,896,o),
(714,899,o),
(696,893,c),
(548,619,l),
(592,619,l),
(444,893,l),
(423,898,o),
(396,896,o),
(383,893,c),
(383,518,l)
);
},
{
closed = 1;
nodes = (
(163,514,o),
(181,514,o),
(208,518,c),
(208,845,l),
(136,845,l),
(136,518,l)
);
},
{
closed = 1;
nodes = (
(328,826,l),
(334,847,o),
(334,876,o),
(328,893,c),
(14,893,l),
(8,874,o),
(8,849,o),
(14,826,c)
);
}
);
width = 836;
}
);
unicode = 8482;
},
{
color = 6;
glyphname = degree;
kernLeft = sups;
kernRight = sups;
lastChange = "2023-08-31 09:36:21 +0000";
layers = (
{
layerId = "6DBDBFCA-DF26-4695-B281-FA25C6EAD80F";
shapes = (
{
closed = 1;
nodes = (
(364,358,o),
(446,442,o),
(446,547,cs),
(446,652,o),
(365,736,o),
(258,736,cs),
(151,736,o),
(68,652,o),
(68,547,cs),
(68,442,o),
(152,358,o),
(258,358,cs)
);
},
{
closed = 1;
nodes = (
(197,438,o),
(152,486,o),
(152,547,cs),
(152,607,o),
(197,656,o),
(258,656,cs),
(318,656,o),
(364,607,o),
(364,547,cs),
(364,486,o),
(318,438,o),
(258,438,cs)
);
}
);
width = 514;
}
);
unicode = 176;
},
{
color = 6;
glyphname = bar;
lastChange = "2023-08-31 09:36:21 +0000";
layers = (
{
layerId = "6DBDBFCA-DF26-4695-B281-FA25C6EAD80F";
shapes = (
{
closed = 1;
nodes = (
(211,-271,o),
(225,-269,o),
(239,-264,c),
(239,972,l),
(228,977,o),
(214,979,o),
(197,979,cs),
(183,979,o),
(170,977,o),
(154,972,c),
(154,-264,l),
(168,-269,o),
(181,-271,o),
(197,-271,cs)
);
}
);
width = 393;
}
);
unicode = 124;
},
{
color = 6;
glyphname = brokenbar;
lastChange = "2023-08-31 09:36:21 +0000";
layers = (
{
layerId = "6DBDBFCA-DF26-4695-B281-FA25C6EAD80F";
shapes = (
{
closed = 1;
nodes = (
(211,479,o),
(225,481,o),
(239,486,c),
(239,972,l),
(228,977,o),
(214,979,o),
(197,979,cs),
(183,979,o),
(170,977,o),
(154,972,c),
(154,486,l),
(168,481,o),
(181,479,o),
(197,479,cs)
);
},
{
closed = 1;
nodes = (
(211,-271,o),
(225,-269,o),
(239,-264,c),
(239,222,l),
(228,227,o),
(214,229,o),
(197,229,cs),
(183,229,o),
(170,227,o),
(154,222,c),
(154,-264,l),
(168,-269,o),
(181,-271,o),
(197,-271,cs)
);
}
);
width = 393;
}
);
unicode = 166;
},
{
color = 6;
glyphname = cent;
lastChange = "2023-08-31 09:36:21 +0000";
layers = (
{
layerId = "6DBDBFCA-DF26-4695-B281-FA25C6EAD80F";
shapes = (
{
closed = 1;
nodes = (
(428,84,o),
(506,116,o),
(547,167,c),
(539,192,o),
(516,220,o),
(488,229,c),
(455,192,o),
(400,170,o),
(339,170,cs),
(220,170,o),
(148,247,o),
(148,370,cs),
(148,493,o),
(220,568,o),
(338,568,cs),
(393,568,o),
(440,550,o),
(476,515,c),
(507,525,o),
(529,557,o),
(532,582,c),
(488,627,o),
(414,654,o),
(336,654,cs),
(169,654,o),
(60,540,o),
(60,369,cs),
(60,197,o),
(172,84,o),
(341,84,cs)
);
},
{
closed = 1;
nodes = (
(333,-51,o),
(346,-49,o),
(359,-44,c),
(359,782,l),
(348,787,o),
(336,789,o),
(320,789,cs),
(307,789,o),
(295,787,o),
(280,782,c),
(280,-44,l),
(293,-49,o),
(305,-51,o),
(320,-51,cs)
);
}
);
width = 597;
}
);
unicode = 162;
},
{
color = 3;
glyphname = dollar;
lastChange = "2023-08-31 09:36:21 +0000";
layers = (
{
layerId = "6DBDBFCA-DF26-4695-B281-FA25C6EAD80F";
shapes = (
{
ref = S;
},
{
closed = 1;
nodes = (
(310,-141,o),
(323,-139,o),
(336,-134,c),
(336,882,l),
(325,887,o),
(313,889,o),
(297,889,cs),
(284,889,o),
(272,887,o),
(257,882,c),
(257,-134,l),
(270,-139,o),
(282,-141,o),
(297,-141,cs)
);
}
);
width = 590;
}
);
unicode = 36;
},
{
color = 6;
glyphname = dong;
lastChange = "2023-09-19 16:32:28 +0000";
layers = (
{
layerId = "6DBDBFCA-DF26-4695-B281-FA25C6EAD80F";
shapes = (
{
closed = 1;
nodes = (
(374,158,o),
(449,208,o),
(476,314,c),
(438,299,l),
(438,156,l),
(469,146,o),
(496,146,o),
(521,156,c),
(521,880,l),
(506,885,o),
(492,887,o),
(476,887,cs),
(459,887,o),
(442,884,o),
(430,880,c),
(430,399,ls),
(430,304,o),
(368,244,o),
(295,244,cs),
(225,244,o),
(179,299,o),
(179,380,cs),
(179,465,o),
(230,532,o),
(314,532,cs),
(369,532,o),
(415,502,o),
(438,453,c),
(440,557,l),
(409,595,o),
(357,618,o),
(299,618,cs),
(174,618,o),
(86,513,o),
(86,381,cs),
(86,253,o),
(168,158,o),
(287,158,cs)
);
},
{
closed = 1;
nodes = (
(569,0,l),
(579,21,o),
(579,59,o),
(569,80,c),
(114,80,l),
(105,59,o),
(105,21,o),
(114,0,c)
);
},
{
closed = 1;
nodes = (
(596,702,l),
(606,723,o),
(606,761,o),
(596,782,c),
(291,782,l),
(282,761,o),
(282,723,o),
(291,702,c)
);
}
);
width = 633;
}
);
unicode = 8363;
},
{
color = 3;
glyphname = euro;
lastChange = "2023-08-31 09:36:21 +0000";
layers = (
{
anchors = (
{
name = bottom;
pos = (506,0);
}
);
layerId = "6DBDBFCA-DF26-4695-B281-FA25C6EAD80F";
shapes = (
{
closed = 1;
nodes = (
(617,-14,o),
(713,25,o),
(764,88,c),
(753,111,o),
(725,140,o),
(704,150,c),
(660,103,o),
(588,75,o),
(510,75,cs),
(354,75,o),
(258,185,o),
(258,362,cs),
(258,538,o),
(354,647,o),
(508,647,cs),
(581,647,o),
(641,624,o),
(690,577,c),
(714,590,o),
(740,624,o),
(745,648,c),
(691,703,o),
(607,736,o),
(504,736,cs),
(295,736,o),
(163,586,o),
(163,361,cs),
(163,134,o),
(298,-14,o),
(510,-14,cs)
);
},
{
pos = (-55,73);
ref = minus;
},
{
pos = (-55,-99);
ref = minus;
}
);
width = 806;
}
);
unicode = 8364;
},
{
color = 6;
glyphname = sterling;
lastChange = "2023-08-31 09:36:21 +0000";
layers = (
{
background = {
shapes = (
{
pos = (47,0);
ref = two;
}
);
};
layerId = "6DBDBFCA-DF26-4695-B281-FA25C6EAD80F";
shapes = (
{
closed = 1;
nodes = (
(191,593,o),
(246,641,o),
(330,641,cs),
(416,641,o),
(467,587,o),
(468,495,c),
(500,492,o),
(531,496,o),
(560,508,c),
(553,638,o),
(462,730,o),
(331,730,cs),
(196,730,o),
(97,639,o),
(97,516,cs),
(97,478,o),
(104,453,o),
(132,385,cs),
(160,318,o),
(167,294,o),
(167,261,cs),
(167,195,o),
(127,118,o),
(69,73,c),
(70,43,o),
(80,16,o),
(97,-1,c),
(129,6,o),
(182,11,o),
(225,11,cs),
(256,11,o),
(274,9,o),
(329,-2,cs),
(366,-9,o),
(407,-14,o),
(437,-14,cs),
(493,-14,o),
(553,2,o),
(585,25,c),
(585,58,o),
(576,82,o),
(556,102,c),
(513,83,o),
(466,73,o),
(421,73,cs),
(401,73,o),
(390,74,o),
(342,83,cs),
(297,91,o),
(275,94,o),
(252,94,cs),
(226,94,o),
(205,91,o),
(164,83,c),
(180,65,l),
(231,123,o),
(259,193,o),
(259,260,cs),
(259,295,o),
(251,327,o),
(222,400,cs),
(198,461,o),
(191,488,o),
(191,520,cs)
);
},
{
closed = 1;
nodes = (
(405,286,l),
(414,308,o),
(414,346,o),
(405,367,c),
(67,367,l),
(58,346,o),
(58,308,o),
(67,286,c)
);
}
);
width = 630;
}
);
unicode = 163;
},
{
color = 3;
glyphname = plus;
lastChange = "2023-08-31 09:36:21 +0000";
layers = (
{
layerId = "6DBDBFCA-DF26-4695-B281-FA25C6EAD80F";
shapes = (
{
closed = 1;
nodes = (
(329,125,o),
(370,125,o),
(392,134,c),
(392,611,l),
(370,620,o),
(329,620,o),
(307,611,c),
(307,134,l)
);
},
{
ref = minus;
}
);
width = 700;
}
);
metricWidth = "=700";
unicode = 43;
},
{
color = 6;
glyphname = minus;
lastChange = "2023-08-31 09:36:21 +0000";
layers = (
{
layerId = "6DBDBFCA-DF26-4695-B281-FA25C6EAD80F";
shapes = (
{
closed = 1;
nodes = (
(589,332,l),
(598,354,o),
(598,392,o),
(589,413,c),
(112,413,l),
(103,392,o),
(103,354,o),
(112,332,c)
);
}
);
width = 700;
}
);
metricWidth = "=700";
unicode = 8722;
},
{
color = 3;
glyphname = notequal;
lastChange = "2023-08-31 09:36:21 +0000";
layers = (
{
guides = (
{
pos = (130,0);
},
{
pos = (64,534);
}
);
layerId = "6DBDBFCA-DF26-4695-B281-FA25C6EAD80F";
shapes = (
{
ref = equal;
},
{
closed = 1;
nodes = (
(206,66,o),
(230,53,o),
(267,53,c),
(514,659,l),
(500,678,o),
(461,694,o),
(435,692,c),
(187,88,l)
);
}
);
width = 700;
}
);
metricWidth = "=700";
unicode = 8800;
},
{
color = 6;
glyphname = greater;
lastChange = "2023-08-31 09:36:21 +0000";
layers = (
{
layerId = "6DBDBFCA-DF26-4695-B281-FA25C6EAD80F";
shapes = (
{
closed = 1;
nodes = (
(546,343,l),
(551,365,o),
(551,380,o),
(546,403,c),
(210,618,l),
(182,606,o),
(165,583,o),
(165,548,c),
(477,349,l),
(477,397,l),
(165,194,l),
(165,157,o),
(183,134,o),
(207,123,c)
);
}
);
width = 700;
}
);
metricWidth = "=700";
unicode = 62;
},
{
color = 6;
glyphname = asciitilde;
lastChange = "2023-08-31 09:36:21 +0000";
layers = (
{
layerId = "6DBDBFCA-DF26-4695-B281-FA25C6EAD80F";
shapes = (
{
closed = 1;
nodes = (
(542,280,o),
(590,341,o),
(603,421,c),
(584,440,o),
(554,449,o),
(522,444,c),
(515,394,o),
(492,366,o),
(458,366,cs),
(430,366,o),
(413,377,o),
(370,404,cs),
(310,441,o),
(280,456,o),
(235,456,cs),
(165,456,o),
(104,400,o),
(97,317,c),
(114,297,o),
(141,288,o),
(177,291,c),
(184,346,o),
(206,370,o),
(238,370,cs),
(263,370,o),
(275,363,o),
(343,323,cs),
(386,298,o),
(421,280,o),
(467,280,cs)
);
}
);
width = 700;
}
);
metricWidth = "=700";
unicode = 126;
},
{
color = 6;
glyphname = logicalnot;
lastChange = "2023-08-31 09:36:21 +0000";
layers = (
{
layerId = "6DBDBFCA-DF26-4695-B281-FA25C6EAD80F";
shapes = (
{
closed = 1;
nodes = (
(525,332,l),
(525,168,l),
(555,156,o),
(584,156,o),
(610,168,c),
(610,413,l),
(112,413,l),
(103,392,o),
(103,354,o),
(112,332,c)
);
}
);
width = 700;
}
);
metricWidth = "=700";
unicode = 172;
},
{
color = 6;
glyphname = asciicircum;
lastChange = "2023-08-31 09:36:21 +0000";
layers = (
{
layerId = "6DBDBFCA-DF26-4695-B281-FA25C6EAD80F";
shapes = (
{
closed = 1;
nodes = (
(374,745,l),
(326,745,l),
(488,493,l),
(525,493,o),
(548,511,o),
(559,535,c),
(380,814,l),
(358,819,o),
(343,819,o),
(320,814,c),
(141,535,l),
(153,507,o),
(176,490,o),
(211,490,c)
);
}
);
width = 700;
}
);
metricWidth = "=700";
unicode = 94;
},
{
color = 6;
glyphname = rightArrow;
lastChange = "2023-08-31 09:36:21 +0000";
layers = (
{
layerId = "6DBDBFCA-DF26-4695-B281-FA25C6EAD80F";
shapes = (
{
closed = 1;
nodes = (
(64,384,o),
(64,341,o),
(75,318,c),
(341,318,o),
(445,324,o),
(629,340,c),
(635,352,o),
(635,374,o),
(629,384,c),
(445,401,o),
(341,406,o),
(75,406,c)
);
},
{
closed = 1;
nodes = (
(474,368,l),
(629,384,l),
(458,537,l),
(442,538,o),
(425,527,o),
(419,516,c)
);
},
{
closed = 1;
nodes = (
(425,197,o),
(442,186,o),
(458,187,c),
(629,340,l),
(474,356,l),
(419,208,l)
);
}
);
width = 700;
},
{
associatedMasterId = "6DBDBFCA-DF26-4695-B281-FA25C6EAD80F";
layerId = "0A52D7EE-F70F-495C-AF6E-F355434AFF3A";
name = "23. Jun 23 at 16:08";
shapes = (
{
closed = 1;
nodes = (
(610,325,l),
(621,355,o),
(620,384,o),
(610,412,c),
(83,412,l),
(73,384,o),
(72,355,o),
(83,325,c)
);
},
{
closed = 1;
nodes = (
(548,360,l),
(577,374,o),
(597,385,o),
(610,412,c),
(445,577,l),
(418,564,o),
(397,544,o),
(383,515,c)
);
},
{
closed = 1;
nodes = (
(397,193,o),
(418,173,o),
(445,160,c),
(610,325,l),
(597,352,o),
(577,363,o),
(548,377,c),
(383,222,l)
);
}
);
width = 700;
},
{
associatedMasterId = "6DBDBFCA-DF26-4695-B281-FA25C6EAD80F";
layerId = "4BA5AB42-6513-40A9-9D7C-DF1EE8079BC7";
name = "23. Jun 23 at 16:16";
shapes = (
{
closed = 1;
nodes = (
(72,392,o),
(72,346,o),
(83,319,c),
(360,319,o),
(457,327,o),
(644,353,c),
(647,361,o),
(647,373,o),
(644,381,c),
(457,407,o),
(360,415,o),
(83,415,c)
);
},
{
closed = 1;
nodes = (
(527,381,l),
(644,381,l),
(445,577,l),
(408,569,o),
(392,546,o),
(383,517,c)
);
},
{
closed = 1;
nodes = (
(392,188,o),
(408,165,o),
(445,157,c),
(644,353,l),
(527,353,l),
(383,217,l)
);
}
);
width = 700;
}
);
metricWidth = "=700";
unicode = 8594;
},
{
color = 6;
glyphname = leftRightDoubleArrow;
lastChange = "2023-09-15 13:08:22 +0000";
layers = (
{
layerId = "6DBDBFCA-DF26-4695-B281-FA25C6EAD80F";
shapes = (
{
closed = 1;
nodes = (
(593,208,l),
(599,197,o),
(616,186,o),
(632,187,c),
(803,340,l),
(809,352,o),
(809,374,o),
(803,384,c),
(632,537,l),
(616,538,o),
(599,527,o),
(593,516,c),
(650,362,l)
);
},
{
closed = 1;
nodes = (
(257,516,l),
(251,527,o),
(234,538,o),
(218,537,c),
(47,384,l),
(41,374,o),
(41,352,o),
(47,340,c),
(218,187,l),
(234,186,o),
(251,197,o),
(257,208,c),
(200,362,l)
);
},
{
closed = 1;
nodes = (
(339,337,o),
(264,335,o),
(200,332,c),
(200,293,l),
(264,290,o),
(339,288,o),
(425,288,cs),
(511,288,o),
(586,290,o),
(650,293,c),
(650,332,l),
(586,335,o),
(511,337,o),
(425,337,cs)
);
},
{
closed = 1;
nodes = (
(339,437,o),
(264,435,o),
(200,432,c),
(200,393,l),
(264,390,o),
(339,388,o),
(425,388,cs),
(511,388,o),
(586,390,o),
(650,393,c),
(650,432,l),
(586,435,o),
(511,437,o),
(425,437,cs)
);
}
);
width = 850;
}
);
unicode = 8660;
},
{
color = 6;
glyphname = circle;
lastChange = "2023-08-31 09:36:21 +0000";
layers = (
{
layerId = "6DBDBFCA-DF26-4695-B281-FA25C6EAD80F";
shapes = (
{
closed = 1;
nodes = (
(452,-14,o),
(560,95,o),
(560,237,cs),
(560,378,o),
(452,486,o),
(311,486,cs),
(169,486,o),
(60,378,o),
(60,237,cs),
(60,95,o),
(169,-14,o),
(311,-14,cs)
);
},
{
closed = 1;
nodes = (
(213,61,o),
(140,136,o),
(140,236,cs),
(140,336,o),
(213,411,o),
(310,411,cs),
(407,411,o),
(480,335,o),
(480,236,cs),
(480,137,o),
(407,61,o),
(310,61,cs)
);
}
);
width = 620;
}
);
unicode = 9675;
},
{
color = 6;
glyphname = largeCircle;
lastChange = "2023-08-31 09:36:21 +0000";
layers = (
{
layerId = "6DBDBFCA-DF26-4695-B281-FA25C6EAD80F";
shapes = (
{
closed = 1;
nodes = (
(647,-14,o),
(810,150,o),
(810,362,cs),
(810,573,o),
(646,736,o),
(435,736,cs),
(224,736,o),
(60,573,o),
(60,362,cs),
(60,150,o),
(223,-14,o),
(435,-14,cs)
);
},
{
closed = 1;
nodes = (
(270,66,o),
(145,194,o),
(145,362,cs),
(145,529,o),
(271,656,o),
(435,656,cs),
(599,656,o),
(725,529,o),
(725,362,cs),
(725,194,o),
(600,66,o),
(435,66,cs)
);
}
);
width = 870;
}
);
unicode = 9711;
},
{
color = 6;
glyphname = dottedCircle;
lastChange = "2023-08-31 09:36:21 +0000";
layers = (
{
anchors = (
{
name = bottom;
pos = (476,0);
},
{
name = center;
pos = (476,362);
},
{
name = top;
pos = (476,722);
}
);
layerId = "6DBDBFCA-DF26-4695-B281-FA25C6EAD80F";
shapes = (
{
closed = 1;
nodes = (
);
},
{
closed = 1;
nodes = (
(629,616,o),
(650,637,o),
(650,663,cs),
(650,689,o),
(629,710,o),
(601,710,cs),
(572,710,o),
(552,689,o),
(552,663,cs),
(552,637,o),
(572,616,o),
(601,616,cs)
);
},
{
closed = 1;
nodes = (
(735,545,o),
(756,566,o),
(756,592,cs),
(756,618,o),
(735,639,o),
(707,639,cs),
(678,639,o),
(658,618,o),
(658,592,cs),
(658,566,o),
(678,545,o),
(707,545,cs)
);
},
{
closed = 1;
nodes = (
(806,438,o),
(827,459,o),
(827,485,cs),
(827,511,o),
(806,532,o),
(778,532,cs),
(749,532,o),
(729,511,o),
(729,485,cs),
(729,459,o),
(749,438,o),
(778,438,cs)
);
},
{
closed = 1;
nodes = (
(831,315,o),
(852,336,o),
(852,362,cs),
(852,388,o),
(831,409,o),
(803,409,cs),
(774,409,o),
(754,388,o),
(754,362,cs),
(754,336,o),
(774,315,o),
(803,315,cs)
);
},
{
closed = 1;
nodes = (
(380,616,o),
(400,637,o),
(400,663,cs),
(400,689,o),
(380,710,o),
(351,710,cs),
(323,710,o),
(302,689,o),
(302,663,cs),
(302,637,o),
(323,616,o),
(351,616,cs)
);
},
{
closed = 1;
nodes = (
(274,545,o),
(294,566,o),
(294,592,cs),
(294,618,o),
(274,639,o),
(245,639,cs),
(217,639,o),
(196,618,o),
(196,592,cs),
(196,566,o),
(217,545,o),
(245,545,cs)
);
},
{
closed = 1;
nodes = (
(203,438,o),
(223,459,o),
(223,485,cs),
(223,511,o),
(203,532,o),
(174,532,cs),
(146,532,o),
(125,511,o),
(125,485,cs),
(125,459,o),
(146,438,o),
(174,438,cs)
);
},
{
closed = 1;
nodes = (
(178,315,o),
(198,336,o),
(198,362,cs),
(198,388,o),
(178,409,o),
(149,409,cs),
(121,409,o),
(100,388,o),
(100,362,cs),
(100,336,o),
(121,315,o),
(149,315,cs)
);
},
{
closed = 1;
nodes = (
(572,108,o),
(552,87,o),
(552,61,cs),
(552,35,o),
(572,14,o),
(601,14,cs),
(629,14,o),
(650,35,o),
(650,61,cs),
(650,87,o),
(629,108,o),
(601,108,cs)
);
},
{
closed = 1;
nodes = (
(678,179,o),
(658,158,o),
(658,132,cs),
(658,106,o),
(678,85,o),
(707,85,cs),
(735,85,o),
(756,106,o),
(756,132,cs),
(756,158,o),
(735,179,o),
(707,179,cs)
);
},
{
closed = 1;
nodes = (
(749,286,o),
(729,265,o),
(729,239,cs),
(729,213,o),
(749,192,o),
(778,192,cs),
(806,192,o),
(827,213,o),
(827,239,cs),
(827,265,o),
(806,286,o),
(778,286,cs)
);
},
{
closed = 1;
nodes = (
(323,108,o),
(302,87,o),
(302,61,cs),
(302,35,o),
(323,14,o),
(351,14,cs),
(380,14,o),
(400,35,o),
(400,61,cs),
(400,87,o),
(380,108,o),
(351,108,cs)
);
},
{
closed = 1;
nodes = (
(217,179,o),
(196,158,o),
(196,132,cs),
(196,106,o),
(217,85,o),
(245,85,cs),
(274,85,o),
(294,106,o),
(294,132,cs),
(294,158,o),
(274,179,o),
(245,179,cs)
);
},
{
closed = 1;
nodes = (
(146,286,o),
(125,265,o),
(125,239,cs),
(125,213,o),
(146,192,o),
(174,192,cs),
(203,192,o),
(223,213,o),
(223,239,cs),
(223,265,o),
(203,286,o),
(174,286,cs)
);
},
{
closed = 1;
nodes = (
(504,-12,o),
(525,9,o),
(525,35,cs),
(525,61,o),
(504,82,o),
(476,82,cs),
(447,82,o),
(427,61,o),
(427,35,cs),
(427,9,o),
(447,-12,o),
(476,-12,cs)
);
},
{
closed = 1;
nodes = (
(504,641,o),
(525,662,o),
(525,688,cs),
(525,714,o),
(504,735,o),
(476,735,cs),
(447,735,o),
(427,714,o),
(427,688,cs),
(427,662,o),
(447,641,o),
(476,641,cs)
);
}
);
width = 926;
}
);
unicode = 9676;
},
{
color = 6;
glyphname = dieresiscomb.case;
lastChange = "2023-09-15 12:57:40 +0000";
layers = (
{
anchors = (
{
name = _top;
pos = (254,722);
}
);
layerId = "6DBDBFCA-DF26-4695-B281-FA25C6EAD80F";
shapes = (
{
closed = 1;
nodes = (
(388,813,o),
(417,840,o),
(417,876,cs),
(417,911,o),
(388,939,o),
(354,939,cs),
(319,939,o),
(291,911,o),
(291,876,cs),
(291,841,o),
(319,813,o),
(354,813,cs)
);
},
{
closed = 1;
nodes = (
(182,813,o),
(211,840,o),
(211,876,cs),
(211,911,o),
(182,939,o),
(147,939,cs),
(113,939,o),
(85,911,o),
(85,876,cs),
(85,841,o),
(113,813,o),
(147,813,cs)
);
}
);
width = 503;
}
);
},
{
color = 6;
glyphname = dieresiscomb.narrow;
lastChange = "2023-09-07 12:48:29 +0000";
layers = (
{
anchors = (
{
name = _top;
pos = (284,472);
}
);
layerId = "6DBDBFCA-DF26-4695-B281-FA25C6EAD80F";
shapes = (
{
closed = 1;
nodes = (
(231,629,o),
(254,659,o),
(254,697,cs),
(254,735,o),
(231,765,o),
(191,765,cs),
(151,765,o),
(128,735,o),
(128,697,cs),
(128,660,o),
(151,629,o),
(191,629,cs)
);
},
{
closed = 1;
nodes = (
(409,629,o),
(432,659,o),
(432,697,cs),
(432,735,o),
(409,765,o),
(369,765,cs),
(329,765,o),
(306,735,o),
(306,697,cs),
(306,660,o),
(329,629,o),
(369,629,cs)
);
}
);
width = 557;
}
);
},
{
color = 6;
glyphname = dotaccentcomb;
lastChange = "2023-09-15 15:36:04 +0000";
layers = (
{
anchors = (
{
name = _top;
pos = (159,472);
}
);
layerId = "6DBDBFCA-DF26-4695-B281-FA25C6EAD80F";
shapes = (
{
closed = 1;
nodes = (
(199,616,o),
(228,645,o),
(228,684,cs),
(228,724,o),
(200,752,o),
(160,752,cs),
(121,752,o),
(92,724,o),
(92,684,cs),
(92,646,o),
(122,616,o),
(160,616,cs)
);
}
);
width = 316;
}
);
unicode = 775;
},
{
color = 6;
glyphname = gravecomb;
lastChange = "2023-09-15 15:35:21 +0000";
layers = (
{
anchors = (
{
name = _top;
pos = (249,472);
}
);
layerId = "6DBDBFCA-DF26-4695-B281-FA25C6EAD80F";
shapes = (
{
closed = 1;
nodes = (
(329,589,o),
(348,616,o),
(356,644,c),
(294,687,o),
(220,752,o),
(191,795,c),
(160,787,o),
(135,766,o),
(123,740,c),
(152,695,o),
(227,621,o),
(304,573,c)
);
}
);
width = 460;
}
);
unicode = 768;
},
{
color = 6;
glyphname = gravecomb.case;
lastChange = "2023-09-15 15:37:15 +0000";
layers = (
{
anchors = (
{
name = _top;
pos = (273,722);
}
);
layerId = "6DBDBFCA-DF26-4695-B281-FA25C6EAD80F";
shapes = (
{
closed = 1;
nodes = (
(372,815,o),
(382,847,o),
(381,876,c),
(309,897,o),
(209,946,o),
(168,978,c),
(141,961,o),
(123,933,o),
(121,905,c),
(161,871,o),
(265,814,o),
(353,793,c)
);
}
);
width = 503;
}
);
},
{
color = 6;
glyphname = acutecomb;
lastChange = "2023-09-15 15:35:23 +0000";
layers = (
{
anchors = (
{
name = _top;
pos = (211,472);
}
);
layerId = "6DBDBFCA-DF26-4695-B281-FA25C6EAD80F";
shapes = (
{
closed = 1;
nodes = (
(225,621,o),
(296,695,o),
(325,740,c),
(313,766,o),
(289,787,o),
(258,795,c),
(228,752,o),
(159,687,o),
(97,644,c),
(104,616,o),
(123,589,o),
(148,573,c)
);
}
);
width = 393;
}
);
unicode = 769;
},
{
color = 6;
glyphname = acutecomb.case;
lastChange = "2023-08-31 09:36:21 +0000";
layers = (
{
anchors = (
{
name = _top;
pos = (229,722);
}
);
layerId = "6DBDBFCA-DF26-4695-B281-FA25C6EAD80F";
shapes = (
{
closed = 1;
nodes = (
(237,814,o),
(341,871,o),
(381,905,c),
(379,933,o),
(361,961,o),
(334,978,c),
(293,946,o),
(193,897,o),
(121,876,c),
(120,847,o),
(130,815,o),
(149,793,c)
);
}
);
width = 503;
}
);
},
{
color = 6;
glyphname = circumflexcomb;
lastChange = "2023-09-15 15:53:04 +0000";
layers = (
{
anchors = (
{
name = _top;
pos = (274,472);
},
{
name = top;
pos = (274,770);
},
{
name = topright;
pos = (392,815);
}
);
background = {
shapes = (
{
closed = 1;
nodes = (
(416,587,o),
(444,614,o),
(452,640,c),
(403,683,o),
(345,746,o),
(304,802,c),
(281,805,o),
(265,805,o),
(243,802,c),
(201,746,o),
(143,683,o),
(95,640,c),
(103,614,o),
(130,587,o),
(152,580,c),
(188,605,o),
(261,683,o),
(298,736,c),
(247,736,l),
(285,683,o),
(358,606,o),
(393,580,c)
);
}
);
};
layerId = "6DBDBFCA-DF26-4695-B281-FA25C6EAD80F";
shapes = (
{
closed = 1;
nodes = (
(188,598,o),
(258,675,o),
(300,729,c),
(249,729,l),
(282,680,o),
(356,600,o),
(393,573,c),
(416,580,o),
(443,609,o),
(451,635,c),
(409,675,o),
(356,732,o),
(304,795,c),
(282,799,o),
(266,799,o),
(243,795,c),
(191,732,o),
(137,674,o),
(96,635,c),
(104,609,o),
(131,580,o),
(154,573,c)
);
}
);
width = 547;
}
);
unicode = 770;
},
{
color = 6;
glyphname = circumflexcomb.case;
lastChange = "2023-09-15 14:43:40 +0000";
layers = (
{
anchors = (
{
name = _top;
pos = (252,722);
},
{
name = top;
pos = (252,952);
},
{
name = topright;
pos = (361,1001);
}
);
background = {
shapes = (
{
closed = 1;
nodes = (
(171,935,o),
(145,905,o),
(71,860,c),
(72,832,o),
(85,805,o),
(112,793,c),
(162,812,o),
(223,860,o),
(274,917,c),
(227,915,l),
(282,860,o),
(339,815,o),
(388,793,c),
(412,809,o),
(427,833,o),
(431,863,c),
(366,904,o),
(329,936,o),
(286,973,c),
(262,979,o),
(238,979,o),
(214,973,c)
);
}
);
};
layerId = "6DBDBFCA-DF26-4695-B281-FA25C6EAD80F";
shapes = (
{
closed = 1;
nodes = (
(263,979,o),
(239,979,o),
(216,973,c),
(154,919,o),
(121,894,o),
(71,863,c),
(75,833,o),
(90,809,o),
(114,793,c),
(160,814,o),
(216,856,o),
(275,915,c),
(228,917,l),
(278,862,o),
(339,815,o),
(388,793,c),
(412,809,o),
(428,834,o),
(431,863,c),
(384,892,o),
(361,909,o),
(286,973,c)
);
}
);
width = 503;
}
);
},
{
color = 6;
glyphname = brevecomb;
lastChange = "2023-09-15 15:52:59 +0000";
layers = (
{
anchors = (
{
name = _top;
pos = (279,472);
},
{
name = top;
pos = (270,770);
}
);
background = {
shapes = (
{
ref = circumflexcomb;
}
);
};
layerId = "6DBDBFCA-DF26-4695-B281-FA25C6EAD80F";
shapes = (
{
closed = 1;
nodes = (
(376,573,o),
(441,637,o),
(452,753,c),
(430,768,o),
(395,773,o),
(367,766,c),
(357,695,o),
(327,658,o),
(270,658,cs),
(213,658,o),
(183,695,o),
(173,766,c),
(145,773,o),
(110,768,o),
(88,753,c),
(99,637,o),
(164,573,o),
(270,573,cs)
);
}
);
width = 557;
}
);
unicode = 774;
},
{
color = 6;
glyphname = brevecomb.case;
lastChange = "2023-09-15 14:43:51 +0000";
layers = (
{
anchors = (
{
name = _top;
pos = (279,722);
},
{
name = top;
pos = (279,952);
}
);
layerId = "6DBDBFCA-DF26-4695-B281-FA25C6EAD80F";
shapes = (
{
closed = 1;
nodes = (
(136,979,o),
(103,970,o),
(84,949,c),
(102,853,o),
(174,793,o),
(279,793,cs),
(384,793,o),
(456,853,o),
(474,949,c),
(455,970,o),
(422,979,o),
(390,972,c),
(374,909,o),
(337,878,o),
(279,878,cs),
(221,878,o),
(184,909,o),
(168,972,c)
);
}
);
width = 557;
}
);
},
{
color = 6;
glyphname = tildecomb;
lastChange = "2023-09-15 12:56:10 +0000";
layers = (
{
anchors = (
{
name = _top;
pos = (339,472);
}
);
background = {
shapes = (
{
closed = 1;
nodes = (
(284,683,o),
(294,674,o),
(328,652,cs),
(366,627,o),
(388,619,o),
(418,619,cs),
(469,619,o),
(516,659,o),
(531,715,c),
(519,735,o),
(497,745,o),
(470,743,c),
(450,714,o),
(435,701,o),
(413,701,cs),
(399,701,o),
(379,712,o),
(343,734,cs),
(299,760,o),
(283,764,o),
(258,764,cs),
(201,764,o),
(164,722,o),
(149,663,c),
(161,643,o),
(183,633,o),
(210,635,c),
(230,668,o),
(244,683,o),
(266,683,cs)
);
}
);
};
layerId = "6DBDBFCA-DF26-4695-B281-FA25C6EAD80F";
shapes = (
{
closed = 1;
nodes = (
(388,688,o),
(365,703,o),
(345,714,cs),
(318,729,o),
(293,740,o),
(264,740,cs),
(207,740,o),
(159,697,o),
(147,636,c),
(162,619,o),
(184,614,o),
(210,613,c),
(228,644,o),
(240,659,o),
(264,659,cs),
(284,659,o),
(308,645,o),
(336,631,cs),
(378,610,o),
(395,606,o),
(413,606,cs),
(474,606,o),
(516,650,o),
(529,711,c),
(514,727,o),
(493,734,o),
(466,734,c),
(449,703,o),
(439,688,o),
(410,688,cs)
);
}
);
width = 680;
}
);
unicode = 771;
},
{
color = 1;
glyphname = hookabovecomb;
lastChange = "2023-09-15 15:36:20 +0000";
layers = (
{
anchors = (
{
name = _top;
pos = (276,472);
}
);
layerId = "6DBDBFCA-DF26-4695-B281-FA25C6EAD80F";
shapes = (
{
closed = 1;
nodes = (
(247,617,o),
(254,590,o),
(267,573,c),
(360,585,o),
(417,632,o),
(417,699,cs),
(417,769,o),
(365,810,o),
(263,810,cs),
(211,810,o),
(157,798,o),
(127,784,c),
(126,755,o),
(137,726,o),
(152,709,c),
(187,722,o),
(222,729,o),
(257,729,cs),
(303,729,o),
(325,718,o),
(325,696,cs),
(325,673,o),
(301,658,o),
(248,644,c)
);
}
);
width = 550;
}
);
unicode = 777;
},
{
color = 1;
glyphname = horncomb;
lastChange = "2023-09-15 13:38:33 +0000";
layers = (
{
anchors = (
{
name = _horn;
pos = (56,440);
}
);
layerId = "6DBDBFCA-DF26-4695-B281-FA25C6EAD80F";
shapes = (
{
closed = 1;
nodes = (
(74,354,l),
(171,364,o),
(230,434,o),
(230,531,cs),
(230,546,o),
(229,561,o),
(226,577,c),
(200,586,o),
(173,585,o),
(145,572,c),
(147,559,o),
(148,547,o),
(148,535,cs),
(148,475,o),
(120,440,o),
(74,440,c)
);
}
);
width = 300;
}
);
unicode = 795;
},
{
color = 1;
glyphname = horncomb.case;
lastChange = "2023-09-15 13:43:47 +0000";
layers = (
{
anchors = (
{
name = _horn;
pos = (67,722);
}
);
layerId = "6DBDBFCA-DF26-4695-B281-FA25C6EAD80F";
shapes = (
{
closed = 1;
nodes = (
(70,635,l),
(173,639,o),
(234,702,o),
(234,806,cs),
(234,819,o),
(233,833,o),
(231,847,c),
(206,858,o),
(175,856,o),
(146,841,c),
(148,826,o),
(149,819,o),
(149,804,cs),
(149,746,o),
(121,719,o),
(61,715,c)
);
}
);
width = 300;
}
);
},
{
color = 6;
glyphname = cedillacomb;
lastChange = "2023-08-31 10:06:31 +0000";
layers = (
{
anchors = (
{
name = _bottom;
pos = (208,0);
}
);
layerId = "6DBDBFCA-DF26-4695-B281-FA25C6EAD80F";
shapes = (
{
closed = 1;
nodes = (
(286,-260,o),
(342,-218,o),
(342,-153,cs),
(342,-94,o),
(293,-55,o),
(210,-48,c),
(244,-69,l),
(249,7,l),
(169,7,l),
(162,-106,l),
(228,-111,o),
(258,-126,o),
(258,-151,cs),
(258,-175,o),
(235,-187,o),
(196,-187,cs),
(175,-187,o),
(153,-184,o),
(138,-180,c),
(123,-200,o),
(119,-225,o),
(127,-251,c),
(146,-257,o),
(173,-260,o),
(199,-260,cs)
);
}
);
width = 425;
}
);
unicode = 807;
},
{
color = 1;
export = 0;
glyphname = gravecomb.loclVIT;
lastChange = "2023-09-15 16:26:30 +0000";
layers = (
{
anchors = (
{
name = _top;
pos = (319,472);
},
{
name = _topright;
pos = (249,561);
}
);
layerId = "6DBDBFCA-DF26-4695-B281-FA25C6EAD80F";
shapes = (
{
closed = 1;
nodes = (
(239,694,o),
(210,673,o),
(198,646,c),
(314,503,l),
(343,512,o),
(370,534,o),
(380,561,c),
(268,699,l)
);
}
);
width = 550;
}
);
},
{
color = 1;
export = 0;
glyphname = acutecomb.loclVIT;
lastChange = "2023-09-15 16:26:30 +0000";
layers = (
{
anchors = (
{
name = _top;
pos = (250,472);
},
{
name = _topright;
pos = (198,563);
}
);
layerId = "6DBDBFCA-DF26-4695-B281-FA25C6EAD80F";
shapes = (
{
closed = 1;
nodes = (
(198,563,l),
(208,536,o),
(235,514,o),
(264,505,c),
(380,648,l),
(368,675,o),
(339,696,o),
(310,701,c)
);
}
);
width = 547;
}
);
},
{
color = 1;
export = 0;
glyphname = tildecomb.loclVIT;
lastChange = "2023-09-15 16:26:30 +0000";
layers = (
{
anchors = (
{
name = _top;
pos = (275,472);
},
{
name = top;
pos = (275,593);
}
);
guides = (
{
angle = 90;
pos = (164,895);
},
{
angle = 90;
pos = (510,895);
}
);
layerId = "6DBDBFCA-DF26-4695-B281-FA25C6EAD80F";
shapes = (
{
closed = 1;
nodes = (
(321,556,o),
(303,563,o),
(271,579,cs),
(238,596,o),
(228,601,o),
(215,601,cs),
(197,601,o),
(180,591,o),
(167,563,c),
(141,563,o),
(118,573,o),
(102,594,c),
(123,652,o),
(162,685,o),
(213,685,cs),
(242,685,o),
(257,675,o),
(283,661,cs),
(310,646,o),
(323,641,o),
(335,641,cs),
(353,641,o),
(371,650,o),
(383,679,c),
(409,679,o),
(432,669,o),
(448,648,c),
(427,589,o),
(391,556,o),
(343,556,cs)
);
}
);
width = 550;
}
);
},
{
color = 1;
export = 0;
glyphname = tildecomb.loclVIT.case;
lastChange = "2023-09-26 17:31:24 +0000";
layers = (
{
anchors = (
{
name = _top;
pos = (275,972);
},
{
name = top;
pos = (275,1093);
}
);
guides = (
{
angle = 90;
pos = (164,895);
},
{
angle = 90;
pos = (510,895);
}
);
layerId = "6DBDBFCA-DF26-4695-B281-FA25C6EAD80F";
shapes = (
{
closed = 1;
nodes = (
(334,1053,o),
(302,1067,o),
(269,1081,cs),
(239,1094,o),
(223,1099,o),
(206,1099,cs),
(184,1099,o),
(166,1089,o),
(152,1061,c),
(124,1061,o),
(100,1071,o),
(83,1092,c),
(107,1153,o),
(146,1183,o),
(202,1183,cs),
(236,1183,o),
(263,1171,o),
(289,1159,cs),
(320,1144,o),
(337,1138,o),
(356,1138,cs),
(376,1138,o),
(385,1148,o),
(397,1176,c),
(424,1176,o),
(449,1166,o),
(466,1145,c),
(444,1086,o),
(414,1053,o),
(365,1053,cs)
);
}
);
width = 550;
}
);
},
{
color = 1;
export = 0;
glyphname = hookabovecomb.loclVIT;
lastChange = "2023-09-15 16:26:30 +0000";
layers = (
{
anchors = (
{
name = _top;
pos = (272,472);
},
{
name = _topright;
pos = (205,566);
}
);
layerId = "6DBDBFCA-DF26-4695-B281-FA25C6EAD80F";
shapes = (
{
closed = 1;
nodes = (
(238,540,o),
(247,513,o),
(263,496,c),
(325,513,o),
(383,551,o),
(383,620,cs),
(383,681,o),
(338,723,o),
(252,723,cs),
(206,723,o),
(161,711,o),
(135,697,c),
(134,669,o),
(144,641,o),
(157,624,c),
(186,637,o),
(217,644,o),
(245,644,cs),
(279,644,o),
(294,632,o),
(294,612,cs),
(294,593,o),
(279,579,o),
(238,567,c)
);
}
);
width = 550;
}
);
},
{
color = 6;
export = 0;
glyphname = _part.A;
lastChange = "2023-08-31 09:36:21 +0000";
layers = (
{
layerId = "6DBDBFCA-DF26-4695-B281-FA25C6EAD80F";
shapes = (
{
closed = 1;
nodes = (
(324,575,ls),
(334,626,o),
(348,648,o),
(372,648,cs),
(394,648,o),
(406,630,o),
(418,575,cs),
(508,162,l),
(542,156,o),
(576,160,o),
(594,173,c),
(505,580,ls),
(481,689,o),
(442,734,o),
(373,734,cs),
(303,734,o),
(262,687,o),
(240,581,cs),
(157,173,l),
(186,156,o),
(214,153,o),
(243,162,c)
);
}
);
width = 695;
}
);
},
{
color = 6;
export = 0;
glyphname = _part.A.bar;
lastChange = "2023-08-31 09:36:21 +0000";
layers = (
{
layerId = "6DBDBFCA-DF26-4695-B281-FA25C6EAD80F";
shapes = (
{
closed = 1;
nodes = (
(152,381,o),
(97,372,o),
(51,360,c),
(38,332,o),
(49,293,o),
(66,278,c),
(101,288,o),
(145,299,o),
(208,299,c),
(208,381,l)
);
},
{
closed = 1;
nodes = (
(496,351,l),
(459,351,o),
(418,358,o),
(376,366,cs),
(334,374,o),
(292,381,o),
(254,381,c),
(249,299,l),
(285,299,o),
(328,292,o),
(370,284,cs),
(402,278,o),
(450,269,o),
(500,269,c)
);
},
{
closed = 1;
nodes = (
(595,270,o),
(650,279,o),
(696,291,c),
(709,319,o),
(698,358,o),
(681,373,c),
(646,363,o),
(602,352,o),
(539,352,c),
(539,270,l)
);
}
);
width = 695;
}
);
},
{
color = 6;
export = 0;
glyphname = _part.A.bar.ss04;
lastChange = "2023-08-31 09:36:21 +0000";
layers = (
{
layerId = "6DBDBFCA-DF26-4695-B281-FA25C6EAD80F";
shapes = (
{
closed = 1;
nodes = (
(145,282,o),
(171,305,o),
(212,305,cs),
(224,305,o),
(236,305,o),
(247,305,c),
(252,389,l),
(235,389,ls),
(129,389,o),
(77,347,o),
(61,258,c),
(76,243,o),
(106,235,o),
(138,238,c)
);
},
{
closed = 1;
nodes = (
(536,354,l),
(499,354,o),
(458,360,o),
(416,367,cs),
(369,375,o),
(315,384,o),
(278,385,c),
(273,301,l),
(305,301,o),
(368,292,o),
(410,285,cs),
(445,279,o),
(490,269,o),
(540,269,c)
);
},
{
closed = 1;
nodes = (
(574,269,ls),
(680,269,o),
(732,311,o),
(748,400,c),
(733,415,o),
(703,423,o),
(671,420,c),
(664,376,o),
(638,353,o),
(597,353,cs),
(585,353,o),
(573,353,o),
(562,353,c),
(557,269,l)
);
}
);
width = 830;
}
);
},
{
color = 6;
export = 0;
glyphname = _part.A.entry;
lastChange = "2023-08-31 09:36:21 +0000";
layers = (
{
layerId = "6DBDBFCA-DF26-4695-B281-FA25C6EAD80F";
shapes = (
{
closed = 1;
nodes = (
(168,-11,o),
(218,42,o),
(243,162,c),
(219,177,o),
(191,181,o),
(157,173,c),
(141,105,o),
(117,74,o),
(76,74,cs),
(60,74,o),
(45,76,o),
(30,81,c),
(12,60,o),
(7,35,o),
(12,0,c),
(39,-8,o),
(57,-11,o),
(77,-11,cs)
);
}
);
width = 695;
}
);
},
{
color = 6;
export = 0;
glyphname = _part.A.entry.ss04;
lastChange = "2023-08-31 09:36:21 +0000";
layers = (
{
layerId = "6DBDBFCA-DF26-4695-B281-FA25C6EAD80F";
shapes = (
{
closed = 1;
nodes = (
(216,-11,o),
(260,45,o),
(283,162,c),
(255,178,o),
(227,182,o),
(197,173,c),
(184,110,o),
(170,74,o),
(134,74,cs),
(110,74,o),
(94,86,o),
(86,118,c),
(52,118,o),
(28,107,o),
(10,90,c),
(27,12,o),
(77,-11,o),
(132,-11,cs)
);
}
);
width = 830;
}
);
},
{
color = 6;
export = 0;
glyphname = _part.A.exit.medi;
lastChange = "2023-08-31 09:36:21 +0000";
layers = (
{
layerId = "6DBDBFCA-DF26-4695-B281-FA25C6EAD80F";
shapes = (
{
closed = 1;
nodes = (
(558,172,o),
(530,169,o),
(508,162,c),
(531,54,o),
(584,-14,o),
(680,-14,cs),
(708,-14,o),
(719,-6,o),
(719,26,cs),
(719,57,o),
(707,72,o),
(688,72,cs),
(640,72,o),
(611,104,o),
(594,173,c)
);
}
);
width = 695;
}
);
},
{
color = 6;
export = 0;
glyphname = _part.H.cv04;
lastChange = "2023-08-31 09:36:21 +0000";
layers = (
{
layerId = "6DBDBFCA-DF26-4695-B281-FA25C6EAD80F";
shapes = (
{
closed = 1;
nodes = (
(299,-14,o),
(352,46,o),
(352,142,cs),
(352,408,l),
(320,417,o),
(289,417,o),
(259,408,c),
(259,135,ls),
(259,95,o),
(244,72,o),
(218,72,cs),
(193,72,o),
(179,91,o),
(179,123,cs),
(179,187,o),
(231,237,o),
(336,273,cs),
(607,367,ls),
(748,416,o),
(829,495,o),
(829,599,cs),
(829,683,o),
(782,734,o),
(702,734,cs),
(616,734,o),
(564,671,o),
(564,565,cs),
(564,150,ls),
(564,37,o),
(616,-14,o),
(709,-14,cs),
(738,-14,o),
(749,-1,o),
(749,30,cs),
(749,56,o),
(736,72,o),
(716,72,cs),
(678,72,o),
(657,95,o),
(657,150,cs),
(657,576,ls),
(657,621,o),
(673,648,o),
(700,648,cs),
(723,648,o),
(737,629,o),
(737,597,cs),
(737,535,o),
(686,488,o),
(580,451,cs),
(297,353,ls),
(180,312,o),
(88,228,o),
(88,122,cs),
(88,37,o),
(136,-14,o),
(216,-14,cs)
);
}
);
width = 890;
}
);
},
{
color = 6;
export = 0;
glyphname = _part.a;
lastChange = "2023-09-07 13:54:37 +0000";
layers = (
{
anchors = (
{
name = bottom;
pos = (304,0);
},
{
name = top;
pos = (306,472);
}
);
layerId = "6DBDBFCA-DF26-4695-B281-FA25C6EAD80F";
shapes = (
{
closed = 1;
nodes = (
(402,-14,o),
(491,94,o),
(489,248,c),
(508,248,l),
(508,477,l),
(493,482,o),
(479,484,o),
(463,484,cs),
(446,484,o),
(429,481,o),
(417,477,c),
(417,228,ls),
(417,135,o),
(361,72,o),
(277,72,cs),
(201,72,o),
(155,129,o),
(155,224,cs),
(155,326,o),
(216,400,o),
(302,400,cs),
(356,400,o),
(412,363,o),
(432,313,c),
(432,417,l),
(405,459,o),
(347,486,o),
(291,486,cs),
(159,486,o),
(62,375,o),
(62,224,cs),
(62,83,o),
(147,-14,o),
(273,-14,cs)
);
}
);
width = 674;
}
);
},
{
color = 3;
export = 0;
glyphname = _part.ae;
lastChange = "2023-08-31 09:36:21 +0000";
layers = (
{
anchors = (
{
name = "#fina";
pos = (648,71);
}
);
layerId = "6DBDBFCA-DF26-4695-B281-FA25C6EAD80F";
shapes = (
{
closed = 1;
nodes = (
(664,-14,o),
(678,2,o),
(678,28,cs),
(678,53,o),
(666,71,o),
(648,71,cs),
(551,71,o),
(481,143,o),
(481,244,cs),
(481,341,o),
(527,404,o),
(599,404,cs),
(635,404,o),
(665,379,o),
(665,346,cs),
(665,296,o),
(606,262,o),
(519,262,cs),
(500,262,o),
(480,264,o),
(455,269,c),
(450,188,l),
(489,183,o),
(503,182,o),
(519,182,cs),
(660,182,o),
(751,249,o),
(751,351,cs),
(751,429,o),
(686,487,o),
(599,487,cs),
(484,487,o),
(404,388,o),
(404,243,cs),
(404,87,o),
(497,-14,o),
(641,-14,cs)
);
},
{
alignment = -1;
pos = (-27,0);
ref = _part.a;
}
);
width = 749;
}
);
metricLeft = a.init;
metricRight = e.medi.cv02;
},
{
color = 6;
export = 0;
glyphname = _part.b;
lastChange = "2023-08-31 09:36:21 +0000";
layers = (
{
anchors = (
{
name = "#fina";
pos = (531,390);
}
);
background = {
shapes = (
{
alignment = -1;
pos = (-18,0);
ref = _part.l.alt;
},
{
pos = (-18,0);
ref = _part.l.out;
}
);
};
layerId = "6DBDBFCA-DF26-4695-B281-FA25C6EAD80F";
shapes = (
{
closed = 1;
nodes = (
(114,385,ls),
(114,246,o),
(126,164,o),
(155,104,cs),
(191,30,o),
(261,-10,o),
(353,-10,cs),
(501,-10,o),
(595,105,o),
(595,286,cs),
(595,384,o),
(557,465,o),
(511,465,cs),
(477,465,o),
(431,425,o),
(418,385,c),
(431,365,o),
(460,340,o),
(501,314,c),
(503,300,o),
(504,286,o),
(504,272,cs),
(504,156,o),
(442,75,o),
(353,75,cs),
(297,75,o),
(261,97,o),
(233,147,cs),
(208,193,o),
(198,265,o),
(198,405,cs),
(198,675,ls),
(198,757,o),
(203,814,o),
(214,848,cs),
(226,885,o),
(245,903,o),
(273,903,cs),
(319,903,o),
(343,848,o),
(343,742,c),
(377,735,o),
(401,734,o),
(428,741,c),
(428,890,o),
(369,986,o),
(278,986,cs),
(213,986,o),
(163,949,o),
(138,882,cs),
(121,836,o),
(114,773,o),
(114,663,cs)
);
}
);
width = 657;
}
);
},
{
color = 6;
export = 0;
glyphname = _part.b.fin;
lastChange = "2023-08-31 09:36:21 +0000";
layers = (
{
anchors = (
{
name = "_#fina";
pos = (99,408);
}
);
layerId = "6DBDBFCA-DF26-4695-B281-FA25C6EAD80F";
shapes = (
{
closed = 1;
nodes = (
(162,321,o),
(218,331,o),
(253,341,c),
(255,369,o),
(245,403,o),
(231,426,c),
(197,414,o),
(133,408,o),
(99,408,c),
(99,321,l)
);
}
);
width = 359;
}
);
},
{
color = 6;
export = 0;
glyphname = _part.b.in;
lastChange = "2023-08-31 09:36:21 +0000";
layers = (
{
background = {
shapes = (
{
closed = 1;
nodes = (
(75,-15,o),
(149,21,o),
(209,91,c),
(173,186,l),
(134,118,o),
(68,72,o),
(3,72,cs),
(-22,72,o),
(-38,57,o),
(-38,31,cs),
(-38,3,o),
(-25,-14,o),
(-4,-14,cs)
);
},
{
closed = 1;
nodes = (
(239,113,l),
(257,133,o),
(271,154,o),
(282,170,cs),
(389,330,o),
(428,550,o),
(428,741,c),
(412,747,o),
(373,747,o),
(343,742,c),
(343,545,o),
(297,338,o),
(214,221,cs),
(208,212,o),
(200,203,o),
(193,195,c)
);
}
);
};
layerId = "6DBDBFCA-DF26-4695-B281-FA25C6EAD80F";
shapes = (
{
closed = 1;
nodes = (
(52,-14,o),
(127,33,o),
(201,135,c),
(151,211,l),
(95,125,o),
(26,72,o),
(-29,72,cs),
(-50,72,o),
(-64,55,o),
(-64,29,cs),
(-64,4,o),
(-52,-14,o),
(-35,-14,cs)
);
},
{
closed = 1;
nodes = (
(347,308,o),
(428,540,o),
(428,741,c),
(399,745,o),
(371,746,o),
(343,742,c),
(343,574,o),
(281,382,o),
(161,206,c),
(203,129,l)
);
}
);
width = 462;
}
);
},
{
color = 6;
export = 0;
glyphname = _part.b.in.cv01;
lastChange = "2023-09-06 13:44:16 +0000";
layers = (
{
layerId = "6DBDBFCA-DF26-4695-B281-FA25C6EAD80F";
shapes = (
{
closed = 1;
nodes = (
(352,307,o),
(416,506,o),
(416,741,c),
(388,748,o),
(362,748,o),
(331,742,c),
(331,552,o),
(274,354,o),
(188,239,c),
(218,136,l)
);
},
{
closed = 1;
nodes = (
(15,-14,o),
(140,48,o),
(222,158,c),
(176,240,l),
(94,129,o),
(-5,71,o),
(-113,71,cs),
(-134,71,o),
(-148,55,o),
(-148,29,cs),
(-148,4,o),
(-136,-14,o),
(-118,-14,cs)
);
}
);
width = 619;
}
);
},
{
color = 6;
export = 0;
glyphname = _part.b.in.cv02;
lastChange = "2023-08-31 09:36:21 +0000";
layers = (
{
background = {
shapes = (
{
closed = 1;
nodes = (
(76,413,l),
(12,392,o),
(-49,379,o),
(-110,379,cs),
(-137,379,ls),
(-149,379,o),
(-160,368,o),
(-160,344,cs),
(-160,309,o),
(-140,300,o),
(-93,300,cs),
(-33,300,o),
(54,317,o),
(106,339,c)
);
}
);
};
layerId = "6DBDBFCA-DF26-4695-B281-FA25C6EAD80F";
shapes = (
{
closed = 1;
nodes = (
(76,413,l),
(12,392,o),
(-49,379,o),
(-110,379,cs),
(-137,379,ls),
(-149,379,o),
(-160,368,o),
(-160,344,cs),
(-160,309,o),
(-140,300,o),
(-93,300,cs),
(-33,300,o),
(54,317,o),
(106,339,c)
);
},
{
closed = 1;
nodes = (
(133,345,l),
(270,407,o),
(369,550,o),
(369,741,c),
(355,749,o),
(305,750,o),
(284,742,c),
(284,582,o),
(202,458,o),
(94,416,c)
);
}
);
width = 572;
}
);
},
{
color = 6;
export = 0;
glyphname = _part.b.in.cv03;
lastChange = "2023-08-31 09:36:21 +0000";
layers = (
{
background = {
shapes = (
{
closed = 1;
nodes = (
(293,304,o),
(368,499,o),
(368,708,c),
(336,719,o),
(303,718,o),
(281,710,c),
(281,527,o),
(221,371,o),
(140,268,c),
(170,165,l)
);
},
{
closed = 1;
nodes = (
(-84,-31,o),
(-57,-10,o),
(-36,6,cs),
(62,85,o),
(107,128,o),
(133,165,c),
(104,265,l),
(76,217,o),
(37,181,o),
(-40,115,cs),
(-72,89,o),
(-115,52,o),
(-156,19,cs),
(-172,6,o),
(-179,-6,o),
(-179,-19,cs),
(-179,-38,o),
(-149,-68,o),
(-127,-68,cs),
(-119,-68,o),
(-112,-62,o),
(-103,-52,cs)
);
}
);
};
layerId = "6DBDBFCA-DF26-4695-B281-FA25C6EAD80F";
shapes = (
{
closed = 1;
nodes = (
(282,296,o),
(366,510,o),
(366,741,c),
(348,747,o),
(304,749,o),
(281,742,c),
(281,536,o),
(207,357,o),
(106,245,c),
(137,143,l)
);
},
{
closed = 1;
nodes = (
(-82,-31,o),
(-58,-14,o),
(-37,2,cs),
(46,69,o),
(105,124,o),
(132,161,c),
(104,261,l),
(76,213,o),
(24,166,o),
(-41,111,cs),
(-73,85,o),
(-116,52,o),
(-157,19,cs),
(-173,6,o),
(-180,-6,o),
(-180,-19,cs),
(-180,-38,o),
(-151,-68,o),
(-128,-68,cs),
(-120,-68,o),
(-114,-62,o),
(-97,-46,cs)
);
}
);
width = 569;
}
);
},
{
color = 6;
export = 0;
glyphname = _part.b.ini;
lastChange = "2023-08-31 09:36:21 +0000";
layers = (
{
layerId = "6DBDBFCA-DF26-4695-B281-FA25C6EAD80F";
shapes = (
{
closed = 1;
nodes = (
(314,268,o),
(415,504,o),
(415,741,c),
(391,749,o),
(357,750,o),
(330,742,c),
(330,545,o),
(248,326,o),
(153,217,c),
(207,148,l)
);
},
{
closed = 1;
nodes = (
(125,54,o),
(170,113,o),
(208,165,c),
(139,223,l),
(107,174,o),
(41,105,o),
(-13,68,c),
(-4,33,o),
(14,9,o),
(43,-8,c)
);
}
);
width = 619;
}
);
},
{
color = 6;
export = 0;
glyphname = _part.boucle.bas;
lastChange = "2023-09-07 13:54:14 +0000";
layers = (
{
anchors = (
{
name = "#fina";
pos = (486,20);
}
);
layerId = "6DBDBFCA-DF26-4695-B281-FA25C6EAD80F";
shapes = (
{
closed = 1;
nodes = (
(477,-514,o),
(533,-437,o),
(533,-280,cs),
(533,52,l),
(444,52,l),
(444,-280,ls),
(444,-380,o),
(416,-428,o),
(359,-428,cs),
(312,-428,o),
(284,-394,o),
(284,-336,cs),
(284,-247,o),
(351,-158,o),
(481,-76,c),
(459,14,l),
(281,-96,o),
(194,-211,o),
(194,-338,cs),
(194,-448,o),
(257,-514,o),
(362,-514,cs)
);
}
);
width = 647;
}
);
},
{
color = 6;
export = 0;
glyphname = _part.c;
lastChange = "2023-09-06 15:07:08 +0000";
layers = (
{
anchors = (
{
name = bottom;
pos = (316,0);
}
);
background = {
shapes = (
{
closed = 1;
nodes = (
(417,-14,o),
(490,22,o),
(541,90,c),
(523,115,o),
(504,133,o),
(483,145,c),
(436,95,o),
(390,72,o),
(335,72,cs),
(244,72,o),
(189,134,o),
(189,235,cs),
(189,334,o),
(241,400,o),
(318,400,cs),
(356,400,o),
(389,384,o),
(409,355,c),
(431,364,o),
(461,395,o),
(467,413,c),
(438,458,o),
(380,486,o),
(316,486,cs),
(191,486,o),
(96,375,o),
(96,230,cs),
(96,84,o),
(190,-14,o),
(331,-14,cs)
);
}
);
};
layerId = "6DBDBFCA-DF26-4695-B281-FA25C6EAD80F";
shapes = (
{
closed = 1;
nodes = (
(376,-14,o),
(390,2,o),
(390,27,cs),
(390,52,o),
(377,71,o),
(360,71,cs),
(251,71,o),
(189,138,o),
(189,239,cs),
(189,337,o),
(240,400,o),
(318,400,cs),
(357,400,o),
(387,385,o),
(409,355,c),
(440,367,o),
(459,386,o),
(467,414,c),
(434,460,o),
(379,486,o),
(315,486,cs),
(187,486,o),
(96,381,o),
(96,234,cs),
(96,84,o),
(198,-14,o),
(354,-14,cs)
);
}
);
width = 454;
}
);
},
{
color = 6;
export = 0;
glyphname = _part.c.fin;
lastChange = "2023-09-06 13:49:13 +0000";
layers = (
{
anchors = (
{
name = bottom;
pos = (335,0);
}
);
background = {
shapes = (
{
pos = (-17,0);
ref = c;
}
);
};
layerId = "6DBDBFCA-DF26-4695-B281-FA25C6EAD80F";
shapes = (
{
closed = 1;
nodes = (
(417,-14,o),
(490,22,o),
(541,90,c),
(523,115,o),
(504,133,o),
(483,145,c),
(436,95,o),
(390,72,o),
(335,72,cs),
(244,72,o),
(189,134,o),
(189,235,cs),
(189,334,o),
(241,400,o),
(318,400,cs),
(356,400,o),
(389,384,o),
(409,355,c),
(435,364,o),
(459,384,o),
(467,414,c),
(438,458,o),
(380,486,o),
(316,486,cs),
(186,486,o),
(96,375,o),
(96,230,cs),
(96,84,o),
(190,-14,o),
(331,-14,cs)
);
}
);
width = 521;
}
);
},
{
color = 6;
export = 0;
glyphname = _part.caps.H.ss04;
lastChange = "2023-08-31 09:36:21 +0000";
layers = (
{
layerId = "6DBDBFCA-DF26-4695-B281-FA25C6EAD80F";
shapes = (
{
closed = 1;
nodes = (
(348,-14,o),
(408,63,o),
(408,192,cs),
(408,286,o),
(374,363,o),
(374,485,c),
(343,489,o),
(311,487,o),
(279,477,c),
(279,368,o),
(314,282,o),
(314,190,cs),
(314,115,o),
(292,72,o),
(250,72,cs),
(220,72,o),
(202,92,o),
(202,126,cs),
(202,188,o),
(256,240,o),
(359,275,cs),
(641,371,ls),
(775,417,o),
(858,503,o),
(858,604,cs),
(858,685,o),
(804,736,o),
(727,736,cs),
(676,736,o),
(627,713,o),
(600,661,cs),
(572,608,o),
(566,527,o),
(566,402,c),
(595,394,o),
(627,392,o),
(661,397,c),
(661,541,o),
(663,592,o),
(676,621,cs),
(685,640,o),
(700,650,o),
(720,650,cs),
(749,650,o),
(767,630,o),
(767,597,cs),
(767,537,o),
(710,486,o),
(609,452,cs),
(320,354,ls),
(190,309,o),
(111,220,o),
(111,119,cs),
(111,38,o),
(164,-14,o),
(247,-14,cs)
);
},
{
closed = 1;
nodes = (
(487,204,o),
(513,208,o),
(535,218,c),
(522,310,o),
(515,402,o),
(515,487,c),
(489,495,o),
(461,495,o),
(435,487,c),
(435,404,o),
(444,295,o),
(457,206,c)
);
}
);
width = 737;
}
);
},
{
color = 6;
export = 0;
glyphname = _part.caps.I;
lastChange = "2023-09-19 16:24:24 +0000";
layers = (
{
associatedMasterId = "6DBDBFCA-DF26-4695-B281-FA25C6EAD80F";
layerId = "9B179AB2-BD02-4CBB-8B10-E7ABB461602E";
name = "30. Aug 23 at 19:08";
shapes = (
{
closed = 1;
nodes = (
(79,670,o),
(90,642,o),
(111,625,c),
(142,639,o),
(163,645,o),
(188,645,cs),
(242,645,o),
(259,613,o),
(259,568,cs),
(259,402,l),
(290,392,o),
(321,392,o),
(352,402,c),
(352,565,ls),
(352,665,o),
(312,732,o),
(205,732,cs),
(161,732,o),
(115,721,o),
(79,699,c)
);
}
);
width = 476;
},
{
associatedMasterId = "6DBDBFCA-DF26-4695-B281-FA25C6EAD80F";
layerId = "1453C118-37CD-4527-856B-979813B8EFBF";
name = "30. Aug 23 at 19:15";
shapes = (
{
closed = 1;
nodes = (
(309,722,ls),
(182,722,o),
(138,714,o),
(84,702,c),
(73,673,o),
(75,644,o),
(84,615,c),
(138,629,o),
(220,635,o),
(284,635,cs),
(315,635,l),
(308,660,l),
(264,617,o),
(259,566,o),
(259,461,cs),
(259,401,l),
(290,391,o),
(321,391,o),
(352,401,c),
(352,462,ls),
(352,609,o),
(367,629,o),
(420,658,c),
(420,695,o),
(409,722,o),
(386,734,c),
(366,732,o),
(342,719,o),
(323,695,c),
(357,722,l)
);
}
);
width = 476;
},
{
associatedMasterId = "6DBDBFCA-DF26-4695-B281-FA25C6EAD80F";
layerId = "18EE2DE2-4D44-4C9A-BEF1-F72DB7512330";
name = "19. Sep 23 at 17:58";
shapes = (
{
closed = 1;
nodes = (
(342,699,o),
(320,720,o),
(283,732,c),
(173,677,o),
(138,654,o),
(95,623,c),
(98,597,o),
(106,571,o),
(131,546,c),
(185,576,o),
(235,608,o),
(315,645,c),
(259,670,l),
(259,401,l),
(290,391,o),
(321,391,o),
(352,401,c),
(352,670,l)
);
}
);
width = 476;
},
{
associatedMasterId = "6DBDBFCA-DF26-4695-B281-FA25C6EAD80F";
layerId = "13E66D93-6E92-418A-BFA9-6A52F83BA4C9";
name = "19. Sep 23 at 17:59";
shapes = (
{
closed = 1;
nodes = (
(342,699,o),
(320,720,o),
(283,732,c),
(173,677,o),
(138,654,o),
(95,623,c),
(98,597,o),
(106,571,o),
(131,546,c),
(185,576,o),
(235,608,o),
(315,645,c),
(259,670,l),
(259,401,l),
(290,391,o),
(321,391,o),
(352,401,c),
(352,670,l)
);
}
);
width = 476;
},
{
layerId = "6DBDBFCA-DF26-4695-B281-FA25C6EAD80F";
name = Regular;
shapes = (
{
closed = 1;
nodes = (
(386,679,o),
(372,705,o),
(352,722,c),
(274,722,ls),
(131,722,o),
(72,686,o),
(47,585,c),
(65,566,o),
(103,555,o),
(134,560,c),
(156,622,o),
(178,635,o),
(256,635,cs),
(335,635,l),
(310,661,l),
(269,623,o),
(259,583,o),
(259,462,cs),
(259,402,l),
(290,392,o),
(321,392,o),
(352,402,c),
(352,463,ls),
(352,572,o),
(358,603,o),
(389,640,c)
);
}
);
width = 476;
},
{
associatedMasterId = "6DBDBFCA-DF26-4695-B281-FA25C6EAD80F";
layerId = "2FF9A80C-B296-4520-AB9A-A03DBB4EF5F8";
name = "19. Sep 23 at 18:15";
shapes = (
{
closed = 1;
nodes = (
(76,645,o),
(91,622,o),
(113,604,c),
(143,627,o),
(184,635,o),
(234,635,cs),
(335,635,l),
(310,661,l),
(264,618,o),
(259,567,o),
(259,462,cs),
(259,402,l),
(290,392,o),
(321,392,o),
(352,402,c),
(352,463,ls),
(352,555,o),
(354,595,o),
(409,640,c),
(413,671,o),
(411,701,o),
(386,722,c),
(250,722,ls),
(157,722,o),
(101,704,o),
(69,676,c)
);
}
);
width = 476;
},
{
associatedMasterId = "6DBDBFCA-DF26-4695-B281-FA25C6EAD80F";
layerId = "9313195F-4530-46F0-BA7A-C73A21BDB99E";
name = "19. Sep 23 at 18:02";
shapes = (
{
closed = 1;
nodes = (
(290,392,o),
(321,392,o),
(352,402,c),
(352,548,ls),
(352,715,o),
(291,722,o),
(169,722,cs),
(104,722,o),
(59,702,o),
(30,658,c),
(43,628,o),
(67,607,o),
(93,602,c),
(118,627,o),
(137,635,o),
(172,635,cs),
(245,635,o),
(259,596,o),
(259,548,cs),
(259,500,o),
(259,450.992,o),
(259,402,c)
);
}
);
width = 476;
}
);
},
{
color = 6;
export = 0;
glyphname = _part.caps.I.ss04;
lastChange = "2023-08-31 09:36:21 +0000";
layers = (
{
layerId = "6DBDBFCA-DF26-4695-B281-FA25C6EAD80F";
shapes = (
{
closed = 1;
nodes = (
(310,483,o),
(342,484,o),
(374,494,c),
(374,562,o),
(382,610,o),
(431,675,c),
(366,718,l),
(361,717,o),
(354,716,o),
(347,716,cs),
(331,716,o),
(311,719,o),
(289,723,cs),
(263,727,o),
(235,735,o),
(209,735,cs),
(125,735,o),
(71,700,o),
(36,606,c),
(51,588,o),
(78,575,o),
(113,572,c),
(131,624,o),
(164,648,o),
(210,648,cs),
(229,648,o),
(246,643,o),
(270,636,cs),
(294,629,o),
(315,627,o),
(337,627,cs),
(442,627,o),
(467,661,o),
(467,703,cs),
(467,741,o),
(439,760,o),
(424,766,c),
(326,736,o),
(279,607,o),
(279,486,c)
);
}
);
width = 492;
}
);
},
{
color = 6;
export = 0;
glyphname = _part.caps.K;
lastChange = "2023-08-31 09:36:21 +0000";
layers = (
{
background = {
shapes = (
{
pos = (20,0);
ref = B.cv04;
}
);
};
layerId = "6DBDBFCA-DF26-4695-B281-FA25C6EAD80F";
shapes = (
{
closed = 1;
nodes = (
(715,-14,o),
(728,-2,o),
(728,30,cs),
(728,62,o),
(716,72,o),
(696,72,cs),
(645,72,o),
(626,110,o),
(626,182,cs),
(626,222,ls),
(626,422,o),
(440,429,o),
(352,401,c),
(343,344,o),
(353,309,o),
(412,309,cs),
(524,309,o),
(624,378,o),
(624,516,cs),
(624,576,ls),
(624,626,o),
(641,648,o),
(680,648,cs),
(694,648,o),
(708,644,o),
(723,637,c),
(744,658,o),
(752,686,o),
(747,717,c),
(722,728,o),
(698,733,o),
(672,733,cs),
(583,733,o),
(531,676,o),
(531,579,cs),
(531,526,ls),
(531,429,o),
(497,394,o),
(400,390,c),
(398,332,l),
(497,332,o),
(534,304,o),
(534,217,cs),
(534,171,ls),
(534,58,o),
(585,-14,o),
(689,-14,cs)
);
},
{
closed = 1;
nodes = (
(319,462,ls),
(319,580,o),
(327,609,o),
(366,632,cs),
(392,647,o),
(401,658,o),
(401,675,cs),
(401,695,o),
(388,722,o),
(372,734,c),
(358,733,o),
(350,731,o),
(325,722,c),
(220,722,ls),
(136,722,o),
(78,692,o),
(41,628,c),
(55,598,o),
(78,577,o),
(104,572,c),
(141,619,o),
(171,635,o),
(223,635,cs),
(301,635,l),
(276,660,l),
(236,622,o),
(226,582,o),
(226,461,cs),
(226,158,ls),
(226,105,o),
(203,78,o),
(160,78,cs),
(136,78,o),
(113,86,o),
(92,103,c),
(67,84,o),
(53,60,o),
(50,30,c),
(82,3,o),
(122,-11,o),
(169,-11,cs),
(268,-11,o),
(319,50,o),
(319,167,cs)
);
}
);
width = 698;
}
);
metricLeft = I.cv04;
},
{
color = 6;
export = 0;
glyphname = _part.caps.L;
lastChange = "2023-09-19 16:12:16 +0000";
layers = (
{
layerId = "6DBDBFCA-DF26-4695-B281-FA25C6EAD80F";
shapes = (
{
closed = 1;
nodes = (
(467,653,o),
(476,679,o),
(475,708,c),
(446,724,o),
(417,731,o),
(385,731,cs),
(287,731,o),
(218,658,o),
(198,534,cs),
(138,114,l),
(171,103,o),
(202,104,o),
(233,116,c),
(290,520,ls),
(303,601,o),
(336,641,o),
(389,641,cs),
(406,641,o),
(421,637,o),
(446,627,c)
);
}
);
width = 536;
}
);
},
{
color = 6;
export = 0;
glyphname = _part.caps.L.ss04;
lastChange = "2023-08-31 09:36:21 +0000";
layers = (
{
layerId = "6DBDBFCA-DF26-4695-B281-FA25C6EAD80F";
shapes = (
{
closed = 1;
nodes = (
(271,-11,o),
(340,74,o),
(340,217,cs),
(340,256,o),
(335,280,o),
(326,330,cs),
(320,363,o),
(312,408,o),
(312,458,cs),
(312,574,o),
(355,645,o),
(425,645,cs),
(460,645,o),
(479,627,o),
(479,596,cs),
(479,540,o),
(419,500,o),
(335,500,cs),
(239,500,o),
(160,551,o),
(72,669,c),
(34,656,o),
(12,635,o),
(5,608,c),
(96,479,o),
(210,411,o),
(331,411,cs),
(468,411,o),
(573,498,o),
(573,606,cs),
(573,677,o),
(528,735,o),
(434,735,cs),
(312,735,o),
(219,636,o),
(219,464,cs),
(219,420,o),
(225,377,o),
(231,339,cs),
(238,294,o),
(245,254,o),
(245,212,cs),
(245,122,o),
(213,69,o),
(159,69,cs),
(130,69,o),
(112,85,o),
(112,109,cs),
(112,128,o),
(124,141,o),
(142,141,cs),
(162,141,o),
(182,128,o),
(228,89,c),
(271,164,l),
(210,210,o),
(174,223,o),
(139,223,cs),
(68,223,o),
(24,171,o),
(24,107,cs),
(24,40,o),
(72,-11,o),
(159,-11,cs)
);
}
);
width = 616;
}
);
},
{
color = 6;
export = 0;
glyphname = _part.caps.barre;
lastChange = "2023-08-31 09:36:21 +0000";
layers = (
{
layerId = "6DBDBFCA-DF26-4695-B281-FA25C6EAD80F";
shapes = (
{
closed = 1;
nodes = (
(530,0,l),
(533,14,o),
(535,28,o),
(535,43,cs),
(535,59,o),
(534,75,o),
(530,87,c),
(162,87,l),
(159,75,o),
(158,61,o),
(158,44,cs),
(158,30,o),
(159,14,o),
(162,0,c)
);
}
);
width = 589;
}
);
},
{
color = 6;
export = 0;
glyphname = _part.caps.boucle.fin;
lastChange = "2023-08-31 09:36:21 +0000";
layers = (
{
anchors = (
{
name = "_#fina";
pos = (112,41);
}
);
layerId = "6DBDBFCA-DF26-4695-B281-FA25C6EAD80F";
shapes = (
{
closed = 1;
nodes = (
(184,-17,o),
(257,30,o),
(290,53,c),
(286,86,o),
(270,113,o),
(241,129,c),
(204,109,o),
(131,58,o),
(112,41,c),
(153,-38,l)
);
}
);
width = 398;
}
);
},
{
color = 6;
export = 0;
glyphname = _part.caps.fut;
lastChange = "2023-08-31 09:36:21 +0000";
layers = (
{
layerId = "6DBDBFCA-DF26-4695-B281-FA25C6EAD80F";
shapes = (
{
closed = 1;
nodes = (
(159,-6,o),
(174,-4,o),
(189,0,c),
(189,712,l),
(172,716,o),
(158,718,o),
(142,718,cs),
(126,718,o),
(111,716,o),
(96,712,c),
(96,0,l),
(113,-4,o),
(127,-6,o),
(142,-6,cs)
);
}
);
width = 285;
}
);
},
{
color = 6;
export = 0;
glyphname = _part.caps.fut.alt;
lastChange = "2023-08-31 09:36:21 +0000";
layers = (
{
layerId = "6DBDBFCA-DF26-4695-B281-FA25C6EAD80F";
shapes = (
{
closed = 1;
nodes = (
(193,0,l),
(193,712,l),
(100,712,l),
(100,0,l)
);
}
);
width = 602;
}
);
},
{
color = 6;
export = 0;
glyphname = _part.caps.stem;
lastChange = "2023-09-19 15:16:03 +0000";
layers = (
{
layerId = "6DBDBFCA-DF26-4695-B281-FA25C6EAD80F";
shapes = (
{
closed = 1;
nodes = (
(210,-14,o),
(261,44,o),
(261,146,cs),
(261,654,l),
(230,666,o),
(199,666,o),
(168,654,c),
(168,142,ls),
(168,95,o),
(150,72,o),
(114,72,cs),
(93,72,o),
(77,79,o),
(56,97,c),
(28,85,o),
(13,62,o),
(10,29,c),
(31,3,o),
(74,-14,o),
(120,-14,cs)
);
}
);
width = 461;
}
);
},
{
color = 6;
export = 0;
glyphname = _part.caps.stem.ss04;
lastChange = "2023-08-31 09:36:21 +0000";
layers = (
{
layerId = "6DBDBFCA-DF26-4695-B281-FA25C6EAD80F";
shapes = (
{
closed = 1;
nodes = (
(166,78,o),
(148,98,o),
(139,134,c),
(104,134,o),
(79,122,o),
(61,103,c),
(79,19,o),
(137,-11,o),
(198,-11,cs),
(294,-11,o),
(347,59,o),
(347,185,cs),
(347,224,o),
(341,261,o),
(333,315,cs),
(327,355,o),
(321,393,o),
(321,435,cs),
(321,479,o),
(330,527,o),
(345,558,c),
(323,580,o),
(294,588,o),
(255,584,c),
(234,541,o),
(226,484,o),
(226,434,cs),
(226,396,o),
(233,357,o),
(239,317,cs),
(246,270,o),
(252,224,o),
(252,183,cs),
(252,113,o),
(234,78,o),
(193,78,cs)
);
}
);
width = 763;
}
);
},
{
color = 3;
export = 0;
glyphname = _part.d;
lastChange = "2023-09-19 10:05:53 +0000";
layers = (
{
guides = (
{
pos = (328,840);
}
);
layerId = "6DBDBFCA-DF26-4695-B281-FA25C6EAD80F";
shapes = (
{
closed = 1;
nodes = (
(508,472,l),
(508,840,l),
(492,845,o),
(478,847,o),
(463,847,cs),
(445,847,o),
(428,844,o),
(417,840,c),
(417,472,l)
);
},
{
ref = _part.a;
}
);
width = 675;
}
);
},
{
color = 3;
export = 0;
glyphname = _part.dcroat;
lastChange = "2023-09-19 10:06:18 +0000";
layers = (
{
guides = (
{
pos = (328,840);
}
);
layerId = "6DBDBFCA-DF26-4695-B281-FA25C6EAD80F";
shapes = (
{
closed = 1;
nodes = (
(508,472,l),
(508,840,l),
(492,845,o),
(478,847,o),
(463,847,cs),
(445,847,o),
(428,844,o),
(417,840,c),
(417,472,l)
);
},
{
ref = _part.a;
},
{
closed = 1;
nodes = (
(590,642,l),
(600,663,o),
(600,701,o),
(590,722,c),
(265,722,l),
(256,701,o),
(256,663,o),
(265,642,c)
);
}
);
width = 675;
}
);
},
{
color = 6;
export = 0;
glyphname = _part.e;
lastChange = "2023-09-06 13:42:05 +0000";
layers = (
{
anchors = (
{
name = "#fina";
pos = (339,71);
},
{
name = bottom;
pos = (232,0);
},
{
name = top;
pos = (246,472);
}
);
layerId = "6DBDBFCA-DF26-4695-B281-FA25C6EAD80F";
shapes = (
{
closed = 1;
nodes = (
(356,-14,o),
(369,2,o),
(369,27,cs),
(369,53,o),
(357,71,o),
(339,71,cs),
(283,71,o),
(241,91,o),
(225,128,c),
(216,137,l),
(190,163,o),
(174,219,o),
(174,282,cs),
(174,350,o),
(212,403,o),
(264,403,cs),
(305,403,o),
(330,374,o),
(330,326,c),
(360,316,o),
(388,317,o),
(417,326,c),
(417,419,o),
(355,486,o),
(267,486,cs),
(162,486,o),
(87,397,o),
(87,274,cs),
(87,204,o),
(105,141,o),
(139,93,c),
(149,80,l),
(180,22,o),
(252,-14,o),
(334,-14,cs)
);
}
);
width = 499;
}
);
},
{
color = 6;
export = 0;
glyphname = _part.e.cv02.fin;
lastChange = "2023-08-31 09:36:21 +0000";
layers = (
{
anchors = (
{
name = "_#fina";
pos = (121,71);
}
);
layerId = "6DBDBFCA-DF26-4695-B281-FA25C6EAD80F";
shapes = (
{
closed = 1;
nodes = (
(172,-14,o),
(221,3,o),
(252,25,c),
(253,57,o),
(236,84,o),
(217,100,c),
(185,78,o),
(155,71,o),
(121,71,c),
(109,44,o),
(109,8,o),
(114,-14,c)
);
}
);
width = 251;
}
);
},
{
color = 6;
export = 0;
glyphname = _part.e.fin;
lastChange = "2023-08-31 09:36:21 +0000";
layers = (
{
anchors = (
{
name = "_#fina";
pos = (336,71);
}
);
layerId = "6DBDBFCA-DF26-4695-B281-FA25C6EAD80F";
shapes = (
{
closed = 1;
nodes = (
(386,-14,o),
(436,1,o),
(480,27,c),
(480,53,o),
(470,86,o),
(450,101,c),
(414,82,o),
(375,71,o),
(336,71,c),
(332,53,o),
(329,35,o),
(329,18,cs),
(329,7,o),
(329,-3,o),
(332,-14,c)
);
}
);
width = 586;
}
);
},
{
color = 6;
export = 0;
glyphname = _part.e.in;
lastChange = "2023-08-31 09:36:21 +0000";
layers = (
{
layerId = "6DBDBFCA-DF26-4695-B281-FA25C6EAD80F";
shapes = (
{
closed = 1;
nodes = (
(366,168,o),
(417,235,o),
(417,326,c),
(388,336,o),
(360,336,o),
(330,326,c),
(330,269,o),
(281,206,o),
(179,141,c),
(229,78,l)
);
},
{
closed = 1;
nodes = (
(60,-14,o),
(131,13,o),
(212,71,c),
(161,134,l),
(87,89,o),
(43,72,o),
(-3,72,cs),
(-25,72,o),
(-39,56,o),
(-39,29,cs),
(-39,4,o),
(-27,-14,o),
(-10,-14,cs)
);
}
);
width = 478;
}
);
},
{
color = 6;
export = 0;
glyphname = _part.e.in.ini;
lastChange = "2023-08-31 09:36:21 +0000";
layers = (
{
layerId = "6DBDBFCA-DF26-4695-B281-FA25C6EAD80F";
shapes = (
{
closed = 1;
nodes = (
(358,337,o),
(330,336,o),
(304,326,c),
(301,267,o),
(260,222,o),
(160,157,c),
(204,88,l),
(327,164,o),
(388,241,o),
(391,326,c)
);
},
{
closed = 1;
nodes = (
(-41,36,o),
(-30,11,o),
(-9,-7,c),
(39,7,o),
(119,43,o),
(170,72,c),
(122,140,l),
(77,116,o),
(3,83,o),
(-38,70,c)
);
}
);
width = 428;
}
);
},
{
color = 6;
export = 0;
glyphname = _part.e.ini;
lastChange = "2023-08-31 09:36:21 +0000";
layers = (
{
anchors = (
{
name = "#fina";
pos = (289,71);
},
{
name = top;
pos = (226,472);
}
);
layerId = "6DBDBFCA-DF26-4695-B281-FA25C6EAD80F";
shapes = (
{
closed = 1;
nodes = (
(305,-14,o),
(319,3,o),
(319,28,cs),
(319,55,o),
(307,71,o),
(289,71,cs),
(213,71,o),
(160,103,o),
(141,160,c),
(138,180,l),
(127,197,o),
(122,222,o),
(122,254,cs),
(122,341,o),
(165,404,o),
(223,404,cs),
(263,404,o),
(290,377,o),
(290,335,cs),
(290,269,o),
(227,226,o),
(110,213,c),
(116,137,l),
(264,137,o),
(377,221,o),
(377,330,cs),
(377,421,o),
(313,487,o),
(226,487,cs),
(118,487,o),
(35,387,o),
(35,259,cs),
(35,204,o),
(46,154,o),
(69,112,cs),
(110,31,o),
(187,-14,o),
(284,-14,cs)
);
}
);
width = 393;
}
);
metricLeft = o.init;
},
{
color = 6;
export = 0;
glyphname = _part.eszett;
lastChange = "2023-08-31 09:36:21 +0000";
layers = (
{
anchors = (
{
name = "#fina";
pos = (653,71);
}
);
associatedMasterId = "6DBDBFCA-DF26-4695-B281-FA25C6EAD80F";
layerId = "985E7570-3E5E-40D8-A4CA-AFA1DD0B85C7";
name = "5. Jul 23 at 16:04";
shapes = (
{
closed = 1;
nodes = (
(593,426,o),
(671,357,o),
(671,244,cs),
(671,143,o),
(614,72,o),
(511,72,cs),
(487,72,o),
(461,77,o),
(434,86,c),
(416,65,o),
(409,28,o),
(421,4,c),
(450,-6,o),
(476,-14,o),
(516,-14,cs),
(671,-14,o),
(765,96,o),
(765,242,cs),
(765,405,o),
(643,517,o),
(442,535,c),
(428,520,o),
(419,492,o),
(419,464,cs),
(419,424,o),
(439,400,o),
(472,400,cs),
(564,400,o),
(665,586,o),
(665,753,cs),
(665,894,o),
(593,980,o),
(475,980,cs),
(344,980,o),
(263,872,o),
(263,697,cs),
(263,-368,l),
(284,-373,o),
(298,-375,o),
(310,-375,cs),
(321,-375,o),
(332,-373,o),
(354,-368,c),
(354,697,ls),
(354,824,o),
(397,894,o),
(474,894,cs),
(539,894,o),
(572,843,o),
(572,742,cs),
(572,631,o),
(532,540,o),
(458,482,c),
(452,435,l)
);
}
);
visible = 1;
width = 809;
},
{
anchors = (
{
name = "#fina";
pos = (652,71);
}
);
layerId = "6DBDBFCA-DF26-4695-B281-FA25C6EAD80F";
name = Regular;
shapes = (
{
closed = 1;
nodes = (
(585,436,o),
(661,359,o),
(661,244,cs),
(661,139,o),
(598,72,o),
(498,72,cs),
(474,72,o),
(448,76,o),
(421,86,c),
(401,63,o),
(395,27,o),
(407,3,c),
(435,-9,o),
(460,-14,o),
(494,-14,cs),
(650,-14,o),
(755,88,o),
(755,241,cs),
(755,403,o),
(637,520,o),
(442,549,c),
(428,535,o),
(419,510,o),
(419,485,cs),
(419,446,o),
(439,420,o),
(471,420,cs),
(502,420,o),
(545,445,o),
(593,491,cs),
(682,576,o),
(731,678,o),
(731,780,cs),
(731,901,o),
(663,980,o),
(554,980,cs),
(377,980,o),
(263,771,o),
(263,447,cs),
(263,256,l),
(263,-368,l),
(284,-373,o),
(298,-375,o),
(310,-375,cs),
(321,-375,o),
(332,-373,o),
(354,-368,c),
(354,449,ls),
(354,703,o),
(439,894,o),
(552,894,cs),
(607,894,o),
(638,849,o),
(638,775,cs),
(638,658,o),
(559,545,o),
(448,496,c),
(452,455,l)
);
}
);
width = 789;
}
);
},
{
color = 6;
export = 0;
glyphname = _part.eszett.out;
lastChange = "2023-08-31 09:36:21 +0000";
layers = (
{
anchors = (
{
name = "_#fina";
pos = (114,71);
}
);
layerId = "6DBDBFCA-DF26-4695-B281-FA25C6EAD80F";
shapes = (
{
closed = 1;
nodes = (
(183,-14,o),
(197,2,o),
(197,28,cs),
(197,53,o),
(185,71,o),
(168,71,cs),
(114,71,l),
(36,-3,l),
(71,-10,o),
(115,-14,o),
(161,-14,cs)
);
}
);
width = 269;
}
);
},
{
color = 6;
export = 0;
glyphname = _part.f;
lastChange = "2023-09-07 12:30:37 +0000";
layers = (
{
anchors = (
{
name = "#fina";
pos = (410,72);
}
);
background = {
shapes = (
{
closed = 1;
nodes = (
(144,988,o),
(99,901,o),
(99,750,cs),
(99,-291,ls),
(99,-429,o),
(155,-508,o),
(252,-508,cs),
(356,-508,o),
(415,-407,o),
(415,-228,c),
(386,-221,o),
(360,-222,o),
(330,-229,c),
(330,-358,o),
(303,-425,o),
(252,-425,cs),
(205,-425,o),
(184,-383,o),
(184,-291,cs),
(184,735,ls),
(184,854,o),
(204,906,o),
(258,906,cs),
(307,906,o),
(335,839,o),
(335,722,cs),
(335,567,o),
(304,459,o),
(242,391,c),
(262,309,l),
(315,378,o),
(361,408,o),
(410,408,cs),
(427,408,o),
(439,426,o),
(439,451,cs),
(439,478,o),
(425,494,o),
(403,494,cs),
(317,494,o),
(194,429,o),
(167,370,c),
(169,330,o),
(188,303,o),
(222,290,c),
(344,327,o),
(423,500,o),
(423,729,cs),
(423,898,o),
(364,988,o),
(253,988,cs)
);
}
);
};
layerId = "6DBDBFCA-DF26-4695-B281-FA25C6EAD80F";
shapes = (
{
closed = 1;
nodes = (
(364,-514,o),
(423,-424,o),
(423,-249,cs),
(423,-20,o),
(344,153,o),
(222,190,c),
(188,177,o),
(169,149,o),
(167,110,c),
(194,51,o),
(317,-14,o),
(403,-14,cs),
(425,-14,o),
(439,2,o),
(439,28,cs),
(439,54,o),
(427,72,o),
(410,72,cs),
(361,72,o),
(315,102,o),
(262,171,c),
(242,89,l),
(304,21,o),
(335,-87,o),
(335,-242,cs),
(335,-366,o),
(307,-432,o),
(258,-432,cs),
(204,-432,o),
(184,-381,o),
(184,-281,cs),
(184,771,ls),
(184,861,o),
(207,903,o),
(252,903,cs),
(300,903,o),
(325,839,o),
(325,719,c),
(356,712,o),
(384,711,o),
(414,718,c),
(414,888,o),
(356,986,o),
(252,986,cs),
(194,986,o),
(158,961,o),
(134,925,cs),
(105,882,o),
(95,822,o),
(95,750,cs),
(95,-281,ls),
(95,-427,o),
(141,-514,o),
(253,-514,cs)
);
}
);
width = 410;
}
);
},
{
color = 6;
export = 0;
glyphname = _part.f.in;
lastChange = "2023-09-07 12:29:33 +0000";
layers = (
{
background = {
shapes = (
{
closed = 1;
nodes = (
(92,-14,o),
(157,42,o),
(254,213,c),
(222,335,l),
(129,141,o),
(70,72,o),
(-2,72,cs),
(-23,72,o),
(-37,55,o),
(-37,29,cs),
(-37,4,o),
(-25,-14,o),
(-8,-14,cs)
);
},
{
closed = 1;
nodes = (
(362,397,l),
(433,518,o),
(472,643,o),
(472,762,c),
(445,772,o),
(409,770,o),
(387,763,c),
(387,641,o),
(338,506,o),
(240,356,c)
);
}
);
};
layerId = "6DBDBFCA-DF26-4695-B281-FA25C6EAD80F";
shapes = (
{
closed = 1;
nodes = (
(213,125,l),
(375,285,o),
(458,487,o),
(458,718,c),
(439,725,o),
(398,725,o),
(369,719,c),
(369,527,o),
(299,341,o),
(178,212,c)
);
},
{
closed = 1;
nodes = (
(156,194,l),
(95,108,o),
(47,72,o),
(-4,72,cs),
(-25,72,o),
(-39,55,o),
(-39,29,cs),
(-39,4,o),
(-27,-14,o),
(-10,-14,cs),
(77,-14,o),
(132,25,o),
(208,141,c)
);
}
);
width = 456;
}
);
},
{
color = 6;
export = 0;
glyphname = _part.f.ini;
lastChange = "2023-09-07 12:30:02 +0000";
layers = (
{
layerId = "6DBDBFCA-DF26-4695-B281-FA25C6EAD80F";
shapes = (
{
closed = 1;
nodes = (
(286,239,o),
(386,472,o),
(386,721,c),
(368,728,o),
(326,728,o),
(297,722,c),
(297,526,o),
(221,320,o),
(113,226,c),
(132,125,l)
);
},
{
closed = 1;
nodes = (
(-74,33,o),
(-56,1,o),
(-33,-9,c),
(15,11,o),
(69,57,o),
(106,109,c),
(75,195,l),
(37,142,o),
(-18,94,o),
(-74,65,c)
);
}
);
width = 412;
}
);
},
{
color = 3;
export = 0;
glyphname = _part.g;
lastChange = "2023-08-31 09:36:21 +0000";
layers = (
{
layerId = "6DBDBFCA-DF26-4695-B281-FA25C6EAD80F";
shapes = (
{
closed = 1;
nodes = (
(455,46,o),
(481,52,c),
(481,294,l),
(392,294,l),
(392,52,l),
(418,46,o)
);
},
{
pos = (-52,0);
ref = _part.boucle.bas;
},
{
pos = (-27,0);
ref = _part.a;
}
);
width = 611;
}
);
metricLeft = o.init;
},
{
color = 3;
export = 0;
glyphname = _part.h;
lastChange = "2023-08-31 09:36:21 +0000";
layers = (
{
layerId = "6DBDBFCA-DF26-4695-B281-FA25C6EAD80F";
shapes = (
{
closed = 1;
nodes = (
(263,292,o),
(323,378,o),
(404,378,cs),
(458,378,o),
(490,338,o),
(490,270,cs),
(490,251,l),
(525,243,o),
(554,243,o),
(582,251,c),
(582,268,ls),
(582,387,o),
(518,463,o),
(418,463,cs),
(314,463,o),
(229,381,o),
(195,247,c),
(261,173,l)
);
},
{
pos = (-2,0);
ref = _part.hk;
}
);
width = 647;
}
);
},
{
color = 6;
export = 0;
glyphname = _part.h.in;
lastChange = "2023-09-07 13:52:23 +0000";
layers = (
{
layerId = "6DBDBFCA-DF26-4695-B281-FA25C6EAD80F";
shapes = (
{
closed = 1;
nodes = (
(99,-14,o),
(163,41,o),
(254,213,c),
(222,343,l),
(129,144,o),
(70,72,o),
(-2,72,cs),
(-23,72,o),
(-37,55,o),
(-37,29,cs),
(-37,4,o),
(-25,-14,o),
(-8,-14,cs)
);
},
{
closed = 1;
nodes = (
(362,397,l),
(442,517,o),
(496,672,o),
(496,787,c),
(472,796,o),
(434,796,o),
(407,788,c),
(407,672,o),
(342,507,o),
(240,362,c)
);
}
);
width = 648;
}
);
},
{
color = 6;
export = 0;
glyphname = _part.h.in.cv01;
lastChange = "2023-09-07 13:52:30 +0000";
layers = (
{
layerId = "6DBDBFCA-DF26-4695-B281-FA25C6EAD80F";
shapes = (
{
closed = 1;
nodes = (
(69,-14,o),
(191,67,o),
(254,236,c),
(218,339,l),
(152,168,o),
(61,71,o),
(-53,71,cs),
(-76,71,o),
(-90,55,o),
(-90,29,cs),
(-90,4,o),
(-78,-14,o),
(-60,-14,cs)
);
},
{
closed = 1;
nodes = (
(398,419,l),
(470,550,o),
(509,681,o),
(509,787,c),
(473,794,o),
(441,795,o),
(420,788,c),
(420,662,o),
(361,508,o),
(255,357,c)
);
}
);
width = 660;
}
);
},
{
color = 6;
export = 0;
glyphname = _part.h.in.cv02;
lastChange = "2023-09-07 13:52:36 +0000";
layers = (
{
background = {
shapes = (
{
closed = 1;
nodes = (
(52,413,l),
(-12,392,o),
(-73,379,o),
(-134,379,cs),
(-161,379,ls),
(-173,379,o),
(-184,368,o),
(-184,344,cs),
(-184,309,o),
(-164,300,o),
(-117,300,cs),
(-57,300,o),
(30,317,o),
(82,339,c)
);
},
{
closed = 1;
nodes = (
(253,407,o),
(369,596,o),
(369,787,c),
(348,794,o),
(310,795,o),
(284,788,c),
(284,665,o),
(226,514,o),
(117,417,c),
(116,326,l)
);
}
);
};
layerId = "6DBDBFCA-DF26-4695-B281-FA25C6EAD80F";
shapes = (
{
closed = 1;
nodes = (
(72,422,l),
(8,392,o),
(-53,379,o),
(-114,379,cs),
(-141,379,ls),
(-153,379,o),
(-164,368,o),
(-164,344,cs),
(-164,309,o),
(-144,300,o),
(-97,300,cs),
(-37,300,o),
(50,317,o),
(102,348,c)
);
},
{
closed = 1;
nodes = (
(129,345,l),
(255,414,o),
(373,586,o),
(373,787,c),
(358,795,o),
(306,796,o),
(284,788,c),
(284,630,o),
(213,495,o),
(90,416,c)
);
}
);
width = 525;
}
);
},
{
color = 6;
export = 0;
glyphname = _part.h.in.cv03;
lastChange = "2023-09-07 13:52:41 +0000";
layers = (
{
layerId = "6DBDBFCA-DF26-4695-B281-FA25C6EAD80F";
shapes = (
{
closed = 1;
nodes = (
(281,403,l),
(372,542,o),
(408,677,o),
(408,787,c),
(386,796,o),
(342,794,o),
(319,788,c),
(319,679,o),
(287,545,o),
(170,377,c)
);
},
{
closed = 1;
nodes = (
(13,30,o),
(126,152,o),
(162,230,c),
(129,323,l),
(65,212,o),
(-19,119,o),
(-142,12,cs),
(-159,-1,o),
(-166,-13,o),
(-166,-26,cs),
(-166,-45,o),
(-136,-75,o),
(-114,-75,cs),
(-106,-75,o),
(-100,-68,o),
(-90,-59,cs)
);
}
);
width = 569;
}
);
},
{
color = 6;
export = 0;
glyphname = _part.h.ini;
lastChange = "2023-09-07 13:52:05 +0000";
layers = (
{
layerId = "6DBDBFCA-DF26-4695-B281-FA25C6EAD80F";
shapes = (
{
closed = 1;
nodes = (
(380,428,l),
(457,548,o),
(493,672,o),
(493,787,c),
(463,794,o),
(430,794,o),
(404,788,c),
(404,663,o),
(349,518,o),
(247,374,c)
);
},
{
closed = 1;
nodes = (
(164,194,o),
(220,246,o),
(266,301,c),
(199,354,l),
(172,319,o),
(127,281,o),
(85,256,c),
(88,223,o),
(103,195,o),
(129,176,c)
);
}
);
width = 579;
}
);
},
{
color = 6;
export = 0;
glyphname = _part.h.out;
lastChange = "2023-08-31 09:36:21 +0000";
layers = (
{
anchors = (
{
name = "#fina";
pos = (644,72);
}
);
layerId = "6DBDBFCA-DF26-4695-B281-FA25C6EAD80F";
shapes = (
{
closed = 1;
nodes = (
(660,-14,o),
(674,2,o),
(674,28,cs),
(674,53,o),
(665,72,o),
(644,72,cs),
(599,72,o),
(581,104,o),
(581,182,cs),
(581,251,l),
(550,259,o),
(520,259,o),
(489,251,c),
(489,164,ls),
(489,51,o),
(542,-14,o),
(638,-14,cs)
);
}
);
width = 645;
}
);
},
{
color = 6;
export = 0;
glyphname = _part.hk;
lastChange = "2023-09-07 13:52:00 +0000";
layers = (
{
layerId = "6DBDBFCA-DF26-4695-B281-FA25C6EAD80F";
shapes = (
{
closed = 1;
nodes = (
(263,319,l),
(260,338,l),
(260,780,ls),
(260,863,o),
(284,903,o),
(333,903,cs),
(379,903,o),
(405,862,o),
(405,788,c),
(434,781,o),
(463,780,o),
(494,787,c),
(494,904,o),
(436,985,o),
(337,986,cs),
(229,987,o),
(171,912,o),
(171,779,cs),
(171,0,l),
(188,-5,o),
(202,-7,o),
(218,-7,cs),
(233,-7,o),
(249,-4,o),
(263,0,c)
);
}
);
width = 646;
}
);
},
{
color = 6;
export = 0;
glyphname = _part.i;
lastChange = "2023-08-31 15:44:04 +0000";
layers = (
{
layerId = "6DBDBFCA-DF26-4695-B281-FA25C6EAD80F";
shapes = (
{
closed = 1;
nodes = (
(171,265,o),
(201,264,o),
(231,271,c),
(231,472,l),
(215,477,o),
(201,479,o),
(186,479,cs),
(169,479,o),
(152,476,o),
(140,472,c),
(140,271,l)
);
}
);
width = 294;
}
);
},
{
color = 6;
export = 0;
glyphname = _part.i.fin;
lastChange = "2023-08-31 09:36:21 +0000";
layers = (
{
anchors = (
{
name = "_#fina";
pos = (209,72);
}
);
layerId = "6DBDBFCA-DF26-4695-B281-FA25C6EAD80F";
shapes = (
{
closed = 1;
nodes = (
(242,-14,o),
(277,2,o),
(298,26,c),
(299,51,o),
(282,81,o),
(260,92,c),
(241,78,o),
(223,72,o),
(209,72,c),
(195,46,o),
(193,17,o),
(203,-14,c)
);
}
);
width = 360;
}
);
},
{
color = 6;
export = 0;
glyphname = _part.i.in;
lastChange = "2023-08-31 09:36:21 +0000";
layers = (
{
layerId = "6DBDBFCA-DF26-4695-B281-FA25C6EAD80F";
shapes = (
{
closed = 1;
nodes = (
(-26,72,o),
(-37,52,o),
(-37,29,cs),
(-37,8,o),
(-27,-14,o),
(-8,-14,cs),
(47,-14,o),
(95,9,o),
(131,45,cs),
(188,102,o),
(220,219,o),
(220,324,c),
(141,324,l),
(141,256,o),
(128,178,o),
(89,125,cs),
(61,89,o),
(27,72,o),
(-1,72,cs)
);
}
);
width = 295;
}
);
},
{
color = 6;
export = 0;
glyphname = _part.i.in.cv01;
lastChange = "2023-09-06 14:49:04 +0000";
layers = (
{
layerId = "6DBDBFCA-DF26-4695-B281-FA25C6EAD80F";
shapes = (
{
closed = 1;
nodes = (
(147,-14,o),
(285,146,o),
(285,373,c),
(204,385,l),
(204,203,o),
(100,71,o),
(-42,71,cs),
(-64,71,o),
(-78,55,o),
(-78,29,cs),
(-78,3,o),
(-66,-14,o),
(-46,-14,cs)
);
}
);
width = 399;
}
);
},
{
color = 6;
export = 0;
glyphname = _part.i.in.cv02;
lastChange = "2023-08-31 09:36:21 +0000";
layers = (
{
layerId = "6DBDBFCA-DF26-4695-B281-FA25C6EAD80F";
shapes = (
{
closed = 1;
nodes = (
(150,261,o),
(180,263,o),
(209,271,c),
(209,452,l),
(192,474,o),
(159,483,o),
(131,481,c),
(118,445,l),
(118,271,l)
);
},
{
closed = 1;
nodes = (
(-96,322,o),
(-69,318,o),
(-36,318,cs),
(53,318,o),
(134,350,o),
(169,399,c),
(131,481,l),
(107,435,o),
(37,400,o),
(-31,400,cs),
(-55,400,o),
(-78,404,o),
(-100,409,cs),
(-104,410,o),
(-108,411,o),
(-113,411,cs),
(-132,411,o),
(-148,391,o),
(-148,366,cs),
(-148,348,o),
(-139,337,o),
(-121,331,cs)
);
}
);
width = 251;
}
);
},
{
color = 6;
export = 0;
glyphname = _part.i.in.cv03;
lastChange = "2023-08-31 09:36:21 +0000";
layers = (
{
layerId = "6DBDBFCA-DF26-4695-B281-FA25C6EAD80F";
shapes = (
{
closed = 1;
nodes = (
(-114,-60,o),
(-73,-25,cs),
(64,89,o),
(184,201,o),
(184,409,c),
(98,409,l),
(98,244,o),
(-46,110,o),
(-168,14,cs),
(-184,2,o),
(-192,-9,o),
(-192,-22,cs),
(-192,-41,o),
(-163,-71,o),
(-142,-71,cs),
(-128,-71,o)
);
}
);
width = 252;
}
);
},
{
color = 6;
export = 0;
glyphname = _part.i.ini;
lastChange = "2023-08-31 09:36:21 +0000";
layers = (
{
layerId = "6DBDBFCA-DF26-4695-B281-FA25C6EAD80F";
shapes = (
{
closed = 1;
nodes = (
(134,48,o),
(220,200,o),
(220,325,cs),
(220,377,l),
(141,377,l),
(141,351,ls),
(141,200,o),
(45,104,o),
(-2,60,c),
(4,28,o),
(27,4,o),
(57,-6,c)
);
}
);
width = 295;
}
);
},
{
color = 6;
export = 0;
glyphname = _part.i.out;
lastChange = "2023-08-31 09:36:21 +0000";
layers = (
{
anchors = (
{
name = "#fina";
pos = (263,72);
}
);
layerId = "6DBDBFCA-DF26-4695-B281-FA25C6EAD80F";
shapes = (
{
closed = 1;
nodes = (
(281,-14,o),
(292,6,o),
(292,28,cs),
(292,49,o),
(285,72,o),
(263,72,cs),
(211,72,o),
(191,113,o),
(191,184,cs),
(191,288,l),
(108,288,l),
(108,184,ls),
(108,54,o),
(157,-14,o),
(256,-14,cs)
);
}
);
width = 264;
}
);
},
{
color = 6;
export = 0;
glyphname = _part.j.in;
lastChange = "2023-08-31 09:36:21 +0000";
layers = (
{
anchors = (
{
name = top;
pos = (259,472);
}
);
background = {
shapes = (
{
alignment = -1;
pos = (-17,0);
ref = _part.p.in;
}
);
};
layerId = "6DBDBFCA-DF26-4695-B281-FA25C6EAD80F";
shapes = (
{
closed = 1;
nodes = (
(57,-14,o),
(118,31,o),
(163,123,cs),
(192,183,o),
(211,232,o),
(227,287,c),
(211,298,l),
(211,-9,l),
(302,-9,l),
(302,468,l),
(282,482,o),
(245,487,o),
(213,479,c),
(184,383,o),
(157,311,o),
(116,216,cs),
(71,113,o),
(34,72,o),
(-14,72,cs),
(-38,72,o),
(-53,55,o),
(-53,29,cs),
(-53,5,o),
(-40,-14,o),
(-23,-14,cs)
);
}
);
width = 457;
}
);
},
{
color = 6;
export = 0;
glyphname = _part.j.in.cv01;
lastChange = "2023-09-06 14:48:02 +0000";
layers = (
{
anchors = (
{
name = top;
pos = (324,472);
}
);
layerId = "6DBDBFCA-DF26-4695-B281-FA25C6EAD80F";
shapes = (
{
closed = 1;
nodes = (
(95,-14,o),
(193,76,o),
(292,304,c),
(277,313,l),
(277,-9,l),
(368,-9,l),
(368,462,l),
(345,478,o),
(304,485,o),
(277,478,c),
(146,162,o),
(72,71,o),
(-52,71,cs),
(-73,71,o),
(-87,55,o),
(-87,29,cs),
(-87,4,o),
(-74,-14,o),
(-56,-14,cs)
);
},
{
closed = 0;
nodes = (
(7,450,l)
);
}
);
width = 503;
}
);
},
{
color = 3;
export = 0;
glyphname = _part.j.ini;
lastChange = "2023-08-31 09:36:21 +0000";
layers = (
{
anchors = (
{
name = top;
pos = (289,472);
}
);
layerId = "6DBDBFCA-DF26-4695-B281-FA25C6EAD80F";
shapes = (
{
closed = 1;
nodes = (
(329,-9,l),
(329,383,l),
(238,399,l),
(238,-9,l)
);
},
{
pos = (22,0);
ref = _part.p.ini;
}
);
width = 457;
}
);
},
{
color = 3;
export = 0;
glyphname = _part.k;
lastChange = "2023-08-31 09:36:21 +0000";
layers = (
{
anchors = (
{
name = "#fina";
pos = (260,234);
}
);
layerId = "6DBDBFCA-DF26-4695-B281-FA25C6EAD80F";
shapes = (
{
closed = 1;
nodes = (
(267,290,o),
(334,407,o),
(427,407,cs),
(470,407,o),
(498,380,o),
(498,340,cs),
(498,280,o),
(421,234,o),
(317,234,cs),
(301,234,o),
(285,235,o),
(273,237,c),
(340,176,l),
(482,176,o),
(586,247,o),
(586,344,cs),
(586,429,o),
(529,486,o),
(443,486,cs),
(327,486,o),
(237,387,o),
(201,221,c),
(267,131,l)
);
},
{
pos = (4,0);
ref = _part.hk;
}
);
width = 607;
}
);
},
{
color = 6;
export = 0;
glyphname = _part.k.fin;
lastChange = "2023-09-06 13:46:19 +0000";
layers = (
{
anchors = (
{
name = "_#fina";
pos = (265,234);
}
);
background = {
shapes = (
{
closed = 1;
nodes = (
(610,-14,o),
(624,2,o),
(624,28,cs),
(624,54,o),
(612,72,o),
(595,72,cs),
(563,72,o),
(533,87,o),
(504,121,cs),
(471,159,ls),
(422,213,o),
(358,234,o),
(243,234,c),
(243,163,l),
(338,163,o),
(368,152,o),
(417,97,cs),
(459,52,ls),
(498,9,o),
(542,-14,o),
(587,-14,cs)
);
}
);
};
layerId = "6DBDBFCA-DF26-4695-B281-FA25C6EAD80F";
shapes = (
{
closed = 1;
nodes = (
(620,0,o),
(628,35,o),
(619,61,c),
(575,70,o),
(554,83,o),
(522,122,cs),
(492,157,ls),
(445,211,o),
(373,234,o),
(265,234,c),
(257,213,o),
(257,190,o),
(265,163,c),
(362,163,o),
(379,153,o),
(436,95,cs),
(479,51,ls),
(524,5,o),
(559,-14,o),
(603,-14,c)
);
}
);
width = 605;
}
);
},
{
color = 6;
export = 0;
glyphname = _part.k.out;
lastChange = "2023-08-31 09:36:21 +0000";
layers = (
{
anchors = (
{
name = "_#fina";
pos = (263,234);
}
);
layerId = "6DBDBFCA-DF26-4695-B281-FA25C6EAD80F";
shapes = (
{
closed = 1;
nodes = (
(629,-14,o),
(643,2,o),
(643,28,cs),
(643,54,o),
(631,72,o),
(614,72,cs),
(582,72,o),
(553,87,o),
(523,121,cs),
(490,159,ls),
(442,214,o),
(377,234,o),
(263,234,c),
(255,210,o),
(255,187,o),
(263,163,c),
(358,163,o),
(386,151,o),
(436,97,cs),
(478,52,ls),
(518,10,o),
(562,-14,o),
(606,-14,cs)
);
}
);
width = 614;
}
);
},
{
color = 6;
export = 0;
glyphname = _part.l.alt;
lastChange = "2023-09-07 12:27:19 +0000";
layers = (
{
layerId = "6DBDBFCA-DF26-4695-B281-FA25C6EAD80F";
shapes = (
{
closed = 1;
nodes = (
(206,734,o),
(213,805,o),
(234,854,cs),
(247,884,o),
(269,900,o),
(293,900,cs),
(339,900,o),
(366,839,o),
(366,728,c),
(395,723,o),
(425,722,o),
(455,727,c),
(455,888,o),
(397,986,o),
(293,986,cs),
(241,986,o),
(196,966,o),
(167,918,cs),
(127,853,o),
(117,776,o),
(117,538,c),
(136,529,o),
(181,526,o),
(206,532,c)
);
}
);
width = 461;
}
);
},
{
color = 6;
export = 0;
glyphname = _part.l.fin;
lastChange = "2023-09-07 12:28:15 +0000";
layers = (
{
background = {
shapes = (
{
closed = 1;
nodes = (
(391,-14,o),
(405,2,o),
(405,28,cs),
(405,54,o),
(393,72,o),
(375,72,cs),
(306,72,o),
(253,156,o),
(236,212,c),
(202,306,o),
(188,442,o),
(188,612,c),
(168,621,o),
(131,617,o),
(102,604,c),
(102,336,o),
(138,168,o),
(210,76,cs),
(252,23,o),
(307,-14,o),
(369,-14,cs)
);
}
);
};
layerId = "6DBDBFCA-DF26-4695-B281-FA25C6EAD80F";
shapes = (
{
closed = 1;
nodes = (
(382,-14,o),
(417,-2,o),
(449,24,c),
(446,51,o),
(432,77,o),
(413,92,c),
(392,78,o),
(367,71,o),
(342,71,cs),
(301,71,o),
(267,92,o),
(247,140,cs),
(219,209,o),
(206,333,o),
(206,532,c),
(177,544,o),
(146,546,o),
(117,538,c),
(117,282,o),
(137,139,o),
(194,60,cs),
(227,15,o),
(278,-14,o),
(338,-14,cs)
);
}
);
width = 460;
}
);
},
{
color = 6;
export = 0;
glyphname = _part.l.in;
lastChange = "2023-09-07 12:28:10 +0000";
layers = (
{
layerId = "6DBDBFCA-DF26-4695-B281-FA25C6EAD80F";
shapes = (
{
closed = 1;
nodes = (
(72,-14,o),
(141,25,o),
(210,109,c),
(160,185,l),
(109,115,o),
(47,72,o),
(-2,72,cs),
(-23,72,o),
(-37,55,o),
(-37,29,cs),
(-37,4,o),
(-25,-14,o),
(-8,-14,cs)
);
},
{
closed = 1;
nodes = (
(375,316,o),
(456,531,o),
(456,727,c),
(426,731,o),
(396,732,o),
(367,728,c),
(367,564,o),
(306,389,o),
(188,206,c),
(230,129,l)
);
}
);
width = 462;
}
);
},
{
color = 6;
export = 0;
glyphname = _part.l.in.cv01;
lastChange = "2023-09-07 12:28:23 +0000";
layers = (
{
background = {
shapes = (
{
closed = 1;
nodes = (
(412,298,o),
(477,496,o),
(477,709,c),
(448,716,o),
(420,716,o),
(390,709,c),
(390,532,o),
(333,344,o),
(248,238,c),
(281,137,l)
);
},
{
closed = 1;
nodes = (
(82,-14,o),
(191,40,o),
(263,134,c),
(217,212,l),
(146,125,o),
(63,71,o),
(-29,71,cs),
(-51,71,o),
(-65,55,o),
(-65,29,cs),
(-65,4,o),
(-53,-14,o),
(-34,-14,cs)
);
}
);
};
layerId = "6DBDBFCA-DF26-4695-B281-FA25C6EAD80F";
shapes = (
{
closed = 1;
nodes = (
(42,-14,o),
(141,44,o),
(229,134,c),
(176,205,l),
(119,132,o),
(20,71,o),
(-81,71,cs),
(-104,71,o),
(-117,54,o),
(-117,29,cs),
(-117,4,o),
(-106,-14,o),
(-87,-14,cs)
);
},
{
closed = 1;
nodes = (
(395,328,o),
(477,537,o),
(477,727,c),
(447,731,o),
(417,732,o),
(388,728,c),
(388,568,o),
(326,398,o),
(206,219,c),
(248,146,l)
);
}
);
width = 463;
}
);
},
{
color = 6;
export = 0;
glyphname = _part.l.in.cv02;
lastChange = "2023-09-07 12:28:28 +0000";
layers = (
{
layerId = "6DBDBFCA-DF26-4695-B281-FA25C6EAD80F";
shapes = (
{
closed = 1;
nodes = (
(103,337,l),
(249,398,o),
(355,539,o),
(355,727,c),
(340,736,o),
(288,737,o),
(266,729,c),
(266,575,o),
(186,456,o),
(80,416,c)
);
},
{
closed = 1;
nodes = (
(52,413,l),
(-12,392,o),
(-73,379,o),
(-134,379,cs),
(-161,379,ls),
(-173,379,o),
(-184,368,o),
(-184,344,cs),
(-184,309,o),
(-164,300,o),
(-117,300,cs),
(-57,300,o),
(30,317,o),
(82,339,c)
);
}
);
width = 296;
}
);
},
{
color = 6;
export = 0;
glyphname = _part.l.in.cv03;
lastChange = "2023-09-07 12:28:33 +0000";
layers = (
{
background = {
shapes = (
{
closed = 1;
nodes = (
(292,304,o),
(379,499,o),
(379,708,c),
(347,719,o),
(314,718,o),
(292,710,c),
(292,527,o),
(219,371,o),
(120,268,c),
(149,165,l)
);
},
{
closed = 1;
nodes = (
(-90,-31,o),
(-63,-10,o),
(-42,6,cs),
(56,85,o),
(101,128,o),
(127,165,c),
(98,265,l),
(70,217,o),
(31,181,o),
(-46,115,cs),
(-78,89,o),
(-121,52,o),
(-162,19,cs),
(-178,6,o),
(-185,-6,o),
(-185,-19,cs),
(-185,-38,o),
(-156,-68,o),
(-133,-68,cs),
(-125,-68,o),
(-118,-62,o),
(-109,-52,cs)
);
}
);
};
layerId = "6DBDBFCA-DF26-4695-B281-FA25C6EAD80F";
shapes = (
{
closed = 1;
nodes = (
(292,309,o),
(379,511,o),
(379,728,c),
(347,739,o),
(312,738,o),
(290,730,c),
(290,539,o),
(218,376,o),
(120,268,c),
(149,165,l)
);
},
{
closed = 1;
nodes = (
(-90,-31,o),
(-63,-10,o),
(-42,6,cs),
(56,85,o),
(101,128,o),
(127,165,c),
(98,265,l),
(70,217,o),
(31,181,o),
(-46,115,cs),
(-78,89,o),
(-121,52,o),
(-162,19,cs),
(-178,6,o),
(-185,-6,o),
(-185,-19,cs),
(-185,-38,o),
(-156,-68,o),
(-133,-68,cs),
(-125,-68,o),
(-118,-62,o),
(-109,-52,cs)
);
}
);
width = 355;
}
);
},
{
color = 6;
export = 0;
glyphname = _part.l.ini;
lastChange = "2023-09-07 12:27:36 +0000";
layers = (
{
layerId = "6DBDBFCA-DF26-4695-B281-FA25C6EAD80F";
shapes = (
{
closed = 1;
nodes = (
(348,262,o),
(456,494,o),
(456,727,c),
(430,732,o),
(394,733,o),
(367,728,c),
(367,531,o),
(280,317,o),
(178,207,c),
(233,144,l)
);
},
{
closed = 1;
nodes = (
(139,39,o),
(178,84,o),
(223,136,c),
(156,194,l),
(119,145,o),
(62,97,o),
(9,67,c),
(17,29,o),
(32,4,o),
(58,-14,c)
);
}
);
width = 420;
}
);
},
{
color = 6;
export = 0;
glyphname = _part.l.out;
lastChange = "2023-09-07 12:27:26 +0000";
layers = (
{
layerId = "6DBDBFCA-DF26-4695-B281-FA25C6EAD80F";
shapes = (
{
closed = 1;
nodes = (
(355,-14,o),
(369,2,o),
(369,28,cs),
(369,54,o),
(357,71,o),
(338,71,cs),
(291,71,o),
(254,93,o),
(235,137,cs),
(212,190,o),
(206,262,o),
(206,532,c),
(181,548,o),
(149,550,o),
(117,537,c),
(117,253,o),
(128,156,o),
(164,81,cs),
(191,27,o),
(253,-14,o),
(332,-14,cs)
);
}
);
width = 460;
}
);
},
{
color = 6;
export = 0;
glyphname = _part.m;
lastChange = "2023-08-31 09:36:21 +0000";
layers = (
{
layerId = "6DBDBFCA-DF26-4695-B281-FA25C6EAD80F";
shapes = (
{
closed = 1;
nodes = (
(317,-7,o),
(334,-4,o),
(348,0,c),
(348,172,ls),
(348,308,o),
(397,400,o),
(470,400,cs),
(523,400,o),
(551,357,o),
(551,278,cs),
(551,0,l),
(567,-5,o),
(581,-7,o),
(597,-7,cs),
(611,-7,o),
(628,-4,o),
(642,0,c),
(642,172,ls),
(642,314,o),
(685,400,o),
(756,400,cs),
(803,400,o),
(829,361,o),
(829,292,c),
(859,285,o),
(896,285,o),
(920,292,c),
(920,314,ls),
(920,423,o),
(867,486,o),
(773,486,cs),
(694,486,o),
(630,437,o),
(604,356,c),
(626,345,l),
(608,438,o),
(559,486,o),
(482,486,cs),
(406,486,o),
(347,438,o),
(321,355,c),
(345,355,l),
(337,435,o),
(289,486,o),
(220,486,c),
(207,468,o),
(203,429,o),
(212,400,c),
(241,400,o),
(258,371,o),
(258,319,cs),
(258,0,l),
(272,-5,o),
(286,-7,o),
(303,-7,cs)
);
}
);
width = 1110;
}
);
},
{
color = 6;
export = 0;
glyphname = _part.n;
lastChange = "2023-09-15 12:19:37 +0000";
layers = (
{
anchors = (
{
name = top;
pos = (388,472);
}
);
layerId = "6DBDBFCA-DF26-4695-B281-FA25C6EAD80F";
partSelection = {
contrast = 2;
};
shapes = (
{
closed = 1;
nodes = (
(318,-7,o),
(335,-4,o),
(348,0,c),
(348,124,ls),
(348,288,o),
(408,400,o),
(496,400,cs),
(551,400,o),
(581,362,o),
(581,292,c),
(611,279,o),
(641,279,o),
(672,292,c),
(672,415,o),
(613,486,o),
(509,486,cs),
(422,486,o),
(352,434,o),
(318,345,c),
(345,345,l),
(342,430,o),
(293,486,o),
(220,486,c),
(207,461,o),
(204,432,o),
(212,400,c),
(247,400,o),
(258,371,o),
(258,319,cs),
(258,0,l),
(273,-5,o),
(287,-7,o),
(303,-7,cs)
);
}
);
width = 736;
}
);
partsSettings = (
{
bottomName = Low;
bottomValue = -100;
name = contrast;
topName = High;
topValue = 0;
}
);
},
{
color = 6;
export = 0;
glyphname = _part.n.in;
lastChange = "2023-08-31 09:36:21 +0000";
layers = (
{
layerId = "6DBDBFCA-DF26-4695-B281-FA25C6EAD80F";
shapes = (
{
closed = 1;
nodes = (
(91,-14,o),
(149,44,o),
(184,176,cs),
(221,320,ls),
(235,376,o),
(255,400,o),
(283,400,c),
(294,428,o),
(295,464,o),
(291,486,c),
(212,486,o),
(159,433,o),
(131,330,cs),
(101,213,ls),
(75,111,o),
(42,72,o),
(-1,72,cs),
(-23,72,o),
(-37,56,o),
(-37,29,cs),
(-37,4,o),
(-25,-14,o),
(-8,-14,cs)
);
}
);
width = 404;
}
);
},
{
color = 6;
export = 0;
glyphname = _part.n.in.cv01;
lastChange = "2023-09-06 15:04:20 +0000";
layers = (
{
layerId = "6DBDBFCA-DF26-4695-B281-FA25C6EAD80F";
shapes = (
{
closed = 1;
nodes = (
(45,-14,o),
(127,44,o),
(191,167,cs),
(260,300,ls),
(295,368,o),
(314,400,o),
(341,400,c),
(353,425,o),
(355,453,o),
(349,486,c),
(283,486,o),
(240,452,o),
(185,345,cs),
(129,236,ls),
(67,115,o),
(16,71,o),
(-65,71,cs),
(-86,71,o),
(-100,55,o),
(-100,29,cs),
(-100,4,o),
(-88,-14,o),
(-71,-14,cs)
);
}
);
width = 404;
}
);
},
{
color = 6;
export = 0;
glyphname = _part.n.in.cv02;
lastChange = "2023-09-15 12:19:26 +0000";
layers = (
{
layerId = "6DBDBFCA-DF26-4695-B281-FA25C6EAD80F";
shapes = (
{
closed = 1;
nodes = (
(-155,392,o),
(-161,383,o),
(-161,371,cs),
(-161,347,o),
(-138,321,o),
(-119,321,cs),
(-113,321,o),
(-106,323,o),
(-100,327,cs),
(-34,374,o),
(20,400,o),
(50,400,c),
(62,422,o),
(66,458,o),
(58,486,c),
(1,486,o),
(-50,461,o),
(-144,399,cs)
);
}
);
width = 285;
}
);
},
{
color = 6;
export = 0;
glyphname = _part.n.in.cv03;
lastChange = "2023-08-31 09:36:21 +0000";
layers = (
{
layerId = "6DBDBFCA-DF26-4695-B281-FA25C6EAD80F";
shapes = (
{
closed = 1;
nodes = (
(-33,-6,o),
(26,71,o),
(80,200,cs),
(101,250,ls),
(146,357,o),
(179,400,o),
(216,400,c),
(227,418,o),
(231,460,o),
(224,486,c),
(142,486,o),
(91,435,o),
(24,286,cs),
(-3,226,ls),
(-50,121,o),
(-101,51,o),
(-158,22,cs),
(-181,10,o),
(-186,5,o),
(-186,-7,cs),
(-186,-37,o),
(-164,-74,o),
(-144,-74,cs),
(-138,-74,o),
(-132,-72,o),
(-123,-66,cs)
);
}
);
width = 338;
}
);
},
{
color = 6;
export = 0;
glyphname = _part.n.ini;
lastChange = "2023-08-31 09:36:21 +0000";
layers = (
{
layerId = "6DBDBFCA-DF26-4695-B281-FA25C6EAD80F";
shapes = (
{
closed = 1;
nodes = (
(203,325,ls),
(244,389,o),
(270,400,o),
(286,400,c),
(297,423,o),
(301,466,o),
(294,486,c),
(235,486,o),
(187,459,o),
(125,358,cs),
(95,308,l),
(108,290,o),
(134,269,o),
(162,262,c)
);
}
);
width = 409;
}
);
},
{
color = 6;
export = 0;
glyphname = _part.n.out;
lastChange = "2023-09-19 15:03:08 +0000";
layers = (
{
anchors = (
{
name = "#fina";
pos = (268,72);
}
);
layerId = "6DBDBFCA-DF26-4695-B281-FA25C6EAD80F";
shapes = (
{
closed = 1;
nodes = (
(286,-14,o),
(297,6,o),
(297,28,cs),
(297,55,o),
(287,72,o),
(268,72,cs),
(225,72,o),
(207,102,o),
(207,175,cs),
(207,292,l),
(189,295,o),
(174,297,o),
(160,297,cs),
(146,297,o),
(134,296,o),
(116,292,c),
(116,164,ls),
(116,46,o),
(165,-14,o),
(261,-14,cs)
);
}
);
width = 269;
}
);
},
{
color = 6;
export = 0;
glyphname = _part.o;
lastChange = "2023-09-15 13:34:44 +0000";
layers = (
{
anchors = (
{
name = bottom;
pos = (271,0);
},
{
name = center;
pos = (271,236);
},
{
name = horn;
pos = (367,440);
},
{
name = top;
pos = (271,472);
}
);
layerId = "6DBDBFCA-DF26-4695-B281-FA25C6EAD80F";
shapes = (
{
closed = 1;
nodes = (
(406,-14,o),
(505,93,o),
(505,237,cs),
(505,380,o),
(405,486,o),
(271,486,cs),
(136,486,o),
(35,380,o),
(35,237,cs),
(35,92,o),
(135,-14,o),
(271,-14,cs)
);
},
{
closed = 1;
nodes = (
(185,72,o),
(129,138,o),
(129,235,cs),
(129,334,o),
(187,400,o),
(271,400,cs),
(355,400,o),
(411,334,o),
(411,237,cs),
(411,137,o),
(355,72,o),
(270,72,cs)
);
}
);
width = 540;
}
);
},
{
color = 6;
export = 0;
glyphname = _part.o.boucle;
lastChange = "2023-08-31 09:36:21 +0000";
layers = (
{
layerId = "6DBDBFCA-DF26-4695-B281-FA25C6EAD80F";
shapes = (
{
closed = 1;
nodes = (
(468,309,o),
(491,312,o),
(516,323,c),
(492,404,l),
(468,400,o),
(442,399,o),
(429,399,cs),
(388,399,o),
(342,414,o),
(326,445,c),
(232,429,l),
(247,360,o),
(357,309,o),
(435,309,cs)
);
}
);
width = 612;
}
);
},
{
color = 6;
export = 0;
glyphname = _part.o.in;
lastChange = "2023-08-31 09:36:21 +0000";
layers = (
{
layerId = "6DBDBFCA-DF26-4695-B281-FA25C6EAD80F";
shapes = (
{
closed = 1;
nodes = (
(-73,72,o),
(-87,56,o),
(-87,29,cs),
(-87,4,o),
(-75,-14,o),
(-58,-14,cs),
(18,-14,o),
(83,31,o),
(123,114,c),
(74,206,l),
(45,125,o),
(-4,72,o),
(-51,72,cs)
);
}
);
width = 286;
}
);
},
{
color = 6;
export = 0;
glyphname = _part.o.in.cv01;
lastChange = "2023-09-07 12:24:43 +0000";
layers = (
{
layerId = "6DBDBFCA-DF26-4695-B281-FA25C6EAD80F";
shapes = (
{
closed = 1;
nodes = (
(86,-14,o),
(193,61,o),
(240,187,c),
(222,209,o),
(198,220,o),
(166,220,c),
(125,129,o),
(48,71,o),
(-42,71,cs),
(-64,71,o),
(-78,55,o),
(-78,29,cs),
(-78,4,o),
(-66,-14,o),
(-47,-14,cs)
);
}
);
width = 397;
}
);
},
{
color = 6;
export = 0;
glyphname = _part.o.in.cv02;
lastChange = "2023-08-31 09:36:21 +0000";
layers = (
{
layerId = "6DBDBFCA-DF26-4695-B281-FA25C6EAD80F";
shapes = (
{
closed = 1;
nodes = (
(178,315,o),
(307,342,o),
(386,389,c),
(368,465,l),
(268,421,o),
(161,400,o),
(42,400,cs),
(22,400,o),
(9,387,o),
(9,359,cs),
(9,333,o),
(22,315,o),
(42,315,cs)
);
}
);
width = 474;
}
);
},
{
color = 6;
export = 0;
glyphname = _part.o.in.cv03;
lastChange = "2023-08-31 09:36:21 +0000";
layers = (
{
layerId = "6DBDBFCA-DF26-4695-B281-FA25C6EAD80F";
shapes = (
{
closed = 1;
nodes = (
(88,109,l),
(38,181,l),
(-176,20,ls),
(-188,11,o),
(-194,4,o),
(-194,-9,cs),
(-194,-30,o),
(-172,-60,o),
(-149,-60,cs),
(-142,-60,o),
(-134,-57,o),
(-123,-48,cs)
);
}
);
width = 354;
}
);
},
{
color = 6;
export = 0;
glyphname = _part.oe;
lastChange = "2023-08-31 09:36:21 +0000";
layers = (
{
anchors = (
{
name = "#fina";
pos = (707,71);
}
);
layerId = "6DBDBFCA-DF26-4695-B281-FA25C6EAD80F";
shapes = (
{
closed = 1;
nodes = (
(444,-14,o),
(539,93,o),
(539,237,cs),
(539,381,o),
(444,487,o),
(317,487,cs),
(186,487,o),
(88,381,o),
(88,237,cs),
(88,92,o),
(184,-14,o),
(316,-14,cs)
);
},
{
closed = 1;
nodes = (
(235,72,o),
(181,137,o),
(181,237,cs),
(181,335,o),
(236,401,o),
(317,401,cs),
(398,401,o),
(452,334,o),
(452,237,cs),
(452,138,o),
(397,72,o),
(316,72,cs)
);
},
{
closed = 1;
nodes = (
(610,71,o),
(539,143,o),
(539,244,cs),
(539,341,o),
(586,404,o),
(658,404,cs),
(694,404,o),
(723,379,o),
(723,346,cs),
(723,296,o),
(665,262,o),
(578,262,cs),
(559,262,o),
(538,264,o),
(513,269,c),
(509,188,l),
(547,183,o),
(562,182,o),
(578,182,cs),
(718,182,o),
(810,249,o),
(810,351,cs),
(810,429,o),
(744,487,o),
(658,487,cs),
(542,487,o),
(463,388,o),
(463,243,cs),
(463,87,o),
(557,-14,o),
(702,-14,cs),
(724,-14,o),
(736,2,o),
(736,28,cs),
(736,53,o),
(724,71,o),
(707,71,cs)
);
},
{
closed = 1;
nodes = (
(479,287,o),
(439,397,o),
(305,419,c),
(305,339,o),
(383,234,o),
(459,203,c)
);
}
);
width = 808;
}
);
metricRight = e.medi.cv02;
},
{
color = 6;
export = 0;
glyphname = _part.p;
lastChange = "2023-08-31 09:36:21 +0000";
layers = (
{
layerId = "6DBDBFCA-DF26-4695-B281-FA25C6EAD80F";
shapes = (
{
closed = 1;
nodes = (
(302,-375,o),
(319,-372,o),
(333,-368,c),
(333,202,ls),
(333,311,o),
(388,400,o),
(459,400,cs),
(510,400,o),
(538,362,o),
(538,292,c),
(570,283,o),
(600,283,o),
(629,292,c),
(629,413,o),
(568,486,o),
(469,486,cs),
(380,486,o),
(313,421,o),
(282,301,c),
(327,323,l),
(242,323,l),
(242,-368,l),
(258,-373,o),
(272,-375,o),
(288,-375,cs)
);
}
);
width = 720;
}
);
},
{
color = 6;
export = 0;
glyphname = _part.p.in;
lastChange = "2023-08-31 09:36:21 +0000";
layers = (
{
layerId = "6DBDBFCA-DF26-4695-B281-FA25C6EAD80F";
shapes = (
{
closed = 1;
nodes = (
(123,-14,o),
(179,96,o),
(236,256,cs),
(273,356,l),
(210,300,l),
(332,298,l),
(317,472,l),
(293,482,o),
(251,484,o),
(225,477,c),
(208,413,o),
(179,344,o),
(158,283,cs),
(119,175,o),
(69,72,o),
(1,72,cs),
(-26,72,o),
(-37,52,o),
(-37,29,cs),
(-37,8,o),
(-26,-14,o),
(-5,-14,cs)
);
}
);
width = 564;
}
);
metricLeft = n;
},
{
color = 6;
export = 0;
glyphname = _part.p.in.cv01;
lastChange = "2023-08-31 09:36:21 +0000";
layers = (
{
layerId = "6DBDBFCA-DF26-4695-B281-FA25C6EAD80F";
shapes = (
{
closed = 1;
nodes = (
(115,-14,o),
(228,104,o),
(314,350,c),
(243,292,l),
(361,289,l),
(361,466,l),
(335,479,o),
(300,485,o),
(278,479,c),
(167,185,o),
(81,71,o),
(-32,71,cs),
(-54,71,o),
(-68,55,o),
(-68,29,cs),
(-68,4,o),
(-56,-14,o),
(-37,-14,cs)
);
}
);
width = 474;
}
);
},
{
color = 6;
export = 0;
glyphname = _part.p.in.cv03;
lastChange = "2023-08-31 09:36:21 +0000";
layers = (
{
layerId = "6DBDBFCA-DF26-4695-B281-FA25C6EAD80F";
shapes = (
{
closed = 1;
nodes = (
(23,74,o),
(128,212,o),
(197,333,c),
(151,313,l),
(166,310,o),
(186,307,o),
(206,307,cs),
(226,307,o),
(246,310,o),
(264,312,c),
(264,474,l),
(245,485,o),
(205,488,o),
(179,483,c),
(67,275,o),
(-12,165,o),
(-174,12,cs),
(-191,-4,o),
(-198,-14,o),
(-198,-24,cs),
(-198,-44,o),
(-176,-72,o),
(-149,-72,cs),
(-140,-72,o),
(-134,-68,o),
(-120,-56,cs)
);
}
);
width = 490;
}
);
},
{
color = 6;
export = 0;
glyphname = _part.p.ini;
lastChange = "2023-08-31 09:36:21 +0000";
layers = (
{
layerId = "6DBDBFCA-DF26-4695-B281-FA25C6EAD80F";
shapes = (
{
closed = 1;
nodes = (
(81,39,o),
(211,227,o),
(256,350,c),
(185,338,l),
(204,327,o),
(235,319,o),
(267,319,cs),
(280,319,o),
(295,321,o),
(307,323,c),
(307,472,l),
(285,484,o),
(246,486,o),
(225,483,c),
(168,333,o),
(74,175,o),
(-37,42,c),
(-26,15,o),
(-1,-8,o),
(27,-14,c)
);
}
);
width = 533;
}
);
},
{
color = 3;
export = 0;
glyphname = _part.q;
lastChange = "2023-08-31 09:36:21 +0000";
layers = (
{
layerId = "6DBDBFCA-DF26-4695-B281-FA25C6EAD80F";
shapes = (
{
closed = 1;
nodes = (
(451,-394,o),
(468,-391,o),
(481,-387,c),
(481,285,l),
(390,285,l),
(390,-387,l),
(406,-392,o),
(420,-394,o),
(436,-394,cs)
);
},
{
pos = (-27,0);
ref = _part.a;
}
);
width = 609;
}
);
metricLeft = o.init;
},
{
color = 6;
export = 0;
glyphname = _part.r;
lastChange = "2023-08-31 09:36:21 +0000";
layers = (
{
layerId = "6DBDBFCA-DF26-4695-B281-FA25C6EAD80F";
shapes = (
{
closed = 1;
nodes = (
(439,284,o),
(469,284,o),
(503,292,c),
(503,336,ls),
(503,428,o),
(459,486,o),
(387,486,cs),
(368,486,o),
(344,483,o),
(302,474,cs),
(264,465,o),
(237,461,o),
(216,461,c),
(216,377,l),
(237,377,o),
(260,380,o),
(307,390,cs),
(344,398,o),
(354,400,o),
(366,400,cs),
(401,400,o),
(412,379,o),
(412,319,cs),
(412,292,l)
);
}
);
width = 566;
}
);
},
{
color = 6;
export = 0;
glyphname = _part.r.ini;
lastChange = "2023-08-31 09:36:21 +0000";
layers = (
{
layerId = "6DBDBFCA-DF26-4695-B281-FA25C6EAD80F";
shapes = (
{
closed = 1;
nodes = (
(210,94,o),
(233,225,o),
(233,343,cs),
(233,416,o),
(219,498,o),
(189,550,c),
(154,550,o),
(107,533,o),
(92,515,c),
(92,488,o),
(115,427,o),
(139,406,c),
(143,388,o),
(144,362,o),
(144,345,cs),
(144,226,o),
(121,116,o),
(80,30,c),
(106,7,o),
(134,-2,o),
(166,-3,c)
);
}
);
width = 574;
}
);
},
{
color = 6;
export = 0;
glyphname = _part.s;
lastChange = "2023-08-31 09:36:21 +0000";
layers = (
{
anchors = (
{
name = bottom;
pos = (369,0);
},
{
name = top;
pos = (369,472);
}
);
layerId = "6DBDBFCA-DF26-4695-B281-FA25C6EAD80F";
shapes = (
{
closed = 1;
nodes = (
(488,-14,o),
(562,55,o),
(562,148,cs),
(562,206,o),
(534,252,o),
(480,296,cs),
(404,358,ls),
(356,397,o),
(342,419,o),
(342,473,c),
(409,514,l),
(397,541,o),
(349,561,o),
(315,553,c),
(299,546,o),
(266,517,o),
(266,450,cs),
(266,391,o),
(291,340,o),
(349,294,cs),
(425,234,ls),
(458,208,o),
(473,182,o),
(473,152,cs),
(473,105,o),
(437,72,o),
(381,72,cs),
(348,72,o),
(315,83,o),
(277,108,c),
(250,92,o),
(236,64,o),
(237,30,c),
(287,-1,o),
(333,-14,o),
(380,-14,cs)
);
}
);
width = 607;
}
);
},
{
color = 6;
export = 0;
glyphname = _part.s.in;
lastChange = "2023-08-31 09:36:21 +0000";
layers = (
{
layerId = "6DBDBFCA-DF26-4695-B281-FA25C6EAD80F";
shapes = (
{
closed = 1;
nodes = (
(79,-14,o),
(140,34,o),
(213,158,cs),
(341,374,ls),
(387,450,o),
(403,486,o),
(409,514,c),
(338,537,l),
(161,239,ls),
(91,122,o),
(42,72,o),
(-1,72,cs),
(-23,72,o),
(-37,56,o),
(-37,29,cs),
(-37,4,o),
(-25,-14,o),
(-8,-14,cs)
);
}
);
width = 557;
}
);
},
{
color = 6;
export = 0;
glyphname = _part.s.in.cv01;
lastChange = "2023-08-31 09:36:21 +0000";
layers = (
{
layerId = "6DBDBFCA-DF26-4695-B281-FA25C6EAD80F";
shapes = (
{
closed = 1;
nodes = (
(133,-14,o),
(206,63,o),
(259,158,cs),
(340,305,ls),
(396,405,o),
(425,478,o),
(431,514,c),
(366,537,l),
(200,228,ls),
(160,153,o),
(102,71,o),
(7,71,cs),
(-15,71,o),
(-30,55,o),
(-30,29,cs),
(-30,4,o),
(-18,-14,o),
(-1,-14,cs)
);
}
);
width = 557;
}
);
},
{
color = 6;
export = 0;
glyphname = _part.s.in.cv02;
lastChange = "2023-08-31 09:36:21 +0000";
layers = (
{
layerId = "6DBDBFCA-DF26-4695-B281-FA25C6EAD80F";
shapes = (
{
closed = 1;
nodes = (
(-1,307,o),
(139,388,o),
(162,514,c),
(75,535,l),
(64,446,o),
(-44,391,o),
(-128,391,cs),
(-149,391,o),
(-162,376,o),
(-162,350,cs),
(-162,325,o),
(-146,307,o),
(-124,307,cs)
);
}
);
width = 332;
}
);
},
{
color = 6;
export = 0;
glyphname = _part.s.in.cv03;
lastChange = "2023-08-31 09:36:21 +0000";
layers = (
{
layerId = "6DBDBFCA-DF26-4695-B281-FA25C6EAD80F";
shapes = (
{
closed = 1;
nodes = (
(46,77,o),
(136,193,o),
(297,514,c),
(216,542,l),
(88,291,o),
(-31,125,o),
(-161,16,cs),
(-178,2,o),
(-183,-6,o),
(-183,-15,cs),
(-183,-37,o),
(-161,-71,o),
(-138,-71,cs),
(-129,-71,o),
(-122,-67,o),
(-114,-60,cs)
);
}
);
width = 558;
}
);
},
{
color = 6;
export = 0;
glyphname = _part.s.ini;
lastChange = "2023-08-31 09:36:21 +0000";
layers = (
{
layerId = "6DBDBFCA-DF26-4695-B281-FA25C6EAD80F";
shapes = (
{
closed = 1;
nodes = (
(9,19,o),
(34,-2,o),
(69,-6,c),
(144,72,o),
(254,234,o),
(327,360,cs),
(361,417,o),
(398,480,o),
(404,514,c),
(327,543,l),
(231,360,o),
(133,200,o),
(2,51,c)
);
}
);
visible = 1;
width = 570;
}
);
},
{
color = 6;
export = 0;
glyphname = _part.s.out;
lastChange = "2023-08-31 09:36:21 +0000";
layers = (
{
anchors = (
{
name = "_#fina";
pos = (439,-5);
}
);
layerId = "6DBDBFCA-DF26-4695-B281-FA25C6EAD80F";
shapes = (
{
closed = 1;
nodes = (
(536,-14,o),
(550,2,o),
(550,28,cs),
(550,53,o),
(538,71,o),
(521,71,c),
(439,-5,l),
(469,-10,o),
(489,-14,o),
(514,-14,cs)
);
}
);
width = 554;
}
);
},
{
color = 6;
export = 0;
glyphname = _part.t;
lastChange = "2023-08-31 09:36:21 +0000";
layers = (
{
layerId = "6DBDBFCA-DF26-4695-B281-FA25C6EAD80F";
shapes = (
{
closed = 1;
nodes = (
(282,270,l),
(282,743,l),
(266,748,o),
(252,750,o),
(236,750,cs),
(218,750,o),
(201,747,o),
(190,743,c),
(190,270,l)
);
},
{
closed = 1;
nodes = (
(431,486,l),
(441,507,o),
(441,545,o),
(431,566,c),
(116,566,l),
(107,545,o),
(107,507,o),
(116,486,c)
);
}
);
width = 380;
}
);
},
